<svg width="216" height="165" viewBox="0 0 216 165" fill="none" xmlns="http://www.w3.org/2000/svg">
<path d="M215.967 145.301H0.59375V145.409H215.967V145.301Z" fill="#E0E0E0"/>
<path d="M163.99 149.274H149.172V149.382H163.99V149.274Z" fill="#E0E0E0"/>
<path d="M181.42 148.968H173.081V149.076H181.42V148.968Z" fill="#E0E0E0"/>
<path d="M107.137 149.223H96.0752V149.33H107.137V149.223Z" fill="#E0E0E0"/>
<path d="M115.124 150.753H107.568V150.86H115.124V150.753Z" fill="#E0E0E0"/>
<path d="M62.9082 148.132H40.083V148.24H62.9082V148.132Z" fill="#E0E0E0"/>
<path d="M102.68 126.081H19.507C18.8554 126.08 18.2309 125.82 17.7706 125.359C17.3103 124.897 17.0518 124.272 17.0518 123.62V6.64805C17.0574 5.99992 17.3185 5.3802 17.7782 4.9235C18.2379 4.4668 18.8592 4.21 19.507 4.20889H102.68C103.332 4.20889 103.958 4.46815 104.419 4.92962C104.88 5.39109 105.139 6.01698 105.139 6.6696V123.62C105.139 124.273 104.88 124.899 104.419 125.36C103.958 125.822 103.332 126.081 102.68 126.081ZM19.507 4.29508C18.884 4.29622 18.2869 4.54463 17.8468 4.98577C17.4066 5.42692 17.1594 6.02475 17.1594 6.64805V123.62C17.1594 124.243 17.4066 124.841 17.8468 125.282C18.2869 125.723 18.884 125.972 19.507 125.973H102.68C103.303 125.972 103.901 125.724 104.341 125.283C104.782 124.842 105.03 124.244 105.032 123.62V6.64805C105.03 6.02436 104.782 5.42653 104.341 4.98551C103.901 4.54449 103.303 4.29622 102.68 4.29508H19.507Z" fill="#E0E0E0"/>
<path d="M195.856 126.081H112.679C112.027 126.08 111.402 125.82 110.941 125.359C110.48 124.898 110.221 124.272 110.22 123.62V6.64815C110.227 5.99962 110.489 5.3799 110.949 4.92332C111.409 4.46674 112.031 4.21008 112.679 4.20898H195.856C196.503 4.21123 197.124 4.46852 197.582 4.9251C198.041 5.38168 198.302 6.00076 198.307 6.64815V123.62C198.307 124.271 198.049 124.896 197.59 125.357C197.13 125.818 196.507 126.079 195.856 126.081ZM112.679 4.29517C112.056 4.29631 111.458 4.54458 111.018 4.9856C110.577 5.42662 110.329 6.02445 110.327 6.64815V123.62C110.329 124.244 110.577 124.842 111.018 125.283C111.458 125.724 112.056 125.972 112.679 125.973H195.856C196.48 125.972 197.077 125.724 197.518 125.283C197.959 124.842 198.207 124.244 198.208 123.62V6.64815C198.207 6.02445 197.959 5.42662 197.518 4.9856C197.077 4.54458 196.48 4.29631 195.856 4.29517H112.679Z" fill="#E0E0E0"/>
<path d="M187.551 14.668H122.638V70.5015H187.551V14.668Z" fill="#E0E0E0"/>
<path d="M188.992 14.668H124.079V70.5015H188.992V14.668Z" fill="#F0F0F0"/>
<path d="M186.404 67.8812V17.288L126.668 17.288V67.8812H186.404Z" fill="#FAFAFA"/>
<path d="M167.314 67.8814V17.2882H163.412V67.8814H167.314Z" fill="#E0E0E0"/>
<path d="M146.784 67.8812V17.288H142.882V67.8812H146.784Z" fill="#E0E0E0"/>
<path d="M168.688 69.5405V15.336H164.785V69.5405H168.688Z" fill="#F0F0F0"/>
<path d="M148.154 69.5449V15.3404H144.252V69.5449H148.154Z" fill="#F0F0F0"/>
<path d="M186.404 67.877V17.2838H185.315V67.877H186.404Z" fill="#E0E0E0"/>
<path d="M76.981 58.7624C76.981 58.7624 69.0811 45.1488 80.0436 34.2932C80.0436 34.2932 82.9037 36.1592 82.8607 38.6674C82.8176 41.1755 79.7938 41.809 80.4442 43.9034C81.0946 45.9978 83.9418 48.0448 82.0724 49.7772C80.203 51.5096 82.3739 53.0438 82.249 55.164C82.1241 57.2843 76.981 58.7624 76.981 58.7624Z" fill="#E0E0E0"/>
<path d="M78.2233 60.9905C78.2233 60.9905 81.4281 45.5712 67.6098 38.7364C67.6098 38.7364 65.4819 41.4083 66.3175 43.7742C67.1532 46.1401 70.2158 45.7867 70.2588 47.9802C70.3019 50.1738 68.2473 53.018 70.5647 54.0695C72.8821 55.121 71.3099 57.2671 72.0981 59.2409C72.8864 61.2146 78.2233 60.9905 78.2233 60.9905Z" fill="#E6E6E6"/>
<path d="M71.1895 57.0732C71.1895 57.0732 71.3273 70.3851 76.647 70.3851C81.9667 70.3851 82.1002 57.0732 82.1002 57.0732H71.1895Z" fill="#F0F0F0"/>
<path d="M39.2285 65.3778C39.2285 65.3778 39.5257 70.3854 50.8845 70.3854C62.2433 70.3854 62.5448 65.3778 62.5448 65.3778H39.2285Z" fill="#E6E6E6"/>
<path d="M158.977 95.5696H152.981C152.234 95.5696 151.629 96.1755 151.629 96.9228V106.843C151.629 107.591 152.234 108.196 152.981 108.196H158.977C159.724 108.196 160.33 107.591 160.33 106.843V96.9228C160.33 96.1755 159.724 95.5696 158.977 95.5696Z" fill="#F0F0F0"/>
<path d="M174.88 99.6981H170.844C170.342 99.6981 169.936 100.105 169.936 100.607V107.287C169.936 107.789 170.342 108.196 170.844 108.196H174.88C175.382 108.196 175.789 107.789 175.789 107.287V100.607C175.789 100.105 175.382 99.6981 174.88 99.6981Z" fill="#E6E6E6"/>
<path d="M175.484 98.8752H170.241C170.072 98.8752 169.936 99.0123 169.936 99.1814V99.5263C169.936 99.6954 170.072 99.8325 170.241 99.8325H175.484C175.652 99.8325 175.789 99.6954 175.789 99.5263V99.1814C175.789 99.0123 175.652 98.8752 175.484 98.8752Z" fill="#F0F0F0"/>
<path d="M137.753 101.172C137.753 101.172 137.968 108.196 146.191 108.196C154.414 108.196 154.634 101.172 154.634 101.172H137.753Z" fill="#E6E6E6"/>
<path d="M117.302 91.8938H129.746V89.4374H117.302V91.8938Z" fill="#E0E0E0"/>
<path d="M191.614 89.4417H129.746V91.8981H191.614V89.4417Z" fill="#F0F0F0"/>
<path d="M117.302 110.653H129.746V108.196H117.302V110.653Z" fill="#E0E0E0"/>
<path d="M191.614 108.196H129.746V110.653H191.614V108.196Z" fill="#F0F0F0"/>
<path d="M121.784 91.8938H119.488V145.297H121.784V91.8938Z" fill="#E0E0E0"/>
<path d="M132.042 91.8938H129.746V145.297H132.042V91.8938Z" fill="#F0F0F0"/>
<path d="M183.653 91.8938H181.357V145.297H183.653V91.8938Z" fill="#E0E0E0"/>
<path d="M191.61 91.8938H189.314V145.297H191.61V91.8938Z" fill="#F0F0F0"/>
<path d="M39.226 73.5096H27.458V142.069H39.226V73.5096Z" fill="#E6E6E6"/>
<path d="M87.7508 142.065H29.7207V145.301H87.7508V142.065Z" fill="#E6E6E6"/>
<path d="M39.2262 142.065H90.0068L90.0068 73.5052H39.2262L39.2262 142.065Z" fill="#F0F0F0"/>
<path d="M43.8527 116.16H85.3809V99.4138H43.8527V116.16Z" fill="#E6E6E6"/>
<path d="M43.8527 135.958H85.3809V119.212H43.8527V135.958Z" fill="#E6E6E6"/>
<path d="M69.281 101.25H59.9554C59.6518 101.249 59.361 101.127 59.1464 100.913C58.9318 100.698 58.8107 100.407 58.8096 100.103C58.8096 99.7989 58.9301 99.5069 59.1449 99.2912C59.3597 99.0756 59.6511 98.9538 59.9554 98.9527H69.281C69.5853 98.9538 69.8767 99.0756 70.0914 99.2912C70.3062 99.5069 70.4268 99.7989 70.4268 100.103C70.4256 100.407 70.3046 100.698 70.0899 100.913C69.8753 101.127 69.5845 101.249 69.281 101.25Z" fill="#F0F0F0"/>
<path d="M43.8527 96.3584H85.3809V79.6118H43.8527V96.3584Z" fill="#E6E6E6"/>
<path d="M69.281 81.4519H59.9554C59.6511 81.4508 59.3597 81.3291 59.1449 81.1134C58.9301 80.8978 58.8096 80.6057 58.8096 80.3013C58.8107 79.9976 58.9318 79.7067 59.1464 79.492C59.361 79.2773 59.6518 79.1561 59.9554 79.155H69.281C69.5845 79.1561 69.8753 79.2773 70.0899 79.492C70.3046 79.7067 70.4256 79.9976 70.4268 80.3013C70.4268 80.6057 70.3062 80.8978 70.0914 81.1134C69.8767 81.3291 69.5853 81.4508 69.281 81.4519Z" fill="#F0F0F0"/>
<path d="M69.281 121.047H59.9554C59.6518 121.046 59.361 120.925 59.1464 120.71C58.9318 120.496 58.8107 120.205 58.8096 119.901C58.8096 119.597 58.9301 119.305 59.1449 119.089C59.3597 118.873 59.6511 118.752 59.9554 118.75H69.281C69.5853 118.752 69.8767 118.873 70.0914 119.089C70.3062 119.305 70.4268 119.597 70.4268 119.901C70.4256 120.205 70.3046 120.496 70.0899 120.71C69.8753 120.925 69.5845 121.046 69.281 121.047Z" fill="#F0F0F0"/>
<path d="M91.577 70.385H39.2285V73.5094H91.577V70.385Z" fill="#E6E6E6"/>
<path d="M25.8151 73.5051H39.2285V70.3807H25.8151V73.5051Z" fill="#E0E0E0"/>
<path d="M52.3436 17.2882H33.3047V38.2064H52.3436V17.2882Z" fill="#E6E6E6"/>
<path d="M54.4052 17.2882H34.7373V38.2064H54.4052V17.2882Z" fill="#F0F0F0"/>
<path d="M52.7559 36.556V18.9346H36.3832V36.556H52.7559Z" fill="#FAFAFA"/>
<path d="M48.791 32.2852V23.2051H40.357V32.2852H48.791Z" fill="#F0F0F0"/>
<path d="M72.4152 11.1128H57.9766V26.6312H72.4152V11.1128Z" fill="#E6E6E6"/>
<path d="M73.9497 11.1128H59.3604V26.6312H73.9497V11.1128Z" fill="#F0F0F0"/>
<path d="M72.7246 25.407V12.3364H60.5819V25.407H72.7246Z" fill="#FAFAFA"/>
<path d="M66.655 15.5645L63.334 21.3219H69.9761L66.655 15.5645Z" fill="#F0F0F0"/>
<path d="M108.278 164.762C154.403 164.762 191.795 162.578 191.795 159.884C191.795 157.19 154.403 155.006 108.278 155.006C62.1527 155.006 24.7607 157.19 24.7607 159.884C24.7607 162.578 62.1527 164.762 108.278 164.762Z" fill="#F5F5F5"/>
<path d="M181.422 43.3474H139.166C136.937 43.3474 135.13 45.1552 135.13 47.3853V58.883C135.13 61.1131 136.937 62.921 139.166 62.921H181.422C183.651 62.921 185.458 61.1131 185.458 58.883V47.3853C185.458 45.1552 183.651 43.3474 181.422 43.3474Z" fill="#008D91"/>
<path d="M173.039 46.6483H140.031C139.64 46.6483 139.324 46.9647 139.324 47.355V48.1307C139.324 48.5211 139.64 48.8375 140.031 48.8375H173.039C173.429 48.8375 173.745 48.5211 173.745 48.1307V47.355C173.745 46.9647 173.429 46.6483 173.039 46.6483Z" fill="#008D91"/>
<path d="M162.584 51.9233H140.031C139.64 51.9233 139.324 52.2397 139.324 52.63V53.4057C139.324 53.7961 139.64 54.1125 140.031 54.1125H162.584C162.975 54.1125 163.291 53.7961 163.291 53.4057V52.63C163.291 52.2397 162.975 51.9233 162.584 51.9233Z" fill="#008D91"/>
<path d="M156.537 57.1981H140.031C139.64 57.1981 139.324 57.5145 139.324 57.9048V58.6805C139.324 59.0708 139.64 59.3873 140.031 59.3873H156.537C156.927 59.3873 157.243 59.0708 157.243 58.6805V57.9048C157.243 57.5145 156.927 57.1981 156.537 57.1981Z" fill="#008D91"/>
<path d="M176.993 57.1981H160.487C160.097 57.1981 159.78 57.5145 159.78 57.9048V58.6805C159.78 59.0708 160.097 59.3873 160.487 59.3873H176.993C177.383 59.3873 177.699 59.0708 177.699 58.6805V57.9048C177.699 57.5145 177.383 57.1981 176.993 57.1981Z" fill="#008D91"/>
<g opacity="0.5">
<path d="M173.038 46.6483H140.03C139.64 46.6483 139.323 46.9647 139.323 47.355V48.1307C139.323 48.5211 139.64 48.8375 140.03 48.8375H173.038C173.428 48.8375 173.744 48.5211 173.744 48.1307V47.355C173.744 46.9647 173.428 46.6483 173.038 46.6483Z" fill="white"/>
<path d="M162.584 51.9234H140.03C139.64 51.9234 139.323 52.2399 139.323 52.6302V53.4059C139.323 53.7962 139.64 54.1126 140.03 54.1126H162.584C162.974 54.1126 163.29 53.7962 163.29 53.4059V52.6302C163.29 52.2399 162.974 51.9234 162.584 51.9234Z" fill="white"/>
<path d="M156.536 57.1981H140.03C139.64 57.1981 139.323 57.5145 139.323 57.9048V58.6805C139.323 59.0708 139.64 59.3873 140.03 59.3873H156.536C156.926 59.3873 157.242 59.0708 157.242 58.6805V57.9048C157.242 57.5145 156.926 57.1981 156.536 57.1981Z" fill="white"/>
<path d="M176.992 57.1981H160.486C160.096 57.1981 159.779 57.5145 159.779 57.9048V58.6805C159.779 59.0708 160.096 59.3873 160.486 59.3873H176.992C177.382 59.3873 177.698 59.0708 177.698 58.6805V57.9048C177.698 57.5145 177.382 57.1981 176.992 57.1981Z" fill="white"/>
</g>
<path d="M147.571 38.7837H99.6079C96.3392 38.7837 93.6895 41.4347 93.6895 44.7049V61.5635C93.6895 64.8337 96.3392 67.4847 99.6079 67.4847H147.571C150.84 67.4847 153.49 64.8337 153.49 61.5635V44.7049C153.49 41.4347 150.84 38.7837 147.571 38.7837Z" fill="#008D91"/>
<path d="M149.268 43.6232H100.878C100.305 43.6232 99.8398 44.0882 99.8398 44.6617V45.7951C99.8398 46.3687 100.305 46.8337 100.878 46.8337H149.268C149.841 46.8337 150.306 46.3687 150.306 45.7951V44.6617C150.306 44.0882 149.841 43.6232 149.268 43.6232Z" fill="#008D91"/>
<path d="M133.938 51.3588H100.878C100.305 51.3588 99.8398 51.8238 99.8398 52.3974V53.5308C99.8398 54.1044 100.305 54.5694 100.878 54.5694H133.938C134.511 54.5694 134.976 54.1044 134.976 53.5308V52.3974C134.976 51.8238 134.511 51.3588 133.938 51.3588Z" fill="#008D91"/>
<path d="M125.073 59.0941H100.878C100.305 59.0941 99.8398 59.5591 99.8398 60.1327V61.2661C99.8398 61.8397 100.305 62.3047 100.878 62.3047H125.073C125.646 62.3047 126.111 61.8397 126.111 61.2661V60.1327C126.111 59.5591 125.646 59.0941 125.073 59.0941Z" fill="#008D91"/>
<path d="M151.031 59.0941H130.872C130.299 59.0941 129.834 59.5591 129.834 60.1327V61.2661C129.834 61.8397 130.299 62.3047 130.872 62.3047H151.031C151.604 62.3047 152.069 61.8397 152.069 61.2661V60.1327C152.069 59.5591 151.604 59.0941 151.031 59.0941Z" fill="#008D91"/>
<g opacity="0.5">
<path d="M149.271 43.6232H100.881C100.308 43.6232 99.8428 44.0882 99.8428 44.6618V45.7952C99.8428 46.3688 100.308 46.8338 100.881 46.8338H149.271C149.844 46.8338 150.309 46.3688 150.309 45.7952V44.6618C150.309 44.0882 149.844 43.6232 149.271 43.6232Z" fill="white"/>
<path d="M133.941 51.3588H100.881C100.308 51.3588 99.8428 51.8238 99.8428 52.3974V53.5308C99.8428 54.1044 100.308 54.5694 100.881 54.5694H133.941C134.514 54.5694 134.979 54.1044 134.979 53.5308V52.3974C134.979 51.8238 134.514 51.3588 133.941 51.3588Z" fill="white"/>
<path d="M125.076 59.0941H100.881C100.308 59.0941 99.8428 59.5591 99.8428 60.1327V61.2661C99.8428 61.8397 100.308 62.3047 100.881 62.3047H125.076C125.649 62.3047 126.114 61.8397 126.114 61.2661V60.1327C126.114 59.5591 125.649 59.0941 125.076 59.0941Z" fill="white"/>
<path d="M151.033 59.0941H130.874C130.301 59.0941 129.836 59.5591 129.836 60.1327V61.2661C129.836 61.8397 130.301 62.3047 130.874 62.3047H151.033C151.606 62.3047 152.071 61.8397 152.071 61.2661V60.1327C152.071 59.5591 151.606 59.0941 151.033 59.0941Z" fill="white"/>
</g>
<path d="M117.751 72.6863H94.6502C93.1229 72.6863 91.8848 73.925 91.8848 75.453V110.075C91.8848 111.603 93.1229 112.842 94.6502 112.842H117.751C119.278 112.842 120.516 111.603 120.516 110.075V75.453C120.516 73.925 119.278 72.6863 117.751 72.6863Z" fill="#008D91"/>
<path opacity="0.4" d="M117.751 72.6863H94.6502C93.1229 72.6863 91.8848 73.925 91.8848 75.453V110.075C91.8848 111.603 93.1229 112.842 94.6502 112.842H117.751C119.278 112.842 120.516 111.603 120.516 110.075V75.453C120.516 73.925 119.278 72.6863 117.751 72.6863Z" fill="#008D91"/>
<path d="M116.691 76.8752H95.7055C95.4248 76.8752 95.1973 77.103 95.1973 77.384V78.1472C95.1973 78.4282 95.4248 78.656 95.7055 78.656H116.691C116.972 78.656 117.2 78.4282 117.2 78.1472V77.384C117.2 77.103 116.972 76.8752 116.691 76.8752Z" fill="#FAFAFA"/>
<path d="M110.011 81.1588H95.7055C95.4248 81.1588 95.1973 81.3866 95.1973 81.6676V82.4308C95.1973 82.7118 95.4248 82.9396 95.7055 82.9396H110.011C110.291 82.9396 110.519 82.7118 110.519 82.4308V81.6676C110.519 81.3866 110.291 81.1588 110.011 81.1588Z" fill="#FAFAFA"/>
<path d="M116.691 85.4467H95.7055C95.4248 85.4467 95.1973 85.6745 95.1973 85.9555V86.7187C95.1973 86.9997 95.4248 87.2275 95.7055 87.2275H116.691C116.972 87.2275 117.2 86.9997 117.2 86.7187V85.9555C117.2 85.6745 116.972 85.4467 116.691 85.4467Z" fill="#FAFAFA"/>
<path d="M103.506 89.7302H95.7055C95.4248 89.7302 95.1973 89.958 95.1973 90.239V91.0022C95.1973 91.2832 95.4248 91.511 95.7055 91.511H103.506C103.787 91.511 104.015 91.2832 104.015 91.0022V90.239C104.015 89.958 103.787 89.7302 103.506 89.7302Z" fill="#FAFAFA"/>
<path d="M114.421 89.7302H106.621C106.34 89.7302 106.112 89.958 106.112 90.239V91.0022C106.112 91.2832 106.34 91.511 106.621 91.511H114.421C114.702 91.511 114.93 91.2832 114.93 91.0022V90.239C114.93 89.958 114.702 89.7302 114.421 89.7302Z" fill="#FAFAFA"/>
<path d="M116.691 94.0182H95.7055C95.4248 94.0182 95.1973 94.246 95.1973 94.527V95.2902C95.1973 95.5713 95.4248 95.799 95.7055 95.799H116.691C116.972 95.799 117.2 95.5713 117.2 95.2902V94.527C117.2 94.246 116.972 94.0182 116.691 94.0182Z" fill="#FAFAFA"/>
<path d="M116.691 98.3016H95.7055C95.4248 98.3016 95.1973 98.5294 95.1973 98.8104V99.5736C95.1973 99.8546 95.4248 100.082 95.7055 100.082H116.691C116.972 100.082 117.2 99.8546 117.2 99.5736V98.8104C117.2 98.5294 116.972 98.3016 116.691 98.3016Z" fill="#FAFAFA"/>
<path d="M112.97 102.59H95.7055C95.4248 102.59 95.1973 102.817 95.1973 103.098V103.862C95.1973 104.143 95.4248 104.37 95.7055 104.37H112.97C113.251 104.37 113.478 104.143 113.478 103.862V103.098C113.478 102.817 113.251 102.59 112.97 102.59Z" fill="#FAFAFA"/>
<path d="M103.76 106.873H95.7055C95.4248 106.873 95.1973 107.101 95.1973 107.382V108.145C95.1973 108.426 95.4248 108.654 95.7055 108.654H103.76C104.041 108.654 104.269 108.426 104.269 108.145V107.382C104.269 107.101 104.041 106.873 103.76 106.873Z" fill="#FAFAFA"/>
<path d="M124.003 72.4406H91.96L106.127 83.7184L127.85 91.9064V76.2803C127.847 75.2611 127.441 74.2845 126.72 73.5647C125.999 72.8448 125.022 72.4405 124.003 72.4406Z" fill="#008D91"/>
<path opacity="0.4" d="M124.003 72.4406H91.96L106.127 83.7184L127.85 91.9064V76.2803C127.847 75.2611 127.441 74.2845 126.72 73.5647C125.999 72.8448 125.022 72.4405 124.003 72.4406Z" fill="#008D91"/>
<path d="M122.603 78.2499H99.158C98.8059 78.2499 98.5205 78.5354 98.5205 78.8877V80.0771C98.5205 80.4293 98.8059 80.7149 99.158 80.7149H122.603C122.956 80.7149 123.241 80.4293 123.241 80.0771V78.8877C123.241 78.5354 122.956 78.2499 122.603 78.2499Z" fill="#FAFAFA"/>
<path d="M179.417 102.969V80.4217C179.417 78.6938 178.017 77.2931 176.29 77.2931H137.157C135.429 77.2931 134.029 78.6938 134.029 80.4217V102.969C134.029 104.697 135.429 106.098 137.157 106.098H176.29C178.017 106.098 179.417 104.697 179.417 102.969Z" fill="#008D91"/>
<path d="M186.563 95.8238V73.2767C186.563 71.5487 185.163 70.148 183.436 70.148H144.303C142.576 70.148 141.176 71.5487 141.176 73.2767V95.8238C141.176 97.5517 142.576 98.9525 144.303 98.9525H183.436C185.163 98.9525 186.563 97.5517 186.563 95.8238Z" fill="#008D91"/>
<path opacity="0.5" d="M186.563 95.8238V73.2767C186.563 71.5487 185.163 70.148 183.436 70.148H144.303C142.576 70.148 141.176 71.5487 141.176 73.2767V95.8238C141.176 97.5517 142.576 98.9525 144.303 98.9525H183.436C185.163 98.9525 186.563 97.5517 186.563 95.8238Z" fill="white"/>
<path d="M182.591 88.0967V74.2159C182.591 73.4471 181.968 72.8239 181.2 72.8239H168.411C167.642 72.8239 167.019 73.4471 167.019 74.2159V88.0967C167.019 88.8655 167.642 89.4887 168.411 89.4887H181.2C181.968 89.4887 182.591 88.8655 182.591 88.0967Z" fill="#008D91"/>
<path opacity="0.7" d="M182.591 88.0967V74.2159C182.591 73.4471 181.968 72.8239 181.2 72.8239H168.411C167.642 72.8239 167.019 73.4471 167.019 74.2159V88.0967C167.019 88.8655 167.642 89.4887 168.411 89.4887H181.2C181.968 89.4887 182.591 88.8655 182.591 88.0967Z" fill="white"/>
<path d="M164.583 94.8111V84.1753C164.583 83.585 164.105 83.1065 163.515 83.1065H153.715C153.125 83.1065 152.647 83.585 152.647 84.1753V94.8111C152.647 95.4013 153.125 95.8798 153.715 95.8798H163.515C164.105 95.8798 164.583 95.4013 164.583 94.8111Z" fill="#008D91"/>
<path opacity="0.3" d="M164.583 94.8111V84.1753C164.583 83.585 164.105 83.1065 163.515 83.1065H153.715C153.125 83.1065 152.647 83.585 152.647 84.1753V94.8111C152.647 95.4013 153.125 95.8798 153.715 95.8798H163.515C164.105 95.8798 164.583 95.4013 164.583 94.8111Z" fill="white"/>
<path d="M158.612 27.3765V21.632C158.612 19.8755 157.189 18.4516 155.433 18.4516L50.2755 18.4516C48.5198 18.4516 47.0965 19.8755 47.0965 21.632V27.3765C47.0965 29.133 48.5198 30.5569 50.2755 30.5569L155.433 30.5569C157.189 30.5569 158.612 29.133 158.612 27.3765Z" fill="#008D91"/>
<path opacity="0.5" d="M158.612 27.3765V21.632C158.612 19.8755 157.189 18.4516 155.433 18.4516L50.2755 18.4516C48.5198 18.4516 47.0965 19.8755 47.0965 21.632V27.3765C47.0965 29.133 48.5198 30.5569 50.2755 30.5569L155.433 30.5569C157.189 30.5569 158.612 29.133 158.612 27.3765Z" fill="white"/>
<path d="M138.716 32.5822V28.4149L108.456 28.4149V32.5822H138.716Z" fill="#008D91"/>
<path opacity="0.5" d="M138.716 32.5822V28.4149L108.456 28.4149V32.5822H138.716Z" fill="white"/>
<path d="M169.464 9.49212V3.74759C169.464 1.99111 168.041 0.5672 166.285 0.5672L61.127 0.5672C59.3714 0.5672 57.9481 1.99111 57.9481 3.74759V9.49212C57.9481 11.2486 59.3714 12.6725 61.127 12.6725L166.285 12.6725C168.041 12.6725 169.464 11.2486 169.464 9.49212Z" fill="#008D91"/>
<path d="M56.7472 64.2223C56.3681 65.0842 55.9503 66.015 55.5841 66.9243C55.218 67.8336 54.839 68.7688 54.5073 69.6996C53.8267 71.5143 53.2811 73.3767 52.8748 75.2718L52.7498 75.9613L52.7068 76.2199C52.7068 76.2931 52.7068 76.3879 52.6809 76.4741C52.6645 76.8937 52.6732 77.3139 52.7068 77.7325C52.7886 78.6418 52.9351 79.6157 53.1375 80.5897C53.4993 82.5419 53.9602 84.5544 54.4297 86.5367L52.22 87.3986C51.1899 85.52 50.3127 83.5615 49.5968 81.5421C49.2196 80.491 48.9145 79.4155 48.6836 78.3229C48.5542 77.7184 48.4736 77.1045 48.4424 76.487C48.4424 76.3147 48.4424 76.1509 48.4424 75.9656C48.4424 75.7803 48.4424 75.5734 48.4725 75.4528L48.5587 74.5909C48.6874 73.4809 48.8845 72.3799 49.1488 71.2941C49.39 70.2168 49.7002 69.1696 50.0103 68.1353C50.3204 67.101 50.7081 66.084 51.1173 65.0842C51.3198 64.5843 51.5481 64.0887 51.7462 63.5931C51.9443 63.0975 52.1769 62.6235 52.4526 62.0934L56.7472 64.2223Z" fill="#E4897B"/>
<path d="M54.3116 85.9552L55.9915 87.5971L52.3259 89.3209C52.3259 89.3209 51.4386 87.7652 52.0545 86.3603L54.3116 85.9552Z" fill="#E4897B"/>
<path d="M57.3483 90.0403L54.2512 91.3073L52.3301 89.3034L55.9914 87.5969L57.3483 90.0403Z" fill="#E4897B"/>
<path opacity="0.4" d="M120.089 88.2734C113.995 87.5888 108.24 85.1117 103.552 81.1553C98.8644 77.1989 95.4544 71.9409 93.7532 66.0458C92.052 60.1508 92.1359 53.8835 93.9945 48.0362C95.853 42.1889 99.4026 37.0241 104.195 33.1949C108.987 29.3656 114.806 27.0438 120.917 26.5228C127.028 26.0019 133.156 27.3053 138.526 30.2682C143.897 33.2311 148.268 37.7205 151.089 43.169C153.91 48.6174 155.052 54.7801 154.372 60.8781C153.921 64.9296 152.676 68.8524 150.708 72.4222C148.74 75.992 146.089 79.1389 142.905 81.6831C139.721 84.2272 136.067 86.1188 132.153 87.2496C128.238 88.3804 124.139 88.7283 120.089 88.2734Z" fill="#FAFAFA"/>
<path opacity="0.4" d="M142.65 32.9915L95.4831 70.695C95.2849 70.2641 95.0911 69.8331 94.9102 69.4022C93.7277 66.5882 92.9714 63.6136 92.666 60.5764L133.406 28.0097C136.751 29.1259 139.878 30.8112 142.65 32.9915Z" fill="#FAFAFA"/>
<path opacity="0.4" d="M153.535 49.5099L109.19 84.9553C104.977 82.7582 101.326 79.6203 98.5205 75.7848L146.941 37.0771C150.062 40.6612 152.318 44.9149 153.535 49.5099Z" fill="#FAFAFA"/>
<path d="M88.6338 45.5796L88.2246 45.4417C88.9333 43.3494 89.8241 41.3234 90.8866 39.3869L91.2614 39.5937C90.2128 41.5086 89.3336 43.5115 88.6338 45.5796ZM93.8631 35.5213L93.5142 35.267C97.0541 30.4783 101.687 26.6056 107.027 23.9719L107.22 24.3597C101.941 26.9662 97.3617 30.7975 93.8631 35.5342V35.5213ZM141.068 24.9501C139.661 24.1948 138.205 23.534 136.709 22.9721L136.864 22.567C138.374 23.1421 139.845 23.8158 141.267 24.5838L141.068 24.9501Z" fill="#008D91"/>
<path opacity="0.3" d="M88.6338 45.5796L88.2246 45.4417C88.9333 43.3494 89.8241 41.3234 90.8866 39.3869L91.2614 39.5937C90.2128 41.5086 89.3336 43.5115 88.6338 45.5796ZM93.8631 35.5213L93.5142 35.267C97.0541 30.4783 101.687 26.6056 107.027 23.9719L107.22 24.3597C101.941 26.9662 97.3617 30.7975 93.8631 35.5342V35.5213ZM141.068 24.9501C139.661 24.1948 138.205 23.534 136.709 22.9721L136.864 22.567C138.374 23.1421 139.845 23.8158 141.267 24.5838L141.068 24.9501Z" fill="#008D91"/>
<path d="M155.606 41.5888C151.617 33.3126 144.598 26.8894 136.004 23.6507C127.41 20.412 117.899 20.6063 109.444 24.1932C100.989 27.7801 94.2383 34.4846 90.5907 42.9168C86.9431 51.349 86.6786 60.8621 89.8522 69.4841C86.9749 70.4925 84.1319 71.5741 81.3063 72.6903C77.2314 74.3078 73.1939 75.9971 69.1937 77.7582C65.1964 79.5294 61.2163 81.3351 57.275 83.2226C55.2978 84.1492 53.3466 85.1274 51.378 86.0755C50.354 86.5158 49.4262 87.1527 48.6471 87.9501C48.2255 88.3918 47.8543 88.8788 47.5401 89.4024C47.1568 90.0217 46.8665 90.694 46.6786 91.3977C46.3545 92.6659 46.4947 94.0082 47.0738 95.182C47.6529 96.3557 48.6327 97.2834 49.836 97.7973C50.5042 98.0777 51.2092 98.2605 51.9294 98.3403C52.5377 98.4092 53.1518 98.4092 53.7601 98.3403C54.8655 98.206 55.9338 97.8561 56.9045 97.3103C58.8558 96.3234 60.82 95.371 62.7583 94.3583C66.6351 92.3803 70.5118 90.316 74.3411 88.2216C78.1704 86.1272 82.0041 83.9337 85.7429 81.6842C88.3274 80.1198 90.9377 78.521 93.4964 76.8489C98.4096 84.6088 106.118 90.1802 115.026 92.4086C123.933 94.6369 133.356 93.3514 141.341 88.8185C149.327 84.2856 155.263 76.8527 157.921 68.06C160.578 59.2673 159.752 49.7889 155.614 41.5888H155.606ZM136.024 82.7572C131.018 85.2293 125.392 86.1608 119.857 85.4339C114.322 84.7071 109.127 82.3547 104.928 78.674C100.729 74.9933 97.7159 70.1496 96.2686 64.7555C94.8213 59.3615 95.0052 53.6591 96.7971 48.3696C98.589 43.0801 101.908 38.4409 106.335 35.0387C110.763 31.6364 116.099 29.6239 121.669 29.2556C127.239 28.8873 132.794 30.1798 137.63 32.9695C142.466 35.7593 146.366 39.9211 148.839 44.9287C150.48 48.2543 151.451 51.8709 151.696 55.5719C151.94 59.2729 151.453 62.9858 150.263 66.4986C149.073 70.0115 147.203 73.2553 144.76 76.045C142.317 78.8347 139.348 81.1155 136.024 82.7572Z" fill="#008D91"/>
<path opacity="0.3" d="M155.606 41.5888C151.617 33.3126 144.598 26.8894 136.004 23.6507C127.41 20.412 117.899 20.6063 109.444 24.1932C100.989 27.7801 94.2383 34.4846 90.5907 42.9168C86.9431 51.349 86.6786 60.8621 89.8522 69.4841C86.9749 70.4925 84.1319 71.5741 81.3063 72.6903C77.2314 74.3078 73.1939 75.9971 69.1937 77.7582C65.1964 79.5294 61.2163 81.3351 57.275 83.2226C55.2978 84.1492 53.3466 85.1274 51.378 86.0755C50.354 86.5158 49.4262 87.1527 48.6471 87.9501C48.2255 88.3918 47.8543 88.8788 47.5401 89.4024C47.1568 90.0217 46.8665 90.694 46.6786 91.3977C46.3545 92.6659 46.4947 94.0082 47.0738 95.182C47.6529 96.3557 48.6327 97.2834 49.836 97.7973C50.5042 98.0777 51.2092 98.2605 51.9294 98.3403C52.5377 98.4092 53.1518 98.4092 53.7601 98.3403C54.8655 98.206 55.9338 97.8561 56.9045 97.3103C58.8558 96.3234 60.82 95.371 62.7583 94.3583C66.6351 92.3803 70.5118 90.316 74.3411 88.2216C78.1704 86.1272 82.0041 83.9337 85.7429 81.6842C88.3274 80.1198 90.9377 78.521 93.4964 76.8489C98.4096 84.6088 106.118 90.1802 115.026 92.4086C123.933 94.6369 133.356 93.3514 141.341 88.8185C149.327 84.2856 155.263 76.8527 157.921 68.06C160.578 59.2673 159.752 49.7889 155.614 41.5888H155.606ZM136.024 82.7572C131.018 85.2293 125.392 86.1608 119.857 85.4339C114.322 84.7071 109.127 82.3547 104.928 78.674C100.729 74.9933 97.7159 70.1496 96.2686 64.7555C94.8213 59.3615 95.0052 53.6591 96.7971 48.3696C98.589 43.0801 101.908 38.4409 106.335 35.0387C110.763 31.6364 116.099 29.6239 121.669 29.2556C127.239 28.8873 132.794 30.1798 137.63 32.9695C142.466 35.7593 146.366 39.9211 148.839 44.9287C150.48 48.2543 151.451 51.8709 151.696 55.5719C151.94 59.2729 151.453 62.9858 150.263 66.4986C149.073 70.0115 147.203 73.2553 144.76 76.045C142.317 78.8347 139.348 81.1155 136.024 82.7572Z" fill="#008D91"/>
<path d="M68.6523 48.8334C68.6523 49.0878 68.786 49.2948 68.9542 49.2948C69.1223 49.2948 69.256 49.0878 69.256 48.8334C69.256 48.579 69.1223 48.372 68.9542 48.372C68.786 48.372 68.6523 48.5963 68.6523 48.8334Z" fill="#2E3646"/>
<path d="M68.7705 49.2943C69.0754 50.0748 69.4855 50.8099 69.9895 51.4792C69.8153 51.6039 69.6159 51.689 69.4053 51.7284C69.1947 51.7679 68.9781 51.7608 68.7705 51.7076V49.2943Z" fill="#DE5753"/>
<path d="M67.7603 47.4157C67.7363 47.4157 67.7126 47.4103 67.691 47.3998C67.6693 47.3894 67.6503 47.3741 67.6354 47.3553C67.613 47.3224 67.604 47.2821 67.6104 47.2428C67.6168 47.2034 67.6381 47.1681 67.6699 47.144C67.8596 47 68.0812 46.904 68.316 46.8642C68.5507 46.8244 68.7916 46.842 69.0181 46.9155C69.0384 46.9211 69.0574 46.9308 69.0737 46.9441C69.0901 46.9575 69.1034 46.9741 69.113 46.9929C69.1225 47.0118 69.128 47.0324 69.129 47.0534C69.1301 47.0745 69.1267 47.0956 69.1192 47.1153C69.1116 47.135 69.1 47.1529 69.0851 47.1678C69.0702 47.1827 69.0523 47.1944 69.0326 47.2019C69.013 47.2095 68.9919 47.2129 68.9709 47.2118C68.9498 47.2108 68.9292 47.2053 68.9104 47.1958C68.7305 47.1405 68.54 47.1293 68.3548 47.1631C68.1697 47.1969 67.9954 47.2746 67.8465 47.3898C67.8209 47.4068 67.791 47.4158 67.7603 47.4157Z" fill="#2E3646"/>
<path d="M59.9514 50.7509C60.3821 53.0651 60.8559 57.3099 59.2363 58.857C59.2363 58.857 59.8695 61.2057 64.1727 61.2057C68.9109 61.2057 66.4298 58.857 66.4298 58.857C63.8453 58.2365 63.9185 56.3231 64.3665 54.5217L59.9514 50.7509Z" fill="#E4897B"/>
<path d="M57.302 60.0769C57.8146 59.2796 56.9531 57.3447 56.9531 57.3447C56.9531 57.3447 64.5687 55.4269 67.683 58.3703C68.3291 58.9779 67.6141 59.8743 67.6141 59.8743L57.302 60.0769Z" fill="#008D91"/>
<path opacity="0.1" d="M57.302 60.0769C57.8146 59.2796 56.9531 57.3447 56.9531 57.3447C56.9531 57.3447 64.5687 55.4269 67.683 58.3703C68.3291 58.9779 67.6141 59.8743 67.6141 59.8743L57.302 60.0769Z" fill="#008D91"/>
<path d="M44.7034 148.003C44.3028 148.003 43.661 147.335 43.4715 147.085C43.4633 147.073 43.459 147.058 43.459 147.044C43.459 147.029 43.4633 147.015 43.4715 147.003C43.4784 146.991 43.4885 146.981 43.5006 146.974C43.5128 146.967 43.5265 146.964 43.5404 146.964C43.5878 146.964 44.6431 147.059 44.9317 147.434C44.9631 147.474 44.9855 147.52 44.9974 147.569C45.0093 147.618 45.0104 147.669 45.0006 147.719C44.9969 147.783 44.9733 147.844 44.9332 147.894C44.8931 147.945 44.8384 147.981 44.7766 147.999L44.7034 148.003ZM43.7041 147.141C44.0185 147.503 44.5225 147.913 44.7379 147.861C44.7379 147.861 44.824 147.839 44.8499 147.701C44.8555 147.673 44.8546 147.643 44.8471 147.615C44.8397 147.586 44.8259 147.56 44.8068 147.538C44.4877 147.296 44.1038 147.154 43.7041 147.132V147.141Z" fill="#008D91"/>
<path d="M43.7504 147.133C43.673 147.141 43.5951 147.141 43.5178 147.133C43.5041 147.132 43.4911 147.127 43.4804 147.118C43.4697 147.11 43.4617 147.098 43.4575 147.085C43.4514 147.073 43.4482 147.06 43.4482 147.046C43.4482 147.033 43.4514 147.02 43.4575 147.008C43.4876 146.982 44.1208 146.322 44.5989 146.322C44.6561 146.321 44.713 146.332 44.7657 146.354C44.8184 146.376 44.8658 146.409 44.9048 146.451C44.9476 146.487 44.977 146.537 44.988 146.592C44.9989 146.647 44.9909 146.704 44.9651 146.753C44.8402 146.995 44.1811 147.133 43.7504 147.133ZM43.6944 146.982C44.1251 146.982 44.7497 146.848 44.8531 146.658C44.8531 146.658 44.8832 146.602 44.8143 146.533C44.7892 146.506 44.7585 146.485 44.7243 146.47C44.6901 146.456 44.6532 146.45 44.6162 146.451C44.2631 146.533 43.9421 146.717 43.6944 146.982Z" fill="#008D91"/>
<path d="M73.1272 157.786C72.8007 157.784 72.475 157.753 72.1537 157.695C72.1377 157.692 72.1233 157.684 72.1131 157.671C72.1029 157.658 72.0974 157.643 72.0977 157.626C72.0953 157.611 72.0972 157.596 72.1034 157.582C72.1095 157.569 72.1195 157.557 72.1321 157.549C72.1795 157.523 73.2822 156.889 73.812 157.036C73.8612 157.047 73.9075 157.068 73.9483 157.097C73.989 157.127 74.0233 157.165 74.049 157.208C74.0827 157.256 74.1008 157.313 74.1008 157.372C74.1008 157.431 74.0827 157.488 74.049 157.536C73.924 157.73 73.5321 157.786 73.1272 157.786ZM72.3992 157.583C72.985 157.669 73.7862 157.665 73.9327 157.458C73.9542 157.432 73.9714 157.385 73.9327 157.294C73.8997 157.241 73.8472 157.202 73.7862 157.186C73.4502 157.1 72.7826 157.385 72.3992 157.583Z" fill="#008D91"/>
<path d="M72.1716 157.7C72.1575 157.704 72.1426 157.704 72.1285 157.7C72.1166 157.692 72.1073 157.681 72.1019 157.668C72.0965 157.655 72.0952 157.641 72.0984 157.627C72.1276 157.178 72.2996 156.75 72.5894 156.407C72.648 156.356 72.7168 156.319 72.7912 156.297C72.8655 156.275 72.9436 156.27 73.0202 156.281C73.2269 156.281 73.2872 156.407 73.3001 156.488C73.3561 156.846 72.6023 157.532 72.219 157.704L72.1716 157.7ZM72.9426 156.407C72.8479 156.406 72.756 156.44 72.6842 156.501C72.4406 156.774 72.2898 157.116 72.2534 157.48C72.6411 157.243 73.158 156.708 73.1149 156.493C73.1149 156.493 73.1149 156.419 72.9685 156.407H72.9426Z" fill="#008D91"/>
<path d="M68.6904 157.622H71.8564L72.1709 150.291H69.0049L68.6904 157.622Z" fill="#E4897B"/>
<path d="M40.498 145.038L43.1428 146.77L48.9837 141.836L46.3347 140.099L40.498 145.038Z" fill="#E4897B"/>
<path d="M43.5779 146.606L40.8298 144.353C40.7812 144.313 40.7203 144.291 40.6575 144.291C40.5946 144.291 40.5337 144.313 40.4852 144.353L38.2194 146.132C38.1647 146.176 38.1205 146.231 38.0901 146.294C38.0597 146.357 38.0439 146.427 38.0439 146.497C38.0439 146.567 38.0597 146.636 38.0901 146.699C38.1205 146.762 38.1647 146.817 38.2194 146.861C39.1929 147.632 39.7055 147.96 40.9159 148.951C41.6611 149.558 43.5004 151.42 44.5385 152.26C45.5766 153.101 46.5285 152.196 46.1839 151.761C44.6375 149.8 44.0302 148.123 43.8536 147.085C43.8231 146.897 43.725 146.727 43.5779 146.606Z" fill="#2E3646"/>
<path d="M71.8351 157.255H68.3892C68.3263 157.256 68.2654 157.277 68.2162 157.316C68.1669 157.355 68.1323 157.41 68.1178 157.471L67.4932 160.285C67.4775 160.353 67.4775 160.424 67.4933 160.492C67.509 160.56 67.5401 160.624 67.584 160.678C67.628 160.733 67.6838 160.776 67.7472 160.806C67.8106 160.836 67.8799 160.851 67.9498 160.849C69.1946 160.828 70.9952 160.755 72.5631 160.755C74.3937 160.755 75.9789 160.854 78.124 160.854C79.4162 160.854 79.7867 159.539 79.2396 159.423C76.7672 158.88 74.7426 158.824 72.6062 157.501C72.3769 157.349 72.1099 157.264 71.8351 157.255Z" fill="#2E3646"/>
<path d="M52.9989 59.8009C50.255 61.0937 48.6914 69.7558 48.6914 69.7558L55.3981 72.432C56.3798 70.0337 57.1734 67.5627 57.7715 65.0412C58.6933 61.0506 55.8073 58.465 52.9989 59.8009Z" fill="#2E3646"/>
<path d="M56.5587 64.6835C54.9003 66.3642 54.1422 69.6566 53.8105 71.7984L55.4172 72.4405C56.371 70.1104 57.1485 67.7119 57.7433 65.2652C57.6011 64.3516 57.2479 63.9853 56.5587 64.6835Z" fill="#203048"/>
<path d="M71.2975 59.7405C71.2975 59.7405 74.6659 63.55 71.487 87.1056H54.563C54.4467 84.5199 56.0792 71.8285 53.5723 59.581C55.4426 59.2182 57.3348 58.9792 59.2366 58.8657C61.6323 58.7233 64.0343 58.7233 66.43 58.8657C68.0726 59.031 69.7 59.3235 71.2975 59.7405Z" fill="#2E3646"/>
<path d="M72.8422 68.8851L69.9907 63.968C69.4402 66.2622 69.2155 68.6226 69.323 70.9795C69.4005 72.6688 70.9469 78.9262 72.3382 79.8398C72.7074 76.2003 72.8757 72.5431 72.8422 68.8851Z" fill="#203048"/>
<path d="M73.2389 63.1061C73.6696 65.2005 74.1004 67.3466 74.5613 69.4497C75.0222 71.5527 75.5003 73.6643 76.056 75.7027C76.1981 76.2069 76.3317 76.724 76.4867 77.2067L76.603 77.5773L76.659 77.7626V77.7411C76.6289 77.7023 76.5944 77.698 76.6203 77.7411C76.7973 77.9345 77.0236 78.076 77.275 78.1505C77.6822 78.3021 78.1015 78.4188 78.5285 78.4995C80.565 78.8225 82.6269 78.9566 84.6881 78.9003L85.0973 81.2447C84.5201 81.43 83.9817 81.5636 83.4131 81.6972C82.8445 81.8308 82.2846 81.9428 81.7117 82.029C80.5264 82.2264 79.3246 82.3073 78.1236 82.2703C77.456 82.2523 76.792 82.1657 76.1421 82.0118C75.3158 81.8309 74.5393 81.4705 73.8678 80.9559C73.4292 80.6016 73.0672 80.1618 72.8038 79.6631C72.7349 79.5338 72.6746 79.3873 72.6186 79.2623L72.5411 79.0598L72.3817 78.6288C72.162 78.0815 71.9811 77.5428 71.783 77.0042C71.055 74.8494 70.4477 72.6731 69.9135 70.5012C69.3794 68.3292 68.9185 66.1615 68.5352 63.9335L73.2389 63.1061Z" fill="#E4897B"/>
<path d="M67.0692 62.0505C66.1776 64.9421 69.7915 73.5654 69.7915 73.5654L76.9893 71.7554C76.9893 71.7554 76.7136 67.2736 75.0725 63.7182C72.6 58.3573 68.1375 58.5814 67.0692 62.0505Z" fill="#2E3646"/>
<path d="M84.6283 78.9005L88.2121 78.81L86.4891 82.542C86.4891 82.542 85.0289 82.7359 83.8314 80.7665L82.5693 79.2581L84.0209 78.9694C84.2208 78.9273 84.4241 78.9042 84.6283 78.9005Z" fill="#E4897B"/>
<path d="M90.4746 79.5038L88.4243 82.598L86.4902 82.542L88.2132 78.81L90.4746 79.5038Z" fill="#E4897B"/>
<path d="M72.1724 150.291L72.0088 154.071H68.8428L69.0065 150.291H72.1724Z" fill="#CE6F64"/>
<path d="M46.3342 140.099L48.9832 141.836L45.968 144.378L43.3232 142.646L46.3342 140.099Z" fill="#CE6F64"/>
<path d="M60.1476 48.2859C60.3371 51.4189 60.2897 53.2676 61.8706 54.8751C64.2483 57.3013 68.1207 55.8662 68.8702 52.7203C69.5464 49.9019 69.1243 45.2477 66.0574 43.9979C65.3807 43.7247 64.6457 43.6279 63.9213 43.7167C63.197 43.8055 62.5071 44.0769 61.9163 44.5055C61.3256 44.9342 60.8533 45.5059 60.544 46.1672C60.2346 46.8284 60.0982 47.5574 60.1476 48.2859Z" fill="#E4897B"/>
<path d="M56.4601 47.7342C57.2397 50.5914 59.0747 53.8839 61.4481 54.095C64.3944 54.3536 65.7254 51.3068 66.1131 48.1609C67.8791 46.9499 66.953 45.6183 68.7234 45.4502C70.9977 45.2348 70.2698 41.0718 67.2761 40.4038C67.2761 40.4038 68.2797 42.2785 66.1734 41.3304C64.1702 40.3779 61.9448 39.9919 59.7381 40.2142C59.7381 40.2142 62.4259 41.5588 59.7984 42.1578C57.1708 42.7568 56.3869 44.3772 57.5972 45.3554C57.5972 45.3597 55.9475 45.8553 56.4601 47.7342Z" fill="#2E3646"/>
<path d="M64.3197 48.8076C64.3775 49.5863 64.691 50.3242 65.2113 50.9063C65.9005 51.6691 66.6198 51.195 66.7405 50.2685C66.8525 49.4367 66.6242 48.0362 65.7799 47.6138C64.9356 47.1915 64.2637 47.8681 64.3197 48.8076Z" fill="#E4897B"/>
<path d="M65.4817 87.1055C65.4817 87.1055 68.5658 109.45 66.1364 118.405C62.2855 132.583 47.5627 144.551 47.5627 144.551L42.5703 141.276C42.5703 141.276 55.1093 131.17 56.6428 119.297C58.0212 108.64 54.5623 95.7503 54.5623 87.1012L65.4817 87.1055Z" fill="#008D91"/>
<path opacity="0.1" d="M65.4817 87.1055C65.4817 87.1055 68.5658 109.45 66.1364 118.405C62.2855 132.583 47.5627 144.551 47.5627 144.551L42.5703 141.276C42.5703 141.276 55.1093 131.17 56.6428 119.297C58.0212 108.64 54.5623 95.7503 54.5623 87.1012L65.4817 87.1055Z" fill="#008D91"/>
<path d="M66.7564 99.8789C65.9354 98.9378 65.0315 98.0725 64.0557 97.2932C64.5812 104.546 65.0119 115.29 64.5338 122.922C65.1767 121.459 65.7122 119.951 66.1362 118.41C67.3207 114.036 67.1958 106.481 66.7564 99.8789Z" fill="#008D91"/>
<path opacity="0.3" d="M66.7564 99.8789C65.9354 98.9378 65.0315 98.0725 64.0557 97.2932C64.5812 104.546 65.0119 115.29 64.5338 122.922C65.1767 121.459 65.7122 119.951 66.1362 118.41C67.3207 114.036 67.1958 106.481 66.7564 99.8789Z" fill="#008D91"/>
<path d="M49.5738 143.435C49.5953 143.435 47.6398 144.728 47.6398 144.728L42.1865 141.151L43.9095 139.724L49.5738 143.435Z" fill="#008D91"/>
<path opacity="0.3" d="M49.5738 143.435C49.5953 143.435 47.6398 144.728 47.6398 144.728L42.1865 141.151L43.9095 139.724L49.5738 143.435Z" fill="#008D91"/>
<path d="M71.4855 87.1056C71.4855 87.1056 76.2496 107.317 76.5856 116.975C76.9646 127.8 73.187 153.338 73.187 153.338H67.8242C67.8242 153.338 67.1652 127.602 66.9282 117.742C66.6655 106.989 60.3594 87.1056 60.3594 87.1056H71.4855Z" fill="#008D91"/>
<path opacity="0.1" d="M71.4855 87.1056C71.4855 87.1056 76.2496 107.317 76.5856 116.975C76.9646 127.8 73.187 153.338 73.187 153.338H67.8242C67.8242 153.338 67.1652 127.602 66.9282 117.742C66.6655 106.989 60.3594 87.1056 60.3594 87.1056H71.4855Z" fill="#008D91"/>
<path d="M74.2154 151.205C74.2413 151.205 73.9139 153.428 73.9139 153.428H67.3924L67.2158 151.442L74.2154 151.205Z" fill="#008D91"/>
<path opacity="0.3" d="M74.2154 151.205C74.2413 151.205 73.9139 153.428 73.9139 153.428H67.3924L67.2158 151.442L74.2154 151.205Z" fill="#008D91"/>
<path d="M153.936 67.6826C154.302 68.0274 154.591 68.3204 154.892 68.6479C155.194 68.9755 155.478 69.2944 155.754 69.6262C156.314 70.2855 156.839 70.9794 157.347 71.6775C158.362 73.0779 159.266 74.5564 160.048 76.099L160.207 76.4136C160.285 76.5659 160.35 76.7245 160.401 76.8876C160.505 77.203 160.569 77.5302 160.591 77.8616C160.619 78.4459 160.539 79.0303 160.354 79.5854C160.039 80.5073 159.572 81.3698 158.971 82.1366C157.889 83.5273 156.612 84.7551 155.181 85.7824L154.108 84.5499C154.612 83.9595 155.138 83.326 155.607 82.6925C156.085 82.0787 156.517 81.4305 156.899 80.7532C157.257 80.1623 157.521 79.5198 157.683 78.8485C157.739 78.6083 157.749 78.3598 157.713 78.1159C157.698 78.0338 157.672 77.9541 157.636 77.8788C157.62 77.8458 157.601 77.8141 157.58 77.784L157.442 77.5513C156.611 76.1961 155.71 74.8857 154.741 73.6254C154.263 72.9919 153.751 72.3843 153.234 71.7852C152.98 71.4836 152.717 71.1905 152.454 70.8975C152.191 70.6044 151.907 70.3114 151.679 70.083L153.936 67.6826Z" fill="#E4897B"/>
<path d="M154.52 84.1879L151.303 83.6621L152.987 86.4805C152.987 86.4805 155.059 86.4073 155.649 85.1877L154.52 84.1879Z" fill="#E4897B"/>
<path d="M148.926 84.9636L150.459 87.2519L152.988 86.4805L151.304 83.6621L148.926 84.9636Z" fill="#E4897B"/>
<path d="M154.367 157.747C154.148 157.766 153.93 157.706 153.751 157.579C153.697 157.527 153.657 157.463 153.635 157.392C153.613 157.321 153.61 157.246 153.626 157.173C153.629 157.127 153.645 157.082 153.671 157.044C153.698 157.006 153.735 156.976 153.777 156.958C154.152 156.789 155.134 157.419 155.246 157.492C155.259 157.5 155.268 157.512 155.274 157.526C155.279 157.54 155.28 157.555 155.276 157.57C155.274 157.585 155.268 157.599 155.258 157.609C155.248 157.62 155.234 157.628 155.22 157.63C154.941 157.701 154.655 157.74 154.367 157.747ZM153.936 157.078C153.905 157.074 153.873 157.074 153.841 157.078C153.823 157.087 153.806 157.101 153.795 157.119C153.784 157.136 153.777 157.157 153.777 157.178C153.765 157.226 153.767 157.276 153.78 157.323C153.794 157.371 153.819 157.414 153.854 157.449C154.018 157.596 154.44 157.617 155.005 157.505C154.681 157.291 154.318 157.146 153.936 157.078Z" fill="#008D91"/>
<path d="M155.229 157.626H155.19C154.884 157.45 154.293 156.764 154.367 156.389C154.381 156.33 154.413 156.277 154.46 156.238C154.507 156.199 154.565 156.176 154.625 156.173C154.684 156.165 154.743 156.17 154.799 156.188C154.855 156.206 154.906 156.236 154.949 156.277C155.302 156.587 155.307 157.519 155.307 157.57C155.306 157.583 155.302 157.596 155.295 157.607C155.288 157.619 155.279 157.628 155.268 157.635L155.229 157.626ZM154.677 156.333H154.643C154.548 156.333 154.526 156.385 154.518 156.423C154.474 156.643 154.841 157.169 155.147 157.415C155.155 157.053 155.051 156.698 154.85 156.397C154.824 156.373 154.793 156.355 154.76 156.344C154.726 156.333 154.691 156.329 154.655 156.333H154.677Z" fill="#008D91"/>
<path d="M139.687 157.747C139.412 157.773 139.137 157.703 138.908 157.548C138.856 157.503 138.816 157.445 138.791 157.38C138.767 157.316 138.758 157.246 138.765 157.178C138.768 157.136 138.782 157.095 138.804 157.06C138.827 157.024 138.858 156.995 138.895 156.975C139.295 156.751 140.579 157.406 140.725 157.488C140.739 157.497 140.749 157.509 140.756 157.524C140.763 157.538 140.766 157.554 140.764 157.57C140.762 157.585 140.754 157.599 140.744 157.61C140.733 157.621 140.719 157.628 140.704 157.63C140.369 157.701 140.029 157.74 139.687 157.747ZM139.114 157.078C139.065 157.075 139.016 157.086 138.972 157.109C138.957 157.116 138.944 157.128 138.934 157.142C138.925 157.157 138.92 157.173 138.92 157.191C138.914 157.235 138.918 157.281 138.933 157.324C138.948 157.367 138.973 157.405 139.007 157.436C139.205 157.613 139.735 157.643 140.45 157.523C140.033 157.3 139.581 157.15 139.114 157.078Z" fill="#008D91"/>
<path d="M140.689 157.627H140.654C140.271 157.454 139.509 156.764 139.569 156.389C139.569 156.303 139.646 156.195 139.857 156.174C139.935 156.165 140.013 156.173 140.087 156.196C140.161 156.219 140.229 156.257 140.288 156.307C140.693 156.644 140.771 157.515 140.771 157.553C140.772 157.567 140.77 157.58 140.765 157.592C140.76 157.604 140.751 157.615 140.74 157.622C140.724 157.629 140.706 157.631 140.689 157.627ZM139.918 156.333H139.87C139.732 156.333 139.724 156.402 139.72 156.419C139.685 156.639 140.202 157.187 140.581 157.424C140.544 157.055 140.393 156.708 140.15 156.428C140.085 156.372 140.003 156.339 139.918 156.333Z" fill="#008D91"/>
<path d="M145.781 57.775C145.656 59.7228 145.32 63.6789 146.815 64.7735C146.815 64.7735 146.543 66.7688 143.016 67.2343C139.139 67.7385 140.909 65.5492 140.909 65.5492C142.964 64.7649 142.701 63.2006 142.141 61.7698L145.781 57.775Z" fill="#E4897B"/>
<path d="M137.757 54.3324C137.736 54.3324 137.715 54.3278 137.695 54.3189C137.676 54.3099 137.659 54.2969 137.645 54.2806C137.522 54.1344 137.366 54.0191 137.19 53.9442C137.014 53.8693 136.823 53.8369 136.633 53.8494C136.613 53.8531 136.592 53.8527 136.572 53.8481C136.552 53.8435 136.533 53.8349 136.517 53.8228C136.5 53.8107 136.486 53.7953 136.476 53.7777C136.465 53.76 136.459 53.7404 136.456 53.7201C136.451 53.6795 136.463 53.6387 136.488 53.6064C136.513 53.5741 136.549 53.553 136.59 53.5476C136.833 53.527 137.077 53.5657 137.303 53.6603C137.528 53.7549 137.726 53.9027 137.882 54.0909C137.901 54.1134 137.913 54.1407 137.916 54.1697C137.92 54.1986 137.916 54.2281 137.904 54.2547C137.892 54.2813 137.872 54.3039 137.848 54.3199C137.823 54.3359 137.795 54.3447 137.766 54.3453L137.757 54.3324Z" fill="#2E3646"/>
<path d="M137.087 56.241C136.934 56.8595 136.697 57.4542 136.384 58.0089C136.528 58.0863 136.687 58.1312 136.85 58.1401C137.013 58.149 137.177 58.1219 137.328 58.0606L137.087 56.241Z" fill="#DE5753"/>
<path d="M137.257 55.7674C137.291 56.0261 137.183 56.2503 137.015 56.2762C136.847 56.302 136.679 56.1037 136.649 55.845C136.619 55.5863 136.722 55.3621 136.89 55.3405C137.058 55.3189 137.227 55.4914 137.257 55.7674Z" fill="#2E3646"/>
<path d="M136.968 55.345L136.325 55.2458C136.325 55.2458 136.705 55.6899 136.968 55.345Z" fill="#2E3646"/>
<path d="M144.24 157.557H141.009L140.794 150.08H144.025L144.24 157.557Z" fill="#E4897B"/>
<path d="M158.905 157.557H155.675L154.637 150.08H157.867L158.905 157.557Z" fill="#E4897B"/>
<path d="M155.479 157.195H159.106C159.168 157.194 159.228 157.216 159.274 157.257C159.321 157.297 159.352 157.353 159.36 157.414L159.791 160.289C159.799 160.361 159.791 160.435 159.769 160.504C159.746 160.573 159.709 160.637 159.661 160.691C159.612 160.745 159.552 160.789 159.485 160.818C159.419 160.847 159.347 160.862 159.274 160.862C158.012 160.84 157.4 160.767 155.806 160.767C154.824 160.767 153.39 160.866 152.037 160.866C150.685 160.866 150.612 159.526 151.176 159.405C153.704 158.862 154.105 158.113 154.953 157.393C155.102 157.27 155.287 157.2 155.479 157.195Z" fill="#2E3646"/>
<path d="M140.901 157.195H144.523C144.586 157.194 144.646 157.216 144.694 157.256C144.741 157.297 144.773 157.353 144.782 157.414L145.213 160.289C145.221 160.361 145.213 160.435 145.191 160.504C145.168 160.573 145.131 160.637 145.083 160.691C145.034 160.745 144.974 160.789 144.907 160.818C144.841 160.847 144.769 160.862 144.696 160.862C143.434 160.84 142.822 160.767 141.228 160.767C140.246 160.767 138.213 160.866 136.861 160.866C135.508 160.866 135.435 159.526 135.999 159.405C138.528 158.862 139.523 158.113 140.375 157.393C140.524 157.27 140.709 157.2 140.901 157.195Z" fill="#2E3646"/>
<path d="M140.794 150.08L140.906 153.937H144.137L144.025 150.08H140.794Z" fill="#CE6F64"/>
<path d="M157.867 150.08H154.637L155.175 153.937H158.401L157.867 150.08Z" fill="#CE6F64"/>
<path d="M145.825 53.7416C146.045 56.9392 146.204 58.2881 144.817 60.1282C142.728 62.8906 138.757 62.4639 137.585 59.3956C136.53 56.6332 136.349 51.8713 139.286 50.1992C139.933 49.8286 140.663 49.6294 141.408 49.6204C142.152 49.6115 142.887 49.793 143.542 50.1478C144.197 50.5027 144.751 51.0191 145.15 51.648C145.55 52.277 145.782 52.9976 145.825 53.7416Z" fill="#E4897B"/>
<path d="M147.684 56.7108C149.475 57.7106 150.806 55.2456 150.806 55.2456C150.806 55.2456 147.593 55.5947 147.882 53.6813C148.261 51.143 146.443 48.0574 141.886 48.4539C141.632 48.4754 141.39 48.5056 141.153 48.5444C140.676 48.3181 140.137 48.2597 139.622 48.3786C139.108 48.4975 138.649 48.7867 138.319 49.1994C137.027 49.3071 135.282 50.8499 136.467 52.8883C136.55 52.6541 136.679 52.4388 136.846 52.2548C136.945 53.4486 137.987 55.3447 139.288 55.4697C139.568 57.103 138.483 58.9948 138.858 60.7014C139.413 63.1621 143.561 63.718 143.561 63.718C143.418 63.4107 143.365 63.0692 143.408 62.7329C143.45 62.3967 143.587 62.0793 143.803 61.8175C146.62 63.1104 148.476 61.8477 148.476 61.8477C146.555 61.1323 147.137 59.8567 147.137 59.8567C147.8 60.1514 148.552 60.1773 149.234 59.9289C149.916 59.6806 150.475 59.1774 150.794 58.5251C150.155 58.5554 149.522 58.4002 148.97 58.0783C148.418 57.7563 147.972 57.2814 147.684 56.7108Z" fill="#2E3646"/>
<path d="M140.413 55.9611C140.421 56.268 140.368 56.5733 140.257 56.8596C140.146 57.1458 139.98 57.4072 139.767 57.6289C139.199 58.2193 138.501 57.8055 138.311 57.0514C138.143 56.3705 138.238 55.2457 138.979 54.9354C139.142 54.8713 139.319 54.849 139.492 54.8705C139.666 54.892 139.832 54.9567 139.975 55.0586C140.117 55.1605 140.232 55.2965 140.308 55.4541C140.385 55.6117 140.421 55.786 140.413 55.9611Z" fill="#E4897B"/>
<path d="M143.099 85.7524C143.099 85.7524 143.917 107.024 145.864 119.513C147.432 129.606 154.397 153.187 154.397 153.187H158.799C158.799 153.187 155.168 130.411 154.371 120.435C152.355 95.1858 157.589 89.7645 152.648 84.5069L143.099 85.7524Z" fill="#2E3646"/>
<path d="M146.778 92.4794C146.778 92.4794 144.788 92.1346 143.625 95.9269C144.056 103.111 144.792 112.643 145.865 119.513C146.102 121.043 146.464 122.887 146.907 124.908C146.067 112.773 146.778 92.4794 146.778 92.4794Z" fill="#161F33"/>
<path d="M139.664 86.2006C139.664 86.2006 136.037 109.735 136.248 119.582C136.468 129.825 140.22 153.196 140.22 153.196H144.583C144.583 153.196 143.894 130.433 144.277 120.375C144.708 109.407 149.183 84.9638 149.183 84.9638L139.664 86.2006Z" fill="#2E3646"/>
<path d="M159.436 153.394H153.583L153.126 151.429L159.393 151.472L159.436 153.394Z" fill="#008D91"/>
<path opacity="0.2" d="M159.436 153.394H153.583L153.126 151.429L159.393 151.472L159.436 153.394Z" fill="#008D91"/>
<path d="M152.428 64.7781C154.112 64.9418 156.67 69.7296 156.67 69.7296L152.419 72.9919C152.419 72.9919 148.9 69.902 149.318 68.1653C149.753 66.3596 150.812 64.6272 152.428 64.7781Z" fill="#008D91"/>
<path opacity="0.1" d="M152.428 64.7781C154.112 64.9418 156.67 69.7296 156.67 69.7296L152.419 72.9919C152.419 72.9919 148.9 69.902 149.318 68.1653C149.753 66.3596 150.812 64.6272 152.428 64.7781Z" fill="#008D91"/>
<path d="M151.156 66.8381C150.727 66.7224 150.282 66.6729 149.838 66.6916C149.612 67.1627 149.437 67.6569 149.317 68.1654C148.886 69.8892 152.418 72.992 152.418 72.992L152.733 72.7507L151.156 66.8381Z" fill="#008D91"/>
<path opacity="0.3" d="M151.156 66.8381C150.727 66.7224 150.282 66.6729 149.838 66.6916C149.612 67.1627 149.437 67.6569 149.317 68.1654C148.886 69.8892 152.418 72.992 152.418 72.992L152.733 72.7507L151.156 66.8381Z" fill="#008D91"/>
<path d="M138.221 71.4363C136.994 74.5434 135.702 77.7023 134.672 80.818C134.603 81.0163 134.547 81.2059 134.487 81.3998L134.34 81.8782C134.3 82.019 134.3 82.1682 134.34 82.3091C134.584 82.8479 134.969 83.3099 135.456 83.645C136.744 84.5695 138.147 85.3214 139.63 85.8817L139.242 87.4675C137.418 87.2269 135.654 86.6513 134.039 85.7696C133.045 85.2383 132.235 84.4179 131.717 83.4166C131.42 82.7767 131.316 82.0635 131.42 81.3653C131.43 81.2799 131.444 81.195 131.463 81.1111L131.506 80.9301L131.579 80.6026C131.631 80.3828 131.683 80.1716 131.739 79.9561C132.169 78.2323 132.721 76.5947 133.302 74.9701C133.884 73.3454 134.491 71.7423 135.176 70.1435L138.221 71.4363Z" fill="#E4897B"/>
<path d="M135.608 67.0749C135.608 67.0749 134.153 67.8118 139.666 86.2003L152.666 84.5024C151.753 79.2362 151.322 75.9739 152.429 64.7779C150.565 64.6443 148.694 64.6443 146.829 64.7779C144.845 64.8934 142.871 65.1526 140.924 65.5536C138.43 66.1095 135.608 67.0749 135.608 67.0749Z" fill="#008D91"/>
<path opacity="0.1" d="M135.608 67.0749C135.608 67.0749 134.153 67.8118 139.666 86.2003L152.666 84.5024C151.753 79.2362 151.322 75.9739 152.429 64.7779C150.565 64.6443 148.694 64.6443 146.829 64.7779C144.845 64.8934 142.871 65.1526 140.924 65.5536C138.43 66.1095 135.608 67.0749 135.608 67.0749Z" fill="#008D91"/>
<path d="M152.76 83.7138L153.505 84.7955C153.561 84.8817 153.467 84.9851 153.32 85.0067L139.687 86.7908C139.571 86.7908 139.463 86.7606 139.446 86.6874L139.179 85.5367C139.157 85.4592 139.252 85.3773 139.381 85.36L152.545 83.6362C152.584 83.6299 152.625 83.6337 152.663 83.6473C152.7 83.6608 152.734 83.6837 152.76 83.7138Z" fill="#008D91"/>
<path opacity="0.2" d="M152.76 83.7138L153.505 84.7955C153.561 84.8817 153.467 84.9851 153.32 85.0067L139.687 86.7908C139.571 86.7908 139.463 86.7606 139.446 86.6874L139.179 85.5367C139.157 85.4592 139.252 85.3773 139.381 85.36L152.545 83.6362C152.584 83.6299 152.625 83.6337 152.663 83.6473C152.7 83.6608 152.734 83.6837 152.76 83.7138Z" fill="#008D91"/>
<path d="M151.183 85.4171L151.536 85.3697C151.605 85.3697 151.653 85.318 151.644 85.2748L151.282 83.7829C151.268 83.7575 151.246 83.7376 151.219 83.7266C151.193 83.7155 151.163 83.7141 151.135 83.7226L150.782 83.7657C150.708 83.7657 150.661 83.8174 150.674 83.8649L151.036 85.3524C151.045 85.3999 151.114 85.4258 151.183 85.4171Z" fill="#2E3646"/>
<path d="M142.639 86.5203L142.992 86.4729C143.061 86.4729 143.113 86.4212 143.1 86.378L142.738 84.8861C142.724 84.861 142.702 84.8411 142.675 84.8294C142.649 84.8177 142.619 84.815 142.591 84.8215L142.238 84.8689C142.169 84.8689 142.117 84.9206 142.13 84.9638L142.492 86.4557C142.501 86.5203 142.57 86.5462 142.639 86.5203Z" fill="#2E3646"/>
<path d="M136.215 73.3151C136.572 74.9785 137.076 77.0859 137.813 79.7534L137.972 72.9919L136.215 73.3151Z" fill="#008D91"/>
<path opacity="0.3" d="M136.215 73.3151C136.572 74.9785 137.076 77.0859 137.813 79.7534L137.972 72.9919L136.215 73.3151Z" fill="#008D91"/>
<path d="M135.608 67.0749C133.993 67.7256 132.593 73.2547 132.593 73.2547L138.149 75.961C138.149 75.961 140.833 69.1995 139.631 67.8808C138.429 66.5621 137.469 66.3294 135.608 67.0749Z" fill="#008D91"/>
<path opacity="0.1" d="M135.608 67.0749C133.993 67.7256 132.593 73.2547 132.593 73.2547L138.149 75.961C138.149 75.961 140.833 69.1995 139.631 67.8808C138.429 66.5621 137.469 66.3294 135.608 67.0749Z" fill="#008D91"/>
<path d="M145.328 153.394H139.474L139.018 151.429L145.535 151.472L145.328 153.394Z" fill="#008D91"/>
<path opacity="0.2" d="M145.328 153.394H139.474L139.018 151.429L145.535 151.472L145.328 153.394Z" fill="#008D91"/>
<path d="M139.721 85.3471L139.252 85.1532C139.136 85.1062 139.011 85.0907 138.887 85.108C138.764 85.1254 138.647 85.1751 138.549 85.2522C138.451 85.3292 138.375 85.4307 138.329 85.5466C138.283 85.6624 138.269 85.7884 138.287 85.9117L138.627 88.1569C138.644 88.2693 138.685 88.3766 138.748 88.4712C138.81 88.5657 138.893 88.6452 138.991 88.7037C139.088 88.7623 139.197 88.7985 139.31 88.8097C139.423 88.821 139.537 88.807 139.644 88.7688C139.815 88.7068 139.975 88.618 140.118 88.506C140.273 88.3767 140.397 88.2127 140.477 88.027C140.558 87.8414 140.594 87.6394 140.583 87.4372L140.535 86.5064C140.527 86.2548 140.446 86.0112 140.301 85.8052C140.157 85.5993 139.955 85.4401 139.721 85.3471Z" fill="#E4897B"/>
</svg>
