<svg width="217" height="166" viewBox="0 0 217 166" fill="none" xmlns="http://www.w3.org/2000/svg">
<path d="M204.982 104.338C204.853 99.5495 205.222 91.3825 201.059 88.0199C197.402 85.0675 194.559 89.0743 193.532 92.3066C191.046 100.148 192.213 108.794 192.221 116.888C192.221 117.011 192.221 117.133 192.221 117.271C192.027 123.23 191.316 129.675 191.962 135.622C191.962 135.622 191.327 129.664 186.689 132.217C182.051 134.771 189.008 148.172 189.008 148.172C189.008 148.172 183.526 144.13 180.995 147.535C178.463 150.94 184.157 154.767 184.157 154.767C184.157 154.767 178.885 153.279 178.885 154.767C178.885 156.254 180.573 157.531 185.423 158.171H211.57C211.57 158.171 215.79 155.829 214.946 153.279C214.102 150.729 209.67 152.198 209.67 152.198C209.67 152.198 216.421 143.9 215.999 140.285C215.577 136.669 206.929 140.925 206.929 140.925C206.929 140.925 213.676 123.694 212.411 116.037C211.415 110.005 206.773 114.12 204.245 116.451C204.84 112.443 205.087 108.39 204.982 104.338Z" fill="#008D91" stroke="white" stroke-width="1.0662" stroke-linecap="round" stroke-linejoin="round"/>
<path opacity="0.5" d="M204.982 104.338C204.853 99.5495 205.222 91.3825 201.059 88.0199C197.402 85.0675 194.559 89.0743 193.532 92.3066C191.046 100.148 192.213 108.794 192.221 116.888C192.221 117.011 192.221 117.133 192.221 117.271C192.027 123.23 191.316 129.675 191.962 135.622C191.962 135.622 191.327 129.664 186.689 132.217C182.051 134.771 189.008 148.172 189.008 148.172C189.008 148.172 183.526 144.13 180.995 147.535C178.463 150.94 184.157 154.767 184.157 154.767C184.157 154.767 178.885 153.279 178.885 154.767C178.885 156.254 180.573 157.531 185.423 158.171H211.57C211.57 158.171 215.79 155.829 214.946 153.279C214.102 150.729 209.67 152.198 209.67 152.198C209.67 152.198 216.421 143.9 215.999 140.285C215.577 136.669 206.929 140.925 206.929 140.925C206.929 140.925 213.676 123.694 212.411 116.037C211.415 110.005 206.773 114.12 204.245 116.451C204.84 112.443 205.087 108.39 204.982 104.338Z" fill="white"/>
<path d="M196.593 157.941L198.494 99.4422" stroke="white" stroke-width="1.0662" stroke-linecap="round" stroke-linejoin="round"/>
<path d="M197.649 133.479L207.56 124.119" stroke="white" stroke-width="1.0662" stroke-linecap="round" stroke-linejoin="round"/>
<path d="M202.284 129.223L204.394 123.268" stroke="white" stroke-width="1.0662" stroke-linecap="round" stroke-linejoin="round"/>
<path d="M189.421 140.71L197.013 149.008" stroke="white" stroke-width="1.0662" stroke-linecap="round" stroke-linejoin="round"/>
<path d="M209.666 145.392L197.011 151.987" stroke="white" stroke-width="1.0662" stroke-linecap="round" stroke-linejoin="round"/>
<path d="M202.918 149.218L207.556 149.007" stroke="white" stroke-width="1.0662" stroke-linecap="round" stroke-linejoin="round"/>
<path d="M196.593 157.941L198.494 99.4422" stroke="#008D91" stroke-width="1.0662" stroke-linecap="round" stroke-linejoin="round"/>
<path d="M197.649 133.479L207.56 124.119" stroke="#008D91" stroke-width="1.0662" stroke-linecap="round" stroke-linejoin="round"/>
<path d="M202.284 129.223L204.394 123.268" stroke="#008D91" stroke-width="1.0662" stroke-linecap="round" stroke-linejoin="round"/>
<path d="M189.421 140.71L197.013 149.008" stroke="#008D91" stroke-width="1.0662" stroke-linecap="round" stroke-linejoin="round"/>
<path d="M209.666 145.392L197.011 151.987" stroke="#008D91" stroke-width="1.0662" stroke-linecap="round" stroke-linejoin="round"/>
<path d="M202.918 149.218L207.556 149.007" stroke="#008D91" stroke-width="1.0662" stroke-linecap="round" stroke-linejoin="round"/>
<g opacity="0.8">
<path d="M196.589 157.941L198.49 99.4422" stroke="white" stroke-width="1.0662" stroke-linecap="round" stroke-linejoin="round"/>
<path d="M197.646 133.478L207.557 124.119" stroke="white" stroke-width="1.0662" stroke-linecap="round" stroke-linejoin="round"/>
<path d="M202.283 129.223L204.393 123.268" stroke="white" stroke-width="1.0662" stroke-linecap="round" stroke-linejoin="round"/>
<path d="M189.42 140.71L197.012 149.008" stroke="white" stroke-width="1.0662" stroke-linecap="round" stroke-linejoin="round"/>
<path d="M209.668 145.392L197.013 151.987" stroke="white" stroke-width="1.0662" stroke-linecap="round" stroke-linejoin="round"/>
<path d="M202.92 149.218L207.558 149.007" stroke="white" stroke-width="1.0662" stroke-linecap="round" stroke-linejoin="round"/>
</g>
<path d="M160.362 146.12C160.362 152.067 165.034 156.891 165.034 156.891C165.034 156.891 169.706 152.067 169.706 146.12C169.706 140.174 165.034 135.35 165.034 135.35C165.034 135.35 160.362 140.17 160.362 146.12Z" fill="#008D91"/>
<path d="M157.122 155.296C159.403 157.876 163.258 158.156 163.258 158.156C163.258 158.156 163.444 154.249 161.179 151.668C158.913 149.088 155.043 148.808 155.043 148.808C155.043 148.808 154.853 152.715 157.122 155.296Z" fill="#008D91"/>
<path d="M169.031 151.58C166.648 154.053 166.663 157.964 166.663 157.964C166.663 157.964 170.537 157.861 172.917 155.384C175.296 152.907 175.289 149 175.289 149C175.289 149 171.411 149.103 169.031 151.58Z" fill="#008D91"/>
<g opacity="0.5">
<path d="M160.359 146.121C160.359 152.068 165.031 156.891 165.031 156.891C165.031 156.891 169.704 152.068 169.704 146.121C169.704 140.174 165.031 135.35 165.031 135.35C165.031 135.35 160.359 140.17 160.359 146.121Z" fill="white"/>
<path d="M165.03 156.891V135.35" stroke="white" stroke-width="1.0662" stroke-linecap="round" stroke-linejoin="round"/>
<path d="M165.029 143.007L162.413 140.703" stroke="white" stroke-width="1.0662" stroke-linecap="round" stroke-linejoin="round"/>
<path d="M165.072 146.565L168.311 141.834" stroke="white" stroke-width="1.0662" stroke-linecap="round" stroke-linejoin="round"/>
<path d="M165.032 148.617L161.17 145.143" stroke="white" stroke-width="1.0662" stroke-linecap="round" stroke-linejoin="round"/>
<path d="M165.072 151.381L168.893 147.949" stroke="white" stroke-width="1.0662" stroke-linecap="round" stroke-linejoin="round"/>
<path d="M165.073 153.77L162.081 151.381" stroke="white" stroke-width="1.0662" stroke-linecap="round" stroke-linejoin="round"/>
<path d="M157.119 155.296C159.4 157.876 163.255 158.156 163.255 158.156C163.255 158.156 163.441 154.249 161.176 151.669C158.91 149.088 155.04 148.808 155.04 148.808C155.04 148.808 154.85 152.715 157.119 155.296Z" fill="white"/>
<path d="M163.257 158.156L155.042 148.808" stroke="white" stroke-width="1.0662" stroke-linecap="round" stroke-linejoin="round"/>
<path d="M157.961 152.133L155.946 152.147" stroke="white" stroke-width="1.0662" stroke-linecap="round" stroke-linejoin="round"/>
<path d="M159.337 153.659L158.938 150.35" stroke="white" stroke-width="1.0662" stroke-linecap="round" stroke-linejoin="round"/>
<path d="M160.1 154.567L157.101 154.556" stroke="white" stroke-width="1.0662" stroke-linecap="round" stroke-linejoin="round"/>
<path d="M161.173 155.748L161.519 152.777" stroke="white" stroke-width="1.0662" stroke-linecap="round" stroke-linejoin="round"/>
<path d="M162.084 156.784L159.875 156.91" stroke="white" stroke-width="1.0662" stroke-linecap="round" stroke-linejoin="round"/>
<path d="M169.026 151.58C166.642 154.054 166.657 157.964 166.657 157.964C166.657 157.964 170.531 157.861 172.911 155.384C175.291 152.907 175.283 149 175.283 149C175.283 149 171.405 149.104 169.026 151.58Z" fill="white"/>
<path d="M166.657 157.964L175.283 149" stroke="white" stroke-width="1.0662" stroke-linecap="round" stroke-linejoin="round"/>
<path d="M172.216 152.186L172.053 150.162" stroke="white" stroke-width="1.0662" stroke-linecap="round" stroke-linejoin="round"/>
<path d="M170.811 153.685L174.053 153.033" stroke="white" stroke-width="1.0662" stroke-linecap="round" stroke-linejoin="round"/>
<path d="M169.969 154.521L169.756 151.504" stroke="white" stroke-width="1.0662" stroke-linecap="round" stroke-linejoin="round"/>
<path d="M168.876 155.687L171.841 155.817" stroke="white" stroke-width="1.0662" stroke-linecap="round" stroke-linejoin="round"/>
<path d="M167.923 156.68L167.634 154.471" stroke="white" stroke-width="1.0662" stroke-linecap="round" stroke-linejoin="round"/>
</g>
<path d="M165.033 156.891V135.35" stroke="#008D91" stroke-width="1.0662" stroke-linecap="round" stroke-linejoin="round"/>
<path d="M165.033 143.007L162.418 140.703" stroke="#008D91" stroke-width="1.0662" stroke-linecap="round" stroke-linejoin="round"/>
<path d="M165.074 146.565L168.313 141.834" stroke="#008D91" stroke-width="1.0662" stroke-linecap="round" stroke-linejoin="round"/>
<path d="M165.033 148.617L161.171 145.143" stroke="#008D91" stroke-width="1.0662" stroke-linecap="round" stroke-linejoin="round"/>
<path d="M165.074 151.381L168.895 147.949" stroke="#008D91" stroke-width="1.0662" stroke-linecap="round" stroke-linejoin="round"/>
<path d="M165.076 153.77L162.084 151.381" stroke="#008D91" stroke-width="1.0662" stroke-linecap="round" stroke-linejoin="round"/>
<g opacity="0.7">
<path d="M165.039 156.891V135.35" stroke="white" stroke-width="1.0662" stroke-linecap="round" stroke-linejoin="round"/>
<path d="M165.037 143.007L162.422 140.702" stroke="white" stroke-width="1.0662" stroke-linecap="round" stroke-linejoin="round"/>
<path d="M165.081 146.565L168.32 141.833" stroke="white" stroke-width="1.0662" stroke-linecap="round" stroke-linejoin="round"/>
<path d="M165.036 148.616L161.174 145.142" stroke="white" stroke-width="1.0662" stroke-linecap="round" stroke-linejoin="round"/>
<path d="M165.081 151.381L168.902 147.949" stroke="white" stroke-width="1.0662" stroke-linecap="round" stroke-linejoin="round"/>
<path d="M165.079 153.77L162.087 151.381" stroke="white" stroke-width="1.0662" stroke-linecap="round" stroke-linejoin="round"/>
</g>
<path d="M163.26 158.156L155.045 148.808" stroke="#008D91" stroke-width="1.0662" stroke-linecap="round" stroke-linejoin="round"/>
<path d="M157.964 152.132L155.949 152.147" stroke="#008D91" stroke-width="1.0662" stroke-linecap="round" stroke-linejoin="round"/>
<path d="M159.34 153.659L158.94 150.35" stroke="#008D91" stroke-width="1.0662" stroke-linecap="round" stroke-linejoin="round"/>
<path d="M160.105 154.567L157.105 154.556" stroke="#008D91" stroke-width="1.0662" stroke-linecap="round" stroke-linejoin="round"/>
<path d="M161.176 155.748L161.522 152.777" stroke="#008D91" stroke-width="1.0662" stroke-linecap="round" stroke-linejoin="round"/>
<path d="M162.088 156.783L159.879 156.91" stroke="#008D91" stroke-width="1.0662" stroke-linecap="round" stroke-linejoin="round"/>
<g opacity="0.7">
<path d="M163.257 158.156L155.042 148.808" stroke="white" stroke-width="1.0662" stroke-linecap="round" stroke-linejoin="round"/>
<path d="M157.962 152.133L155.947 152.147" stroke="white" stroke-width="1.0662" stroke-linecap="round" stroke-linejoin="round"/>
<path d="M159.337 153.659L158.938 150.35" stroke="white" stroke-width="1.0662" stroke-linecap="round" stroke-linejoin="round"/>
<path d="M160.103 154.567L157.104 154.556" stroke="white" stroke-width="1.0662" stroke-linecap="round" stroke-linejoin="round"/>
<path d="M161.174 155.748L161.52 152.777" stroke="white" stroke-width="1.0662" stroke-linecap="round" stroke-linejoin="round"/>
<path d="M162.088 156.784L159.879 156.91" stroke="white" stroke-width="1.0662" stroke-linecap="round" stroke-linejoin="round"/>
</g>
<path d="M166.663 157.964L175.289 149" stroke="#008D91" stroke-width="1.0662" stroke-linecap="round" stroke-linejoin="round"/>
<path d="M172.219 152.186L172.056 150.162" stroke="#008D91" stroke-width="1.0662" stroke-linecap="round" stroke-linejoin="round"/>
<path d="M170.813 153.685L174.056 153.034" stroke="#008D91" stroke-width="1.0662" stroke-linecap="round" stroke-linejoin="round"/>
<path d="M169.972 154.521L169.759 151.504" stroke="#008D91" stroke-width="1.0662" stroke-linecap="round" stroke-linejoin="round"/>
<path d="M168.882 155.687L171.847 155.817" stroke="#008D91" stroke-width="1.0662" stroke-linecap="round" stroke-linejoin="round"/>
<path d="M167.929 156.68L167.64 154.471" stroke="#008D91" stroke-width="1.0662" stroke-linecap="round" stroke-linejoin="round"/>
<g opacity="0.7">
<path d="M166.66 157.964L175.286 149" stroke="white" stroke-width="1.0662" stroke-linecap="round" stroke-linejoin="round"/>
<path d="M172.219 152.186L172.056 150.162" stroke="white" stroke-width="1.0662" stroke-linecap="round" stroke-linejoin="round"/>
<path d="M170.811 153.685L174.053 153.033" stroke="white" stroke-width="1.0662" stroke-linecap="round" stroke-linejoin="round"/>
<path d="M169.969 154.521L169.756 151.504" stroke="white" stroke-width="1.0662" stroke-linecap="round" stroke-linejoin="round"/>
<path d="M168.879 155.687L171.844 155.817" stroke="white" stroke-width="1.0662" stroke-linecap="round" stroke-linejoin="round"/>
<path d="M167.926 156.68L167.637 154.471" stroke="white" stroke-width="1.0662" stroke-linecap="round" stroke-linejoin="round"/>
</g>
<path d="M11.6804 104.338C11.8058 99.5495 11.4409 91.3825 15.6036 88.0199C19.2607 85.0675 22.1042 89.0743 23.1268 92.3066C25.6168 100.148 24.446 108.794 24.4422 116.888C24.4422 117.011 24.4422 117.133 24.4422 117.271C24.6398 123.23 25.3469 129.675 24.7045 135.622C24.7045 135.622 25.3355 129.664 29.9772 132.217C34.6189 134.771 27.6545 148.172 27.6545 148.172C27.6545 148.172 33.1401 144.13 35.6719 147.535C38.2037 150.94 32.5166 154.751 32.5166 154.751C32.5166 154.751 37.7894 153.264 37.7894 154.751C37.7894 156.239 36.1015 157.516 31.2507 158.156H5.09232C5.09232 158.156 0.872615 155.813 1.71656 153.264C2.5605 150.714 6.98929 152.198 6.98929 152.198C6.98929 152.198 0.241557 143.9 0.663528 140.285C1.0855 136.669 9.734 140.925 9.734 140.925C9.734 140.925 2.98247 123.694 4.24838 116.048C5.24438 110.017 9.88987 114.131 12.4141 116.462C11.8196 112.45 11.5741 108.394 11.6804 104.338Z" fill="#008D91" stroke="white" stroke-width="1.0662" stroke-linecap="round" stroke-linejoin="round"/>
<path opacity="0.5" d="M11.6804 104.338C11.8058 99.5495 11.4409 91.3825 15.6036 88.0199C19.2607 85.0675 22.1042 89.0743 23.1268 92.3066C25.6168 100.148 24.446 108.794 24.4422 116.888C24.4422 117.011 24.4422 117.133 24.4422 117.271C24.6398 123.23 25.3469 129.675 24.7045 135.622C24.7045 135.622 25.3355 129.664 29.9772 132.217C34.6189 134.771 27.6545 148.172 27.6545 148.172C27.6545 148.172 33.1401 144.13 35.6719 147.535C38.2037 150.94 32.5166 154.751 32.5166 154.751C32.5166 154.751 37.7894 153.264 37.7894 154.751C37.7894 156.239 36.1015 157.516 31.2507 158.156H5.09232C5.09232 158.156 0.872615 155.813 1.71656 153.264C2.5605 150.714 6.98929 152.198 6.98929 152.198C6.98929 152.198 0.241557 143.9 0.663528 140.285C1.0855 136.669 9.734 140.925 9.734 140.925C9.734 140.925 2.98247 123.694 4.24838 116.048C5.24438 110.017 9.88987 114.131 12.4141 116.462C11.8196 112.45 11.5741 108.394 11.6804 104.338Z" fill="white"/>
<path d="M20.0669 157.941L18.1699 99.4422" stroke="white" stroke-width="1.0662" stroke-linecap="round" stroke-linejoin="round"/>
<path d="M19.0121 133.479L9.09766 124.119" stroke="white" stroke-width="1.0662" stroke-linecap="round" stroke-linejoin="round"/>
<path d="M14.3696 129.223L12.2598 123.268" stroke="white" stroke-width="1.0662" stroke-linecap="round" stroke-linejoin="round"/>
<path d="M27.2362 140.71L19.6445 149.008" stroke="white" stroke-width="1.0662" stroke-linecap="round" stroke-linejoin="round"/>
<path d="M6.98926 145.392L19.6446 151.987" stroke="white" stroke-width="1.0662" stroke-linecap="round" stroke-linejoin="round"/>
<path d="M13.7393 149.218L9.09766 149.007" stroke="white" stroke-width="1.0662" stroke-linecap="round" stroke-linejoin="round"/>
<path d="M20.0669 157.941L18.1699 99.4422" stroke="#008D91" stroke-width="1.0662" stroke-linecap="round" stroke-linejoin="round"/>
<path d="M19.0121 133.479L9.09766 124.119" stroke="#008D91" stroke-width="1.0662" stroke-linecap="round" stroke-linejoin="round"/>
<path d="M14.3696 129.223L12.2598 123.268" stroke="#008D91" stroke-width="1.0662" stroke-linecap="round" stroke-linejoin="round"/>
<path d="M27.2362 140.71L19.6445 149.008" stroke="#008D91" stroke-width="1.0662" stroke-linecap="round" stroke-linejoin="round"/>
<path d="M6.98926 145.392L19.6446 151.987" stroke="#008D91" stroke-width="1.0662" stroke-linecap="round" stroke-linejoin="round"/>
<path d="M13.7393 149.218L9.09766 149.007" stroke="#008D91" stroke-width="1.0662" stroke-linecap="round" stroke-linejoin="round"/>
<g opacity="0.8">
<path d="M20.0669 157.941L18.1699 99.4422" stroke="white" stroke-width="1.0662" stroke-linecap="round" stroke-linejoin="round"/>
<path d="M19.015 133.479L9.10059 124.119" stroke="white" stroke-width="1.0662" stroke-linecap="round" stroke-linejoin="round"/>
<path d="M14.3696 129.223L12.2598 123.268" stroke="white" stroke-width="1.0662" stroke-linecap="round" stroke-linejoin="round"/>
<path d="M27.2372 140.71L19.6455 149.008" stroke="white" stroke-width="1.0662" stroke-linecap="round" stroke-linejoin="round"/>
<path d="M6.98926 145.392L19.6446 151.987" stroke="white" stroke-width="1.0662" stroke-linecap="round" stroke-linejoin="round"/>
<path d="M13.7423 149.218L9.10059 149.007" stroke="white" stroke-width="1.0662" stroke-linecap="round" stroke-linejoin="round"/>
</g>
<path d="M57.0602 146.12C57.0602 152.067 52.3881 156.891 52.3881 156.891C52.3881 156.891 47.7236 152.067 47.7236 146.12C47.7236 140.174 52.3957 135.35 52.3957 135.35C52.3957 135.35 57.0602 140.17 57.0602 146.12Z" fill="#008D91"/>
<path d="M60.2966 155.296C58.0157 157.876 54.1609 158.156 54.1609 158.156C54.1609 158.156 53.9747 154.249 56.2442 151.668C58.5137 149.088 62.3799 148.808 62.3799 148.808C62.3799 148.808 62.5509 152.715 60.2966 155.296Z" fill="#008D91"/>
<path d="M48.3921 151.58C50.7719 154.053 50.7605 157.964 50.7605 157.964C50.7605 157.964 46.8867 157.861 44.5031 155.384C42.1196 152.907 42.1348 149 42.1348 149C42.1348 149 46.0085 149.103 48.3921 151.58Z" fill="#008D91"/>
<g opacity="0.5">
<path d="M57.0534 146.121C57.0534 152.068 52.3813 156.891 52.3813 156.891C52.3813 156.891 47.7168 152.068 47.7168 146.121C47.7168 140.174 52.3889 135.35 52.3889 135.35C52.3889 135.35 57.0534 140.17 57.0534 146.121Z" fill="white"/>
<path d="M52.3848 156.891V135.35" stroke="white" stroke-width="1.0662" stroke-linecap="round" stroke-linejoin="round"/>
<path d="M52.3848 143.007L55.0002 140.703" stroke="white" stroke-width="1.0662" stroke-linecap="round" stroke-linejoin="round"/>
<path d="M52.3424 146.565L49.1035 141.834" stroke="white" stroke-width="1.0662" stroke-linecap="round" stroke-linejoin="round"/>
<path d="M52.3848 148.617L56.2471 145.143" stroke="white" stroke-width="1.0662" stroke-linecap="round" stroke-linejoin="round"/>
<path d="M52.3401 151.381L48.5195 147.949" stroke="white" stroke-width="1.0662" stroke-linecap="round" stroke-linejoin="round"/>
<path d="M52.3408 153.77L55.3288 151.381" stroke="white" stroke-width="1.0662" stroke-linecap="round" stroke-linejoin="round"/>
<path d="M60.2898 155.296C58.0089 157.876 54.1541 158.156 54.1541 158.156C54.1541 158.156 53.9678 154.249 56.2373 151.669C58.5069 149.088 62.373 148.808 62.373 148.808C62.373 148.808 62.5441 152.715 60.2898 155.296Z" fill="white"/>
<path d="M54.1562 158.156L62.3752 148.808" stroke="white" stroke-width="1.0662" stroke-linecap="round" stroke-linejoin="round"/>
<path d="M59.4551 152.133L61.4661 152.147" stroke="white" stroke-width="1.0662" stroke-linecap="round" stroke-linejoin="round"/>
<path d="M58.0791 153.659L58.4783 150.35" stroke="white" stroke-width="1.0662" stroke-linecap="round" stroke-linejoin="round"/>
<path d="M57.3105 154.567L60.3138 154.556" stroke="white" stroke-width="1.0662" stroke-linecap="round" stroke-linejoin="round"/>
<path d="M56.2395 155.748L55.8936 152.777" stroke="white" stroke-width="1.0662" stroke-linecap="round" stroke-linejoin="round"/>
<path d="M55.3291 156.784L57.5378 156.91" stroke="white" stroke-width="1.0662" stroke-linecap="round" stroke-linejoin="round"/>
<path d="M48.3882 151.58C50.768 154.054 50.7566 157.964 50.7566 157.964C50.7566 157.964 46.8828 157.861 44.4992 155.384C42.1157 152.907 42.1309 149 42.1309 149C42.1309 149 46.0046 149.104 48.3882 151.58Z" fill="white"/>
<path d="M50.7566 157.964L42.1309 149" stroke="white" stroke-width="1.0662" stroke-linecap="round" stroke-linejoin="round"/>
<path d="M45.1963 152.186L45.3636 150.162" stroke="white" stroke-width="1.0662" stroke-linecap="round" stroke-linejoin="round"/>
<path d="M46.605 153.685L43.3623 153.033" stroke="white" stroke-width="1.0662" stroke-linecap="round" stroke-linejoin="round"/>
<path d="M47.4434 154.521L47.66 151.504" stroke="white" stroke-width="1.0662" stroke-linecap="round" stroke-linejoin="round"/>
<path d="M48.5326 155.687L45.5674 155.817" stroke="white" stroke-width="1.0662" stroke-linecap="round" stroke-linejoin="round"/>
<path d="M49.4912 156.68L49.7763 154.471" stroke="white" stroke-width="1.0662" stroke-linecap="round" stroke-linejoin="round"/>
</g>
<path d="M52.3857 156.891V135.35" stroke="#008D91" stroke-width="1.0662" stroke-linecap="round" stroke-linejoin="round"/>
<path d="M52.3857 143.007L55.0012 140.703" stroke="#008D91" stroke-width="1.0662" stroke-linecap="round" stroke-linejoin="round"/>
<path d="M52.3463 146.565L49.1074 141.834" stroke="#008D91" stroke-width="1.0662" stroke-linecap="round" stroke-linejoin="round"/>
<path d="M52.3857 148.617L56.2481 145.143" stroke="#008D91" stroke-width="1.0662" stroke-linecap="round" stroke-linejoin="round"/>
<path d="M52.3469 151.381L48.5264 147.949" stroke="#008D91" stroke-width="1.0662" stroke-linecap="round" stroke-linejoin="round"/>
<path d="M52.3447 153.77L55.3327 151.381" stroke="#008D91" stroke-width="1.0662" stroke-linecap="round" stroke-linejoin="round"/>
<g opacity="0.7">
<path d="M52.3857 156.891V135.35" stroke="white" stroke-width="1.0662" stroke-linecap="round" stroke-linejoin="round"/>
<path d="M52.3857 143.007L55.0012 140.703" stroke="white" stroke-width="1.0662" stroke-linecap="round" stroke-linejoin="round"/>
<path d="M52.3434 146.565L49.1045 141.834" stroke="white" stroke-width="1.0662" stroke-linecap="round" stroke-linejoin="round"/>
<path d="M52.3857 148.617L56.2481 145.143" stroke="white" stroke-width="1.0662" stroke-linecap="round" stroke-linejoin="round"/>
<path d="M52.344 151.381L48.5234 147.949" stroke="white" stroke-width="1.0662" stroke-linecap="round" stroke-linejoin="round"/>
<path d="M52.3447 153.77L55.3327 151.381" stroke="white" stroke-width="1.0662" stroke-linecap="round" stroke-linejoin="round"/>
</g>
<path d="M54.1602 158.156L62.3791 148.808" stroke="#008D91" stroke-width="1.0662" stroke-linecap="round" stroke-linejoin="round"/>
<path d="M59.458 152.132L61.469 152.147" stroke="#008D91" stroke-width="1.0662" stroke-linecap="round" stroke-linejoin="round"/>
<path d="M58.0801 153.659L58.4792 150.35" stroke="#008D91" stroke-width="1.0662" stroke-linecap="round" stroke-linejoin="round"/>
<path d="M57.3145 154.567L60.3177 154.556" stroke="#008D91" stroke-width="1.0662" stroke-linecap="round" stroke-linejoin="round"/>
<path d="M56.2405 155.748L55.8945 152.777" stroke="#008D91" stroke-width="1.0662" stroke-linecap="round" stroke-linejoin="round"/>
<path d="M55.333 156.783L57.5417 156.91" stroke="#008D91" stroke-width="1.0662" stroke-linecap="round" stroke-linejoin="round"/>
<g opacity="0.7">
<path d="M54.1602 158.156L62.3791 148.808" stroke="white" stroke-width="1.0662" stroke-linecap="round" stroke-linejoin="round"/>
<path d="M59.459 152.133L61.47 152.148" stroke="white" stroke-width="1.0662" stroke-linecap="round" stroke-linejoin="round"/>
<path d="M58.0811 153.658L58.4802 150.349" stroke="white" stroke-width="1.0662" stroke-linecap="round" stroke-linejoin="round"/>
<path d="M57.3174 154.567L60.3206 154.556" stroke="white" stroke-width="1.0662" stroke-linecap="round" stroke-linejoin="round"/>
<path d="M56.2434 155.749L55.8975 152.777" stroke="white" stroke-width="1.0662" stroke-linecap="round" stroke-linejoin="round"/>
<path d="M55.333 156.783L57.5417 156.91" stroke="white" stroke-width="1.0662" stroke-linecap="round" stroke-linejoin="round"/>
</g>
<path d="M50.7605 157.964L42.1348 149" stroke="#008D91" stroke-width="1.0662" stroke-linecap="round" stroke-linejoin="round"/>
<path d="M45.1973 152.186L45.3645 150.162" stroke="#008D91" stroke-width="1.0662" stroke-linecap="round" stroke-linejoin="round"/>
<path d="M46.6119 153.685L43.3691 153.034" stroke="#008D91" stroke-width="1.0662" stroke-linecap="round" stroke-linejoin="round"/>
<path d="M47.4443 154.521L47.661 151.504" stroke="#008D91" stroke-width="1.0662" stroke-linecap="round" stroke-linejoin="round"/>
<path d="M48.5365 155.687L45.5713 155.817" stroke="#008D91" stroke-width="1.0662" stroke-linecap="round" stroke-linejoin="round"/>
<path d="M49.4941 156.68L49.7793 154.471" stroke="#008D91" stroke-width="1.0662" stroke-linecap="round" stroke-linejoin="round"/>
<g opacity="0.7">
<path d="M50.7566 157.964L42.1309 149" stroke="white" stroke-width="1.0662" stroke-linecap="round" stroke-linejoin="round"/>
<path d="M45.1963 152.186L45.3636 150.162" stroke="white" stroke-width="1.0662" stroke-linecap="round" stroke-linejoin="round"/>
<path d="M46.605 153.685L43.3623 153.033" stroke="white" stroke-width="1.0662" stroke-linecap="round" stroke-linejoin="round"/>
<path d="M47.4434 154.521L47.66 151.504" stroke="white" stroke-width="1.0662" stroke-linecap="round" stroke-linejoin="round"/>
<path d="M48.5326 155.687L45.5674 155.817" stroke="white" stroke-width="1.0662" stroke-linecap="round" stroke-linejoin="round"/>
<path d="M49.4912 156.68L49.7763 154.471" stroke="white" stroke-width="1.0662" stroke-linecap="round" stroke-linejoin="round"/>
</g>
<path d="M162.295 44.2021H59.5277C59.4969 44.2026 59.4664 44.197 59.4378 44.1854C59.4092 44.1739 59.3832 44.1568 59.3613 44.135C59.3393 44.1132 59.3219 44.0873 59.31 44.0587C59.2981 44.03 59.292 43.9993 59.292 43.9683C59.292 43.9052 59.3168 43.8447 59.361 43.8002C59.4052 43.7556 59.4652 43.7305 59.5277 43.7305H162.295C162.325 43.7305 162.356 43.7367 162.384 43.7487C162.413 43.7607 162.438 43.7783 162.46 43.8004C162.482 43.8225 162.499 43.8488 162.51 43.8776C162.521 43.9064 162.527 43.9372 162.527 43.9683C162.527 44.0303 162.502 44.0898 162.459 44.1336C162.415 44.1775 162.356 44.2021 162.295 44.2021Z" fill="#008D91"/>
<g opacity="0.3">
<path d="M162.295 44.2018H59.5277C59.4969 44.2023 59.4664 44.1966 59.4378 44.1851C59.4092 44.1736 59.3832 44.1564 59.3613 44.1346C59.3393 44.1129 59.3219 44.0869 59.31 44.0583C59.2981 44.0297 59.292 43.9989 59.292 43.9679C59.292 43.9048 59.3168 43.8444 59.361 43.7998C59.4052 43.7552 59.4652 43.7302 59.5277 43.7302H162.295C162.325 43.7302 162.356 43.7363 162.384 43.7483C162.413 43.7603 162.438 43.7779 162.46 43.8C162.482 43.8221 162.499 43.8484 162.51 43.8772C162.521 43.906 162.527 43.9368 162.527 43.9679C162.527 44.0299 162.502 44.0894 162.459 44.1333C162.415 44.1771 162.356 44.2018 162.295 44.2018Z" fill="white"/>
</g>
<path d="M162.09 85.3128H59.3226C59.2918 85.3133 59.2613 85.3076 59.2327 85.2961C59.2041 85.2846 59.1781 85.2674 59.1562 85.2457C59.1342 85.2239 59.1168 85.1979 59.1049 85.1693C59.093 85.1407 59.0869 85.11 59.0869 85.0789C59.0869 85.0159 59.1117 84.9554 59.1559 84.9108C59.2001 84.8662 59.2601 84.8412 59.3226 84.8412H162.09C162.12 84.8412 162.151 84.8474 162.179 84.8594C162.208 84.8714 162.233 84.8889 162.255 84.911C162.277 84.9332 162.294 84.9594 162.305 84.9882C162.316 85.0171 162.322 85.0479 162.322 85.0789C162.322 85.1096 162.316 85.14 162.304 85.1684C162.292 85.1968 162.275 85.2226 162.254 85.2443C162.232 85.266 162.206 85.2833 162.178 85.295C162.15 85.3068 162.12 85.3128 162.09 85.3128Z" fill="#008D91"/>
<g opacity="0.3">
<path d="M162.09 85.3128H59.3226C59.2918 85.3133 59.2613 85.3076 59.2327 85.2961C59.2041 85.2846 59.1781 85.2674 59.1562 85.2457C59.1342 85.2239 59.1168 85.1979 59.1049 85.1693C59.093 85.1407 59.0869 85.11 59.0869 85.0789C59.0869 85.0159 59.1117 84.9554 59.1559 84.9108C59.2001 84.8662 59.2601 84.8412 59.3226 84.8412H162.09C162.12 84.8412 162.151 84.8474 162.179 84.8594C162.208 84.8714 162.233 84.8889 162.255 84.911C162.277 84.9332 162.294 84.9594 162.305 84.9882C162.316 85.0171 162.322 85.0479 162.322 85.0789C162.322 85.1096 162.316 85.14 162.304 85.1684C162.292 85.1968 162.275 85.2226 162.254 85.2443C162.232 85.266 162.206 85.2833 162.178 85.295C162.15 85.3068 162.12 85.3128 162.09 85.3128Z" fill="white"/>
</g>
<path d="M162.09 118.92H59.3226C59.2601 118.92 59.2001 118.895 59.1559 118.851C59.1117 118.806 59.0869 118.745 59.0869 118.682C59.0869 118.651 59.093 118.621 59.1049 118.592C59.1168 118.563 59.1342 118.537 59.1562 118.516C59.1781 118.494 59.2041 118.477 59.2327 118.465C59.2613 118.454 59.2918 118.448 59.3226 118.449H162.09C162.12 118.449 162.15 118.455 162.178 118.466C162.206 118.478 162.232 118.495 162.254 118.517C162.275 118.539 162.292 118.565 162.304 118.593C162.316 118.621 162.322 118.652 162.322 118.682C162.322 118.713 162.316 118.744 162.305 118.773C162.294 118.802 162.277 118.828 162.255 118.85C162.233 118.872 162.208 118.89 162.179 118.902C162.151 118.914 162.12 118.92 162.09 118.92Z" fill="#008D91"/>
<g opacity="0.3">
<path d="M162.09 118.92H59.3226C59.2601 118.92 59.2001 118.895 59.1559 118.851C59.1117 118.806 59.0869 118.745 59.0869 118.682C59.0869 118.651 59.093 118.621 59.1049 118.592C59.1168 118.563 59.1342 118.537 59.1562 118.516C59.1781 118.494 59.2041 118.477 59.2327 118.465C59.2613 118.454 59.2918 118.448 59.3226 118.449H162.09C162.12 118.449 162.15 118.455 162.178 118.466C162.206 118.478 162.232 118.495 162.254 118.517C162.275 118.539 162.292 118.565 162.304 118.593C162.316 118.621 162.322 118.652 162.322 118.682C162.322 118.713 162.316 118.744 162.305 118.773C162.294 118.802 162.277 118.828 162.255 118.85C162.233 118.872 162.208 118.89 162.179 118.902C162.151 118.914 162.12 118.92 162.09 118.92Z" fill="white"/>
</g>
<path d="M81.167 124.606V159.582" stroke="#2E3646" stroke-width="0.282726" stroke-miterlimit="10"/>
<path d="M86.1201 124.606V159.582" stroke="#2E3646" stroke-width="0.282726" stroke-miterlimit="10"/>
<path d="M91.0723 124.606V159.582" stroke="#2E3646" stroke-width="0.282726" stroke-miterlimit="10"/>
<path d="M96.0283 124.606V159.582" stroke="#2E3646" stroke-width="0.282726" stroke-miterlimit="10"/>
<path d="M100.981 124.606V159.582" stroke="#2E3646" stroke-width="0.282726" stroke-miterlimit="10"/>
<path d="M105.934 124.606V159.582" stroke="#2E3646" stroke-width="0.282726" stroke-miterlimit="10"/>
<path d="M110.887 124.606V159.582" stroke="#2E3646" stroke-width="0.282726" stroke-miterlimit="10"/>
<path d="M115.84 124.606V159.582" stroke="#2E3646" stroke-width="0.282726" stroke-miterlimit="10"/>
<path d="M120.795 124.606V159.582" stroke="#2E3646" stroke-width="0.282726" stroke-miterlimit="10"/>
<path d="M125.748 124.606V159.582" stroke="#2E3646" stroke-width="0.282726" stroke-miterlimit="10"/>
<path d="M130.701 124.606V159.582" stroke="#2E3646" stroke-width="0.282726" stroke-miterlimit="10"/>
<path d="M135.653 124.606V159.582" stroke="#2E3646" stroke-width="0.282726" stroke-miterlimit="10"/>
<path d="M81.416 127.854H135.409" stroke="#2E3646" stroke-width="0.282726" stroke-miterlimit="10"/>
<path d="M81.416 132.601H135.409" stroke="#2E3646" stroke-width="0.282726" stroke-miterlimit="10"/>
<path d="M81.416 137.348H135.409" stroke="#2E3646" stroke-width="0.282726" stroke-miterlimit="10"/>
<path d="M81.416 142.094H135.409" stroke="#2E3646" stroke-width="0.282726" stroke-miterlimit="10"/>
<path d="M81.416 146.841H135.409" stroke="#2E3646" stroke-width="0.282726" stroke-miterlimit="10"/>
<path d="M81.416 151.588H135.409" stroke="#2E3646" stroke-width="0.282726" stroke-miterlimit="10"/>
<path d="M81.416 156.335H135.409" stroke="#2E3646" stroke-width="0.282726" stroke-miterlimit="10"/>
<path d="M92.7575 136.876L85.5117 159.406H100.687L93.4379 136.876C93.4148 136.803 93.3694 136.74 93.3082 136.695C93.2471 136.65 93.1734 136.625 93.0977 136.625C93.022 136.625 92.9483 136.65 92.8871 136.695C92.826 136.74 92.7806 136.803 92.7575 136.876Z" fill="#008D91" stroke="#2E3646" stroke-width="1.1309" stroke-miterlimit="10"/>
<path d="M106.572 129.414L96.9277 159.406H116.909L107.253 129.414C107.23 129.342 107.184 129.278 107.123 129.233C107.062 129.188 106.988 129.164 106.912 129.164C106.837 129.164 106.763 129.188 106.702 129.233C106.641 129.278 106.595 129.342 106.572 129.414Z" fill="#2E3646" stroke="#2E3646" stroke-width="1.1309" stroke-miterlimit="10"/>
<path d="M119.284 142.029L113.692 159.406H125.553L119.95 142.029C119.923 141.962 119.878 141.904 119.818 141.863C119.759 141.822 119.689 141.8 119.617 141.8C119.545 141.8 119.475 141.822 119.416 141.863C119.356 141.904 119.311 141.962 119.284 142.029Z" fill="#008D91" stroke="#2E3646" stroke-width="1.1309" stroke-miterlimit="10"/>
<path d="M126.946 147.995L123.277 159.406H131.295L127.626 147.995C127.603 147.923 127.558 147.859 127.497 147.814C127.435 147.769 127.362 147.745 127.286 147.745C127.21 147.745 127.137 147.769 127.076 147.814C127.014 147.859 126.969 147.923 126.946 147.995Z" fill="#2E3646" stroke="#2E3646" stroke-width="1.1309" stroke-miterlimit="10"/>
<path d="M80.5176 113.552C78.3439 113.552 76.2191 112.902 74.4117 111.684C72.6044 110.466 71.1958 108.735 70.3639 106.709C69.5321 104.684 69.3145 102.455 69.7385 100.305C70.1626 98.1546 71.2093 96.1794 72.7463 94.6292C74.2833 93.0789 76.2416 92.0232 78.3735 91.5955C80.5054 91.1678 82.7152 91.3873 84.7234 92.2263C86.7316 93.0653 88.448 94.486 89.6557 96.3089C90.8633 98.1318 91.5079 100.275 91.5079 102.467C91.5048 105.406 90.346 108.224 88.2855 110.302C86.2251 112.38 83.4315 113.549 80.5176 113.552ZM80.5176 94.6378C78.9824 94.6386 77.482 95.0984 76.2059 95.9592C74.9298 96.82 73.9354 98.043 73.3485 99.4738C72.7615 100.904 72.6083 102.479 72.9083 103.997C73.2082 105.516 73.9479 106.91 75.0337 108.005C76.1194 109.1 77.5026 109.845 79.0084 110.147C80.5141 110.449 82.0747 110.293 83.4929 109.701C84.9112 109.108 86.1233 108.104 86.9761 106.817C87.829 105.529 88.2841 104.016 88.2841 102.467C88.2821 100.391 87.4631 98.3999 86.0069 96.9319C84.5507 95.4639 82.5765 94.6388 80.5176 94.6378Z" fill="#2E3646" stroke="#2E3646" stroke-width="1.1309" stroke-miterlimit="10"/>
<path d="M80.5188 113.552C79.0355 113.557 77.5669 113.256 76.2027 112.669C74.8386 112.081 73.6076 111.219 72.585 110.136L74.9153 107.885C75.6373 108.651 76.5068 109.259 77.4703 109.674C78.4338 110.089 79.4712 110.301 80.5188 110.297C81.5382 110.297 82.5476 110.094 83.4894 109.701C84.4313 109.307 85.287 108.731 86.0079 108.004C86.7287 107.277 87.3005 106.413 87.6906 105.464C88.0807 104.514 88.2815 103.496 88.2815 102.467C88.2815 101.439 88.0807 100.421 87.6906 99.4711C87.3005 98.5212 86.7287 97.658 86.0079 96.931C85.287 96.204 84.4313 95.6272 83.4894 95.2338C82.5476 94.8403 81.5382 94.6378 80.5188 94.6378V91.3825C81.962 91.3825 83.3911 91.6692 84.7245 92.2263C86.0579 92.7833 87.2695 93.5999 88.29 94.6292C89.3106 95.6585 90.1201 96.8805 90.6724 98.2254C91.2247 99.5702 91.509 101.012 91.509 102.467C91.509 103.923 91.2247 105.364 90.6724 106.709C90.1201 108.054 89.3106 109.276 88.29 110.305C87.2695 111.335 86.0579 112.151 84.7245 112.708C83.3911 113.265 81.962 113.552 80.5188 113.552Z" fill="#008D91" stroke="#2E3646" stroke-width="1.1309" stroke-miterlimit="10"/>
<path d="M107.621 113.552C105.447 113.553 103.322 112.903 101.514 111.686C99.7063 110.468 98.297 108.737 97.4646 106.712C96.6322 104.687 96.414 102.458 96.8377 100.307C97.2613 98.1566 98.3077 96.1812 99.8446 94.6305C101.381 93.0799 103.34 92.0238 105.472 91.5958C107.604 91.1678 109.814 91.3871 111.822 92.2259C113.831 93.0648 115.547 94.4856 116.755 96.3085C117.963 98.1315 118.607 100.275 118.607 102.467C118.604 105.406 117.446 108.223 115.386 110.301C113.327 112.379 110.534 113.548 107.621 113.552ZM107.621 94.6378C106.086 94.6393 104.586 95.0998 103.31 95.961C102.035 96.8223 101.041 98.0456 100.455 99.4764C99.8682 100.907 99.7156 102.481 100.016 103.999C100.316 105.518 101.056 106.912 102.142 108.006C103.228 109.101 104.611 109.846 106.117 110.147C107.623 110.448 109.183 110.293 110.601 109.7C112.019 109.107 113.231 108.104 114.084 106.816C114.936 105.529 115.391 104.016 115.391 102.467C115.388 100.39 114.568 98.3995 113.112 96.9317C111.655 95.4638 109.68 94.6388 107.621 94.6378Z" fill="#2E3646" stroke="#2E3646" stroke-width="1.1309" stroke-miterlimit="10"/>
<path d="M111.899 112.678L110.644 109.683C112.293 108.979 113.649 107.721 114.484 106.123C115.319 104.525 115.581 102.686 115.225 100.916C114.87 99.1457 113.919 97.5539 112.533 96.4099C111.148 95.2658 109.413 94.6398 107.622 94.6378V91.3825C110.158 91.3828 112.616 92.2675 114.579 93.8867C116.542 95.5059 117.889 97.76 118.392 100.267C118.896 102.773 118.524 105.379 117.341 107.641C116.157 109.903 114.235 111.682 111.899 112.678Z" fill="#008D91" stroke="#2E3646" stroke-width="1.1309" stroke-miterlimit="10"/>
<path d="M134.725 113.552C132.551 113.552 130.426 112.902 128.619 111.684C126.811 110.466 125.403 108.735 124.571 106.709C123.739 104.684 123.521 102.455 123.946 100.305C124.37 98.1546 125.416 96.1794 126.953 94.6292C128.49 93.0789 130.449 92.0232 132.581 91.5955C134.712 91.1678 136.922 91.3873 138.93 92.2263C140.939 93.0653 142.655 94.486 143.863 96.3089C145.07 98.1318 145.715 100.275 145.715 102.467C145.712 105.406 144.553 108.224 142.493 110.302C140.432 112.38 137.639 113.549 134.725 113.552ZM134.725 94.6378C133.189 94.6378 131.688 95.097 130.412 95.9573C129.135 96.8176 128.14 98.0404 127.553 99.4711C126.965 100.902 126.812 102.476 127.111 103.995C127.411 105.514 128.15 106.909 129.236 108.004C130.321 109.099 131.704 109.844 133.21 110.146C134.716 110.449 136.277 110.293 137.695 109.701C139.114 109.108 140.326 108.105 141.179 106.817C142.032 105.53 142.487 104.016 142.487 102.467C142.485 100.391 141.667 98.4011 140.211 96.9333C138.756 95.4654 136.783 94.6398 134.725 94.6378Z" fill="#2E3646" stroke="#2E3646" stroke-width="1.1309" stroke-miterlimit="10"/>
<path d="M142.336 100.907C141.975 99.14 141.022 97.5524 139.638 96.4107C138.253 95.2691 136.521 94.643 134.732 94.6378V91.3825C137.265 91.389 139.719 92.275 141.68 93.8916C143.642 95.5081 144.991 97.7566 145.502 100.259L142.336 100.907Z" fill="#008D91" stroke="#2E3646" stroke-width="1.1309" stroke-miterlimit="10"/>
<path d="M84.9004 79.1088H136.514" stroke="#2E3646" stroke-width="1.1309" stroke-miterlimit="10"/>
<path d="M84.9004 79.1089V78.0008" stroke="#2E3646" stroke-width="1.1309" stroke-miterlimit="10"/>
<path d="M95.2207 79.1089V78.0008" stroke="#2E3646" stroke-width="1.1309" stroke-miterlimit="10"/>
<path d="M105.547 79.1089V78.0008" stroke="#2E3646" stroke-width="1.1309" stroke-miterlimit="10"/>
<path d="M115.868 79.1089V78.0008" stroke="#2E3646" stroke-width="1.1309" stroke-miterlimit="10"/>
<path d="M126.191 79.1089V78.0008" stroke="#2E3646" stroke-width="1.1309" stroke-miterlimit="10"/>
<path d="M136.515 79.1089V78.0008" stroke="#2E3646" stroke-width="1.1309" stroke-miterlimit="10"/>
<path d="M93.7767 64.3124H86.3447V73.1887H93.7767V64.3124Z" fill="#008D91" stroke="#2E3646" stroke-width="1.1309" stroke-miterlimit="10"/>
<path d="M104.097 53.9564H96.665V74.669H104.097V53.9564Z" fill="#008D91" stroke="#2E3646" stroke-width="1.1309" stroke-miterlimit="10"/>
<path d="M114.423 39.459H106.991V62.5412H114.423V39.459Z" fill="#008D91" stroke="#2E3646" stroke-width="1.1309" stroke-miterlimit="10"/>
<path d="M124.745 61.061H117.312V65.501H124.745V61.061Z" fill="#008D91" stroke="#2E3646" stroke-width="1.1309" stroke-miterlimit="10"/>
<path d="M135.065 58.3964H127.633V69.9375H135.065V58.3964Z" fill="#008D91" stroke="#2E3646" stroke-width="1.1309" stroke-miterlimit="10"/>
<path d="M93.7767 73.1926H86.3447V79.1127H93.7767V73.1926Z" fill="#2E3646" stroke="#2E3646" stroke-width="1.1309" stroke-miterlimit="10"/>
<path d="M104.097 74.6725H96.665V79.1125H104.097V74.6725Z" fill="#2E3646" stroke="#2E3646" stroke-width="1.1309" stroke-miterlimit="10"/>
<path d="M114.423 62.5371H106.991V79.1087H114.423V62.5371Z" fill="#2E3646" stroke="#2E3646" stroke-width="1.1309" stroke-miterlimit="10"/>
<path d="M124.745 65.4972H117.312V79.1088H124.745V65.4972Z" fill="#2E3646" stroke="#2E3646" stroke-width="1.1309" stroke-miterlimit="10"/>
<path d="M135.065 69.9373H127.633V79.1088H135.065V69.9373Z" fill="#2E3646" stroke="#2E3646" stroke-width="1.1309" stroke-miterlimit="10"/>
<path d="M150.263 35.2681C150.174 35.2687 150.086 35.247 150.007 35.2048C149.928 35.1627 149.861 35.1014 149.811 35.0265L133.822 11.5072L117.6 28.9531L101.037 18.0638L85.0137 21.8137L68.7393 35.1454C68.6263 35.2379 68.4816 35.2814 68.3369 35.2663C68.1921 35.2512 68.0593 35.1788 67.9675 35.0649C67.8758 34.951 67.8327 34.805 67.8476 34.659C67.8626 34.5131 67.9345 34.3791 68.0474 34.2865L84.5194 20.7938L101.246 16.879L117.433 27.5229L133.958 9.74731L150.716 34.4016C150.772 34.4843 150.806 34.5811 150.812 34.6816C150.818 34.782 150.797 34.8823 150.751 34.9715C150.705 35.0607 150.635 35.1355 150.55 35.1878C150.465 35.2401 150.367 35.2678 150.267 35.2681H150.263Z" fill="#2E3646"/>
<path d="M69.77 34.7159C69.77 34.9867 69.6904 35.2513 69.5412 35.4764C69.3921 35.7015 69.1802 35.877 68.9322 35.9806C68.6842 36.0842 68.4113 36.1113 68.148 36.0585C67.8848 36.0056 67.643 35.8753 67.4532 35.6838C67.2634 35.4924 67.1341 35.2485 67.0817 34.983C67.0294 34.7175 67.0562 34.4422 67.159 34.1921C67.2617 33.942 67.4356 33.7282 67.6588 33.5778C67.882 33.4274 68.1444 33.3471 68.4128 33.3471C68.7727 33.3471 69.1179 33.4913 69.3725 33.748C69.627 34.0047 69.77 34.3529 69.77 34.7159Z" fill="#008D91"/>
<path d="M84.7683 22.6725C85.5178 22.6725 86.1254 22.0596 86.1254 21.3036C86.1254 20.5477 85.5178 19.9348 84.7683 19.9348C84.0188 19.9348 83.4111 20.5477 83.4111 21.3036C83.4111 22.0596 84.0188 22.6725 84.7683 22.6725Z" fill="#008D91"/>
<path d="M101.14 18.8384C101.89 18.8384 102.497 18.2255 102.497 17.4695C102.497 16.7136 101.89 16.1007 101.14 16.1007C100.391 16.1007 99.7832 16.7136 99.7832 17.4695C99.7832 18.2255 100.391 18.8384 101.14 18.8384Z" fill="#008D91"/>
<path d="M117.515 29.605C118.265 29.605 118.873 28.9921 118.873 28.2361C118.873 27.4802 118.265 26.8673 117.515 26.8673C116.766 26.8673 116.158 27.4802 116.158 28.2361C116.158 28.9921 116.766 29.605 117.515 29.605Z" fill="#008D91"/>
<path d="M135.244 10.6293C135.244 10.9001 135.164 11.1647 135.015 11.3898C134.866 11.6149 134.654 11.7904 134.406 11.894C134.158 11.9976 133.885 12.0247 133.622 11.9719C133.358 11.919 133.117 11.7887 132.927 11.5972C132.737 11.4058 132.608 11.1619 132.555 10.8964C132.503 10.6308 132.53 10.3556 132.633 10.1055C132.735 9.85538 132.909 9.6416 133.132 9.49119C133.356 9.34078 133.618 9.2605 133.886 9.2605C134.246 9.2605 134.592 9.40471 134.846 9.66142C135.101 9.91812 135.244 10.2663 135.244 10.6293Z" fill="#008D91"/>
<path d="M151.616 34.7159C151.616 34.9867 151.536 35.2513 151.387 35.4764C151.238 35.7015 151.026 35.877 150.778 35.9806C150.53 36.0842 150.257 36.1113 149.994 36.0585C149.73 36.0056 149.489 35.8753 149.299 35.6838C149.109 35.4924 148.98 35.2485 148.927 34.983C148.875 34.7175 148.902 34.4422 149.005 34.1921C149.107 33.942 149.281 33.7282 149.505 33.5778C149.728 33.4274 149.99 33.3471 150.259 33.3471C150.618 33.3471 150.964 33.4913 151.218 33.748C151.473 34.0047 151.616 34.3529 151.616 34.7159Z" fill="#008D91"/>
<path d="M179.527 165.18C194.018 165.18 205.765 163.589 205.765 161.626C205.765 159.663 194.018 158.072 179.527 158.072C165.036 158.072 153.289 159.663 153.289 161.626C153.289 163.589 165.036 165.18 179.527 165.18Z" fill="#008D91"/>
<path opacity="0.7" d="M179.527 165.18C194.018 165.18 205.765 163.589 205.765 161.626C205.765 159.663 194.018 158.072 179.527 158.072C165.036 158.072 153.289 159.663 153.289 161.626C153.289 163.589 165.036 165.18 179.527 165.18Z" fill="white"/>
<path d="M35.7765 165.18C49.1484 165.18 59.9885 163.589 59.9885 161.626C59.9885 159.663 49.1484 158.072 35.7765 158.072C22.4045 158.072 11.5645 159.663 11.5645 161.626C11.5645 163.589 22.4045 165.18 35.7765 165.18Z" fill="#008D91"/>
<path opacity="0.7" d="M35.7765 165.18C49.1484 165.18 59.9885 163.589 59.9885 161.626C59.9885 159.663 49.1484 158.072 35.7765 158.072C22.4045 158.072 11.5645 159.663 11.5645 161.626C11.5645 163.589 22.4045 165.18 35.7765 165.18Z" fill="white"/>
<path d="M172.122 36.4111C172.122 36.4111 182.09 35.4372 182.66 37.1127C183.231 38.7883 183.04 42.6149 183.04 42.6149C183.543 42.7465 184.032 42.9223 184.504 43.1402C184.637 43.2706 186.112 44.2444 184.736 45.8433C184.377 46.2488 183.941 46.5785 183.455 46.8134C182.848 47.0843 182.271 47.4185 181.733 47.8103L179.733 50.0993L180.113 53.0479C180.113 53.0479 181.007 53.6997 182.098 55.9734C182.098 55.9734 184.675 57.5071 186.188 58.3775C187.432 59.0369 188.726 59.5959 190.058 60.0492C190.058 60.0492 190.75 60.2755 190.701 60.7777C190.651 61.28 187.256 72.6639 187.256 72.6639L185.47 78.4153C185.436 79.1221 185.344 79.8248 185.196 80.5165C184.941 81.7549 183.983 82.5678 182.991 82.3147L183.09 86.5324C183.09 86.5324 178.429 88.8828 170.742 88.484C170.742 88.484 167.123 88.1313 164.447 86.1337L164.398 76.2796L152.066 73.8717C152.066 73.8717 150.503 73.5381 151.305 72.1195C152.107 70.7008 154.803 67.1809 154.803 67.1809L163.466 56.491C163.466 56.491 164.063 55.7817 164.284 55.5555C164.504 55.3293 165.044 55.1721 167.184 54.9919C169.324 54.8116 171.723 54.3937 171.723 54.3937C171.723 54.3937 173.023 53.2664 173.21 53.2664C173.396 53.2664 173.434 51.5794 173.434 51.5794C172.776 51.1008 172.23 50.4842 171.831 49.7719C171.433 49.0597 171.192 48.2688 171.126 47.4537C170.94 44.7161 172.13 38.3014 172.13 38.3014L172.122 36.4111Z" fill="white"/>
<path d="M164.602 86.0951C164.602 86.0951 163.553 101.816 163.553 109.338C163.553 116.861 164.02 122.954 164.252 128.237C164.484 133.521 163.553 137.16 164.366 141.032C165.18 144.905 167.046 156.178 167.046 156.178L169.24 157.512C169.24 157.512 169.62 148.544 170.418 145.376C171.217 142.209 171.468 128.824 171.939 124.714C172.41 120.603 173.92 106.049 173.92 106.049C173.92 106.049 179.74 121.309 181.142 127.298C182.545 133.287 187.312 146.784 188.365 150.07C189.418 153.356 191.042 158.225 191.042 158.225C191.535 158.37 192.053 158.41 192.562 158.34C192.782 158.322 192.994 158.248 193.178 158.125C193.361 158.001 193.511 157.833 193.612 157.635C193.612 157.635 192.064 147.804 191.384 143.026C190.544 137.117 189.175 128.237 188.343 124.951C187.51 121.665 186.248 116.497 186.248 114.031C186.248 111.566 183.108 86.8083 183.108 86.8083C183.108 86.8083 172.167 91.6126 164.602 86.0951Z" fill="#2E3646"/>
<path d="M173.912 106.049L169.244 100.558" stroke="white" stroke-width="0.565451" stroke-miterlimit="10" stroke-linecap="round"/>
<path d="M168.052 100.96L171.895 104.568" stroke="white" stroke-width="0.565451" stroke-miterlimit="10" stroke-linecap="round"/>
<path d="M176.267 101.363C177.251 98.8517 179.08 96.7695 181.433 95.4814" stroke="white" stroke-width="0.565451" stroke-miterlimit="10" stroke-linecap="round"/>
<path d="M181.693 88.1349C181.693 88.1349 181.165 90.1364 181.826 91.3403C182.488 92.5443 183.153 92.5443 183.153 92.5443C183.153 92.5443 184.343 99.0893 184.343 102.832C184.343 106.574 183.548 106.973 184.343 111.114C185.137 115.255 185.669 116.593 185.669 118.997C185.669 121.401 186.726 123.007 187.654 124.476C188.581 125.944 188.848 130.227 188.848 131.957C188.848 133.686 189.376 135.565 189.908 137.301C189.908 137.301 190.034 141.197 190.703 142.11C191.372 143.022 191.497 146.12 191.497 146.12" stroke="white" stroke-width="0.565451" stroke-miterlimit="10" stroke-linecap="round"/>
<path d="M172.952 105.504C172.952 105.504 173.215 108.571 172.287 113.92C171.359 119.269 170.698 120.734 170.565 126.88C170.432 133.026 170.964 134.096 170.698 137.302C170.432 140.507 168.843 145.572 168.843 147.873C168.843 150.173 169.086 157.527 169.086 157.527" stroke="white" stroke-width="0.565451" stroke-miterlimit="10" stroke-linecap="round"/>
<path d="M170.038 88.9364L170.304 90.0061L172.026 90.4049L171.76 89.0706" stroke="white" stroke-width="0.565451" stroke-miterlimit="10" stroke-linecap="round"/>
<path d="M172.033 90.4048C172.033 90.4048 175.211 90.2706 176.8 89.7376L176.42 88.6678" stroke="white" stroke-width="0.565451" stroke-miterlimit="10" stroke-linecap="round"/>
<path d="M177.854 88.3995L178.235 89.7376C178.235 89.7376 180.778 89.5919 181.158 89.2085" stroke="white" stroke-width="0.565451" stroke-miterlimit="10" stroke-linecap="round"/>
<path d="M170.304 90.006C169.426 89.9782 168.565 89.7487 167.787 89.335L166.594 88.6679L166.974 87.7323" stroke="white" stroke-width="0.565451" stroke-miterlimit="10" stroke-linecap="round"/>
<path d="M167.046 156.178C167.046 156.178 161.344 159.931 160.527 161.691C159.71 163.451 162.971 162.75 165.298 161.81C167.624 160.871 169.099 157.512 169.099 157.512L167.046 156.178Z" fill="white" stroke="#2E3646" stroke-width="1.1309" stroke-miterlimit="10" stroke-linecap="round"/>
<path d="M191.225 158.275C191.512 159.883 192.078 161.427 192.897 162.838C194.152 164.804 196.52 166.492 196.52 163.397C196.52 160.303 193.597 157.646 193.597 157.646C193.597 157.646 192.145 158.44 191.225 158.275Z" fill="white" stroke="#2E3646" stroke-width="1.1309" stroke-miterlimit="10" stroke-linecap="round"/>
<path d="M172.09 38.5351C172.09 38.5351 170.855 46.2649 171.273 48.1821C172.227 52.4726 175.576 52.2886 177.671 51.468C179.629 50.7012 181.583 47.9904 181.834 47.6338C181.851 47.6086 181.877 47.5898 181.906 47.5801C182.218 47.4919 184.153 46.8708 185.004 45.3639C185.935 43.719 184.191 43.0173 184.191 43.0173" fill="white"/>
<mask id="mask0_58_1589" style="mask-type:luminance" maskUnits="userSpaceOnUse" x="171" y="38" width="15" height="14">
<path d="M172.09 38.5348C172.09 38.5348 170.855 46.2646 171.273 48.1818C172.227 52.4723 175.576 52.2883 177.671 51.4677C179.629 50.7009 181.583 47.9901 181.834 47.6335C181.851 47.6083 181.877 47.5895 181.906 47.5798C182.218 47.4916 184.153 46.8705 185.004 45.3636C185.935 43.7187 184.191 43.017 184.191 43.017" fill="white"/>
</mask>
<g mask="url(#mask0_58_1589)">
<g style="mix-blend-mode:multiply" opacity="0.5">
<path d="M180.015 49.6234L181.863 47.5759C181.863 47.5759 184.049 46.8972 185.003 45.3443C185.562 44.4356 185.254 43.6419 184.916 43.4272C184.452 43.1741 183.973 42.95 183.482 42.7562L182.863 44.1327L182.334 44.2247C182.334 44.2247 182.555 42.8061 181.916 41.9664C181.278 41.1267 181.133 38.6957 181.133 38.6957C181.133 38.6957 180.24 43.5422 180.129 45.5706C180.101 46.6994 179.751 47.7961 179.122 48.73C179.122 48.73 179.236 49.9684 179.457 51.2069C179.483 51.3526 179.51 51.5712 179.536 51.8434L179.841 51.3526L180.008 51.8204C179.818 51.0152 179.73 50.1602 180.015 49.6234Z" fill="#008D91"/>
</g>
</g>
<path d="M172.09 38.5351C172.09 38.5351 170.855 46.2649 171.273 48.1821C172.227 52.4726 175.576 52.2886 177.671 51.468C179.629 50.7012 181.583 47.9904 181.834 47.6338C181.851 47.6086 181.877 47.5898 181.906 47.5801C182.218 47.4919 184.153 46.8708 185.004 45.3639C185.935 43.719 184.191 43.0173 184.191 43.0173" stroke="#2E3646" stroke-width="1.1309" stroke-miterlimit="10" stroke-linecap="round"/>
<path d="M176.82 42.465C176.748 42.7718 176.82 43.0478 176.961 43.0823C177.102 43.1168 177.292 42.9021 177.364 42.5992C177.436 42.2963 177.364 42.0202 177.223 41.9819C177.083 41.9436 176.893 42.1621 176.82 42.465Z" fill="#2E3646"/>
<path d="M173.553 41.6636C173.481 41.9704 173.553 42.2464 173.693 42.2809C173.834 42.3154 174.024 42.1007 174.096 41.7978C174.169 41.4949 174.096 41.215 173.956 41.1805C173.815 41.146 173.621 41.3569 173.553 41.6636Z" fill="#2E3646"/>
<path d="M178.845 41.1232C178.665 40.8044 178.409 40.536 178.101 40.3424C177.792 40.1489 177.44 40.0363 177.077 40.0151" stroke="#2E3646" stroke-width="1.1309" stroke-miterlimit="10" stroke-linecap="round"/>
<path d="M174.578 40.0725C174.278 39.9406 173.946 39.9037 173.626 39.9667C173.305 40.0297 173.011 40.1896 172.783 40.4252" stroke="#2E3646" stroke-width="1.1309" stroke-miterlimit="10" stroke-linecap="round"/>
<path d="M174.797 41.4682C174.805 41.9818 174.766 42.4951 174.683 43.0019C174.558 43.6422 174.064 43.7687 174.189 44.2634C174.315 44.758 174.949 44.8078 174.949 44.8078" stroke="#2E3646" stroke-width="1.1309" stroke-miterlimit="10" stroke-linecap="round"/>
<path d="M175.61 46.8058C175.879 46.8923 176.164 46.9189 176.444 46.8838C176.724 46.8487 176.994 46.7528 177.234 46.6026" stroke="#2E3646" stroke-width="1.1309" stroke-miterlimit="10" stroke-linecap="round"/>
<path d="M181.632 33.1363C181.632 33.1363 179.073 30.9048 176.629 30.9048C174.185 30.9048 172.204 32.3158 170.691 32.4385C169.178 32.5612 168.133 31.1463 167.201 33.0251C166.27 34.9039 169.763 38.0748 172.09 38.5426C174.417 39.0104 177.674 38.3087 178.606 38.1899C179.498 38.1282 180.394 38.1282 181.286 38.1899C181.286 38.1899 180.586 40.4214 181.286 41.1269C181.985 41.8324 182.099 42.3002 182.099 42.768C182.139 43.2842 182.217 43.7969 182.331 44.3017L183.031 44.5394L183.381 43.2472C184.324 42.2322 184.969 40.9723 185.243 39.6085C185.589 37.4959 183.844 35.3909 183.844 35.3909L181.632 33.1363Z" fill="#2E3646"/>
<path d="M171.831 37.5802C171.831 37.5802 175.811 38.347 178.929 37.0396C182.046 35.7321 179.358 33.1363 179.358 33.1363" stroke="white" stroke-width="0.565451" stroke-miterlimit="10" stroke-linecap="round"/>
<path d="M180.016 32.9181C180.339 32.9181 183.026 34.9771 182.487 36.4954C181.947 38.0138 180.875 38.125 180.875 38.125" stroke="white" stroke-width="0.565451" stroke-miterlimit="10" stroke-linecap="round"/>
<path d="M179.575 79.4924L176.214 77.7056C175.35 77.6574 174.492 77.5447 173.644 77.3682C172.861 77.142 164.825 76.3675 164.825 76.3675L164.703 78.2846C164.703 78.2846 173.869 79.5269 175.766 79.7531C177.663 79.9794 179.343 80.8804 179.677 81.444C180.012 82.0077 180.685 82.5713 180.35 84.128C180.016 85.6847 177.78 87.9623 177.78 87.9623C177.674 87.8012 183.156 87.4025 183.103 86.812C182.985 85.6387 182.365 82.2109 182.365 82.2109L179.575 79.4924Z" fill="#008D91"/>
<path opacity="0.5" d="M179.575 79.4924L176.214 77.7056C175.35 77.6574 174.492 77.5447 173.644 77.3682C172.861 77.142 164.825 76.3675 164.825 76.3675L164.703 78.2846C164.703 78.2846 173.869 79.5269 175.766 79.7531C177.663 79.9794 179.343 80.8804 179.677 81.444C180.012 82.0077 180.685 82.5713 180.35 84.128C180.016 85.6847 177.78 87.9623 177.78 87.9623C177.693 87.7897 183.167 87.3986 183.103 86.812C182.924 85.3166 182.365 82.2109 182.365 82.2109L179.575 79.4924Z" fill="white"/>
<path d="M190.66 60.7352C190.363 59.3318 188.151 59.5197 186.816 58.7414C185.482 57.963 182.254 56.1609 182.254 56.1609L180.692 53.7913C180.41 53.1525 180.182 52.4906 180.011 51.8129L179.844 51.3451L179.54 51.8359C179.734 53.937 179.92 59.3165 179.92 59.3165L180.589 62.6983C180.589 62.6983 183.163 73.856 183.832 76.3367C184.501 78.8175 184.501 80.5046 184.056 81.2944C183.611 82.0843 183.76 82.4447 183.76 82.4447C183.76 82.4447 185.505 81.0835 185.398 79.7339C185.258 78.1465 190.869 61.6861 190.66 60.7352Z" fill="#008D91"/>
<path opacity="0.5" d="M190.66 60.7352C190.507 59.3088 188.151 59.5197 186.816 58.7414C185.482 57.963 182.254 56.1609 182.254 56.1609L180.692 53.7913C180.41 53.1525 180.182 52.4906 180.011 51.8129L179.844 51.3451L179.54 51.8359C179.734 53.937 179.92 59.3165 179.92 59.3165L180.589 62.6983C180.589 62.6983 183.163 73.856 183.832 76.3367C184.501 78.8175 184.501 80.5046 184.056 81.2944C183.611 82.0843 183.76 82.4447 183.76 82.4447C183.76 82.4447 185.554 81.0797 185.398 79.7339C185.22 78.2884 190.796 61.92 190.66 60.7352Z" fill="white"/>
<path d="M180.895 59.3283C180.895 59.3283 180.195 52.9903 179.845 51.3454C179.496 49.7005 179.731 48.765 178.218 48.765C176.705 48.765 174.843 48.5272 175.177 49.3516C175.512 50.176 177.838 49.4666 178.218 49.8194C178.598 50.1721 178.332 50.9927 178.332 50.9927C178.332 50.9927 175.291 51.2304 175.291 52.0509C175.291 52.8714 175.409 55.1183 175.991 55.3369C176.572 55.5554 176.804 54.2824 176.804 54.2824C176.804 54.2824 176.922 56.9664 177.504 57.9212C177.874 58.5108 178.303 59.0607 178.785 59.5622L180.895 59.3283Z" fill="white" stroke="#2E3646" stroke-width="1.1309" stroke-miterlimit="10" stroke-linecap="round"/>
<path d="M178.8 61.0882C178.8 61.0882 178.45 75.6584 179.031 77.9934C179.613 80.3285 182.757 83.5109 184.384 81.9849C186.011 80.4589 185.201 77.1729 185.201 75.6469C185.201 74.1209 181.476 62.852 181.476 62.0276C181.42 61.3431 181.263 60.6709 181.008 60.0338" stroke="#2E3646" stroke-width="1.1309" stroke-miterlimit="10" stroke-linecap="round"/>
<path d="M179.03 62.8519L181.357 62.6141" stroke="#2E3646" stroke-width="1.1309" stroke-miterlimit="10" stroke-linecap="round"/>
<path d="M164.153 70.1369L164.602 57.1733C164.602 57.1733 164.043 56.8358 163.819 58.0743C163.594 59.3128 163.484 61.7974 163.484 61.7974C163.484 61.7974 160.8 60.1065 161.473 61.1187C162.146 62.131 163.26 64.3893 163.26 64.3893L159.108 68.5572L161.009 69.347L164.153 70.1369Z" fill="#008D91"/>
<path opacity="0.5" d="M164.153 70.1369L164.602 57.1733C164.602 57.1733 164.043 56.8358 163.819 58.0743C163.594 59.3128 163.484 61.7974 163.484 61.7974C163.484 61.7974 160.8 60.1065 161.473 61.1187C162.146 62.131 163.26 64.3893 163.26 64.3893L159.108 68.5572L161.009 69.347L164.153 70.1369Z" fill="white"/>
<path d="M169.717 60.0683C169.717 60.0683 169.505 60.8351 170.398 60.8351C171.291 60.8351 172.861 60.1948 172.861 60.1948L172.747 58.9218C172.747 58.9218 170.599 59.9762 169.717 60.0683Z" fill="#008D91"/>
<path opacity="0.5" d="M169.717 60.0683C169.717 60.0683 169.505 60.8351 170.398 60.8351C171.291 60.8351 172.861 60.1948 172.861 60.1948L172.747 58.9218C172.747 58.9218 170.599 59.9762 169.717 60.0683Z" fill="white"/>
<path d="M173.554 51.4949C173.554 51.4949 172.391 58.3965 173.09 59.9302C173.79 61.4639 174.835 61.1035 175.648 60.4018C176.462 59.7002 177.511 57.9364 177.511 57.9364" stroke="#2E3646" stroke-width="1.1309" stroke-miterlimit="10" stroke-linecap="round"/>
<path d="M164.366 76.4673L164.602 86.0951C164.602 86.0951 167.263 88.6755 172.399 88.6755C177.535 88.6755 183.108 86.7968 183.108 86.7968V83.3919" stroke="#2E3646" stroke-width="1.1309" stroke-miterlimit="10" stroke-linecap="round"/>
<path d="M180.082 52.8714C180.082 52.8714 182.177 54.9841 182.177 56.9817C182.177 58.9794 181.827 59.4471 181.827 59.4471" stroke="#2E3646" stroke-width="1.1309" stroke-miterlimit="10" stroke-linecap="round"/>
<path d="M181.941 55.8082C181.941 55.8082 185.085 57.6831 186.83 58.7414C188.575 59.7996 190.674 59.7958 190.674 60.7352C190.674 61.6746 185.785 77.6404 185.785 77.6404" stroke="#2E3646" stroke-width="1.1309" stroke-miterlimit="10" stroke-linecap="round"/>
<path d="M183.921 61.0881L182.758 65.7851" stroke="#2E3646" stroke-width="1.1309" stroke-miterlimit="10" stroke-linecap="round"/>
<path d="M164.396 63.8451L162.515 59.8652" stroke="#2E3646" stroke-width="0.565451" stroke-miterlimit="10" stroke-linecap="round"/>
<path d="M164.395 64.9839L161.574 63.2776" stroke="#2E3646" stroke-width="0.565451" stroke-miterlimit="10" stroke-linecap="round"/>
<path d="M173.6 73.8867L173.037 76.7317" stroke="#2E3646" stroke-width="0.565451" stroke-miterlimit="10" stroke-linecap="round"/>
<path d="M188.817 60.624C188.817 60.624 186 61.1915 183.369 64.4123" stroke="#2E3646" stroke-width="0.565451" stroke-miterlimit="10" stroke-linecap="round"/>
<path d="M186.94 60.4516C186.94 60.4516 186.18 60.2599 183.561 62.5336" stroke="#2E3646" stroke-width="0.565451" stroke-miterlimit="10" stroke-linecap="round"/>
<path d="M173.598 61.3835L172.473 70.2867L173.412 70.4784L174.164 67.6372" stroke="#2E3646" stroke-width="0.565451" stroke-miterlimit="10" stroke-linecap="round"/>
<path d="M174.351 84.6878C170.967 87.5328 166.272 87.3411 166.272 87.3411" stroke="#2E3646" stroke-width="0.565451" stroke-miterlimit="10" stroke-linecap="round"/>
<path d="M160.054 69.2244C160.054 69.2244 157.754 67.1002 154.496 69.8034" stroke="#2E3646" stroke-width="0.565451" stroke-miterlimit="10" stroke-linecap="round"/>
<path d="M173.329 53.224C173.329 53.224 172.398 53.4579 171.349 55.1028C170.299 56.7477 169.022 59.562 169.954 59.7959C170.885 60.0298 172.615 58.9754 172.615 58.9754" stroke="#2E3646" stroke-width="1.1309" stroke-miterlimit="10" stroke-linecap="round"/>
<path d="M176.938 59.447L178.102 60.5014" stroke="#2E3646" stroke-width="1.1309" stroke-miterlimit="10" stroke-linecap="round"/>
<path d="M171.699 54.3976C171.699 54.3976 167.392 54.9842 165.647 55.1031C163.902 55.2219 164.241 55.8699 163.67 56.2764C162.75 56.9244 152.197 70.4171 151.505 71.7092C150.814 73.0014 150.924 73.588 152.087 73.9408C153.25 74.2935 164.837 76.3487 164.837 76.3487L175.075 77.4069L175.889 74.8226C175.889 74.8226 178.268 75.1409 178.686 75.1409" stroke="#2E3646" stroke-width="1.1309" stroke-miterlimit="10" stroke-linecap="round"/>
<path d="M174.725 73.8716C172.465 73.2105 170.281 72.3109 168.209 71.1876" stroke="#2E3646" stroke-width="1.1309" stroke-miterlimit="10" stroke-linecap="round"/>
<path d="M167.278 70.9496C167.278 70.9496 163.857 69.669 162.006 69.4351C160.154 69.2012 157.318 69.1245 157.318 69.1245" stroke="#2E3646" stroke-width="1.1309" stroke-miterlimit="10" stroke-linecap="round"/>
<path d="M164.134 69.4239L164.484 60.1488" stroke="#2E3646" stroke-width="1.1309" stroke-miterlimit="10" stroke-linecap="round"/>
<path d="M175.074 77.4068C175.873 77.8118 176.71 78.1355 177.572 78.373" stroke="#2E3646" stroke-width="1.1309" stroke-miterlimit="10" stroke-linecap="round"/>
<path d="M22.7571 69.9338L24.1294 62.3688L32.8159 58.9179C32.8159 58.9179 33.2379 56.5676 33.6637 56.464C34.0895 56.3605 34.5076 55.3943 34.5076 55.3943L34.2985 53.458C34.2985 53.458 35.0931 50.3906 39.0885 52.7793C39.0885 52.7793 37.8796 53.5922 38.0887 53.9296C38.2978 54.267 37.8568 55.3406 38.3852 55.3406C38.9136 55.3406 39.9818 56.0193 40.5217 56.5676C40.8995 56.977 41.2333 57.4255 41.5177 57.9057L46.0149 58.1664C46.4759 58.1703 46.9345 58.2335 47.3796 58.3543C47.4557 56.1381 47.1858 54.4472 46.6535 53.1321C44.7186 48.3853 41.1907 46.6905 40.6851 44.3133C40.1795 41.9361 40.4342 41.6868 40.4342 41.6868C40.9483 41.1596 41.3247 40.512 41.5297 39.802C41.7347 39.092 41.7619 38.3419 41.6089 37.6187C41.1071 35.0766 39.1721 33.2936 32.1963 32.9562C25.2205 32.6188 26.2317 37.4461 26.2317 37.4461L26.3153 37.7836C26.3153 37.7836 21.8599 39.3173 22.7038 44.9881C23.5478 50.659 25.9808 53.1244 25.8971 54.9035C25.8135 56.6826 23.2057 57.3612 19.5068 61.4217C15.8079 65.4822 15.0552 71.5902 16.5682 75.5739C17.3285 77.5332 18.8149 79.1666 20.6814 80.3859L22.7571 69.9338Z" fill="#2E3646"/>
<path d="M28.5803 70.6816V72.3917L25.3604 82.4259C27.3724 82.9629 29.4824 83.0075 31.515 82.5563C32.6624 82.2547 33.7591 81.783 34.7692 81.1568L28.5803 70.6816Z" fill="#2E3646"/>
<path d="M37.8372 53.8685L38.2173 55.5939C38.2173 55.5939 39.3578 54.4436 41.5855 57.9366C41.5855 57.9366 46.2158 57.8254 47.4779 58.4619C47.4779 58.4619 47.7402 58.5386 48.5955 59.455C49.4509 60.3714 52.667 63.2892 52.667 63.2892C52.667 63.2892 56.7955 67.1542 57.206 67.4532C57.6166 67.7523 59.1562 69.2362 60.3081 69.7538L63.3949 62.6643L64.7711 59.1559L65.5314 56.2687H65.7747L65.8279 53.9413L65.6416 51.1653C65.672 51.0242 65.7359 50.8926 65.8279 50.7819C66.1467 50.3364 66.3919 49.8417 66.554 49.3172C66.554 49.0565 66.2917 47.5151 66.2917 47.5151C66.2917 47.5151 66.1625 47.1317 66.4438 47.0857C66.7251 47.0397 67.7629 47.4039 67.8922 48.1363L68.2723 48.0059C68.5871 47.2473 68.9795 46.5238 69.4432 45.8472C70.059 45.042 70.6901 44.5359 71.0817 44.7966C71.1891 44.8714 71.2665 44.9824 71.3 45.1096C71.3335 45.2369 71.3207 45.372 71.2641 45.4906L70.04 47.7605C70.04 47.7605 69.5002 48.4929 70.1693 48.7536C70.1693 48.7536 71.6177 49.693 71.7127 50.5173C71.8077 51.3417 71.2831 52.051 70.8193 52.6569C70.3556 53.2627 69.5382 54.574 69.5382 54.574L68.5878 55.4214L68.2077 56.8822L68.6563 57.4458L67.9872 60.3714L67.5044 62.5646L67.2611 63.8951L65.7405 69.148L64.2199 73.7261C64.2199 73.7261 63.4368 76.3487 61.5398 76.2759C59.6428 76.203 57.5634 75.1678 56.8905 74.8303C56.2176 74.4929 50.6712 71.5712 50.6712 71.5712L49.5307 71.0268C49.6829 71.5504 49.7484 72.0958 49.7246 72.641C49.7056 73.6532 48.626 75.8848 48.3104 76.3909L48.1241 80.3478C48.0505 81.0343 48.0633 81.7274 48.1622 82.4107C48.3294 83.4421 49.1848 89.2778 49.3711 90.0063C49.3711 90.0063 47.5235 91.6934 42.0189 92.4947C36.5142 93.2961 33.9368 91.9963 33.9368 91.9963L31.4848 90.5431L34.507 84.5195C34.507 84.5195 35.2673 82.7289 35.1913 82.2573C35.1153 81.7857 33.8152 79.7535 33.8152 79.7535L29.0442 71.1878L28.8199 71.2645L28.0786 73.7644L25.3985 82.2419L21.8707 92.8245C21.8707 92.8245 20.9051 95.5085 20.506 96.3022L19.3921 99.7261C19.454 100.338 19.6038 100.937 19.8369 101.505L17.0352 99.6763L17.5332 96.9923L18.1528 92.9894L18.9131 88.6375L19.5822 85.0371L20.6504 80.2366L21.0306 78.91L21.7909 75.1601L23.129 68.3581L24.2695 62.5339L32.2527 59.3323L32.7507 58.9489C32.8615 58.2076 33.1313 57.4997 33.5414 56.8745C33.8261 56.4632 34.165 56.093 34.5489 55.7741C34.5489 55.7741 34.5108 55.2718 34.4842 54.7964C34.4576 54.3209 34.336 53.4467 34.336 53.4467C34.336 53.4467 36.8032 54.5165 37.8372 53.8685Z" fill="white"/>
<path d="M27.1426 38.4585C27.1426 38.4585 28.6214 35.1572 31.579 35.1572C34.5366 35.1572 40.6609 41.016 40.6609 41.016" stroke="white" stroke-width="0.565451" stroke-miterlimit="10" stroke-linecap="round"/>
<path d="M28.4102 38.9799C28.4102 38.9799 30.2045 37.0628 32.4246 37.8066C34.6447 38.5504 34.9602 41.2153 34.9602 41.2153" stroke="white" stroke-width="0.565451" stroke-miterlimit="10" stroke-linecap="round"/>
<path d="M26.9308 39.3097C26.9308 39.3097 24.2925 40.8012 24.0796 43.5734C23.8668 46.3455 27.7747 49.643 28.3032 53.3737C28.8316 57.1045 26.0869 57.9518 21.6505 61.0422C17.2141 64.1326 17.9554 71.0535 18.9058 72.545" stroke="white" stroke-width="0.565451" stroke-miterlimit="10" stroke-linecap="round"/>
<path d="M19.4336 73.3999C19.4336 73.3999 20.0647 74.7841 21.015 75.2097" stroke="white" stroke-width="0.565451" stroke-miterlimit="10" stroke-linecap="round"/>
<path d="M27.2503 46.5526C27.1254 46.8232 27.0693 47.1209 27.0873 47.4189C27.1052 47.7168 27.1965 48.0055 27.353 48.2589C27.8814 49.2174 31.9148 54.0102 31.5803 56.2494C31.2457 58.4886 29.1511 59.869 29.1511 59.869" stroke="white" stroke-width="0.565451" stroke-miterlimit="10" stroke-linecap="round"/>
<path d="M29.2558 39.3097C29.2558 39.3097 26.8266 40.3756 26.9331 42.8257C27.0395 45.2758 27.5679 45.9161 27.5679 45.9161" stroke="white" stroke-width="0.565451" stroke-miterlimit="10" stroke-linecap="round"/>
<path d="M40.6621 47.4154C41.4169 49.1388 42.4526 50.7226 43.7262 52.1009C45.6269 54.018 45.836 56.7901 45.836 56.7901" stroke="white" stroke-width="0.565451" stroke-miterlimit="10" stroke-linecap="round"/>
<path d="M42.8779 53.4775C42.8779 53.4775 43.8283 55.7167 43.8283 57.1009" stroke="white" stroke-width="0.565451" stroke-miterlimit="10" stroke-linecap="round"/>
<path d="M37.6197 54.0719L34.6355 56.7827C34.6355 56.7827 34.3162 57.6032 33.7156 58.9184C33.1149 60.2335 33.2138 62.7526 33.2138 62.7526L35.0537 66.445C35.0537 66.445 31.5145 62.35 31.313 61.8439C31.1115 61.3378 27.4088 62.2503 26.7093 62.5532C26.0098 62.8561 25.1051 63.4619 25.3066 64.3707C25.508 65.2794 26.409 66.4872 26.006 66.6904C25.6031 66.8936 24.5044 66.3875 24.5044 66.9933C24.5044 67.5991 25.8084 69.9227 25.2077 70.7278C24.6071 71.533 20.8017 84.5618 20.8017 84.5618C20.8017 84.5618 23.2043 82.5412 22.6037 83.3502C22.003 84.1592 19.1024 90.7196 19.1024 90.7196L18 94.5539L20.6041 80.927L22.8051 69.4242L24.1281 62.3692C25.4054 61.9397 32.8146 58.9184 32.8146 58.9184C32.8146 58.9184 33.4 56.4338 34.5063 55.3947L34.2972 53.4584C34.2972 53.4584 36.3158 54.1715 37.6197 54.0719Z" fill="#008D91"/>
<path opacity="0.5" d="M37.6197 54.0719L34.6355 56.7827C34.6355 56.7827 34.3162 57.6032 33.7156 58.9184C33.1149 60.2335 33.2138 62.7526 33.2138 62.7526L35.0537 66.445C35.0537 66.445 31.5145 62.35 31.313 61.8439C31.1115 61.3378 27.4088 62.2503 26.7093 62.5532C26.0098 62.8561 25.1051 63.4619 25.3066 64.3707C25.508 65.2794 26.409 66.4872 26.006 66.6904C25.6031 66.8936 24.5044 66.3875 24.5044 66.9933C24.5044 67.5991 25.8084 69.9227 25.2077 70.7278C24.6071 71.533 20.8017 84.5618 20.8017 84.5618C20.8017 84.5618 23.2043 82.5412 22.6037 83.3502C22.003 84.1592 19.1024 90.7196 19.1024 90.7196L18 94.5539L20.6041 80.927L22.8051 69.4242L24.1281 62.3692C25.4054 61.9397 32.8146 58.9184 32.8146 58.9184C32.8146 58.9184 32.9743 56.6178 34.5101 55.8126L34.2972 53.4584C34.2972 53.4584 36.3158 54.1715 37.6197 54.0719Z" fill="white"/>
<path d="M48.7305 67.6987C48.7305 67.6987 50.5324 64.6734 50.7339 65.3789C50.9354 66.0844 50.2321 68.5039 50.2321 68.5039C50.2321 68.5039 52.1328 67.7984 51.9352 68.4042C51.7375 69.01 51.3345 69.3129 51.4334 69.6158C51.5322 69.9187 58.0404 73.3503 58.8426 73.7529C59.6447 74.1555 61.5455 71.8358 62.4464 72.5413C63.3474 73.2468 62.4464 75.6662 60.6445 75.6701C58.8426 75.6739 53.6383 73.3695 53.6383 73.3695L49.5402 70.9654" fill="#008D91"/>
<path opacity="0.5" d="M48.7305 67.6987C48.7305 67.6987 50.5324 64.6734 50.7339 65.3789C50.9354 66.0844 50.2321 68.5039 50.2321 68.5039C50.2321 68.5039 52.1328 67.7984 51.9352 68.4042C51.7375 69.01 51.3345 69.3129 51.4334 69.6158C51.5322 69.9187 58.0404 73.3503 58.8426 73.7529C59.6447 74.1555 61.5455 71.8358 62.4464 72.5413C63.3474 73.2468 62.4464 75.6662 60.6445 75.6701C58.8426 75.6739 53.6383 73.3695 53.6383 73.3695L49.5554 70.9731" fill="white"/>
<path d="M37.9219 79.9146C37.9219 79.9146 49.623 73.6571 47.7222 75.9769C45.8215 78.2966 39.5223 80.9269 37.9219 79.9146Z" fill="#008D91"/>
<path opacity="0.5" d="M37.9219 79.9146C37.9219 79.9146 49.623 73.6571 47.7222 75.9769C45.8215 78.2966 39.5223 80.9269 37.9219 79.9146Z" fill="white"/>
<path d="M34.2979 53.4775C34.2979 53.4775 34.3815 55.0879 34.6362 56.7827C34.8909 58.4774 34.8035 58.4774 36.4001 60.5096C37.9967 62.5417 39.677 64.2403 39.9279 63.9029" stroke="#2E3646" stroke-width="1.1309" stroke-miterlimit="10" stroke-linecap="round"/>
<path d="M40.0119 63.3082C40.0119 63.3082 40.1792 60.3405 39.5937 58.3927C39.0083 56.4449 38.1643 55.7624 38.1643 55.3253C38.1359 54.8698 38.0801 54.4166 37.9971 53.968" stroke="#2E3646" stroke-width="1.1309" stroke-miterlimit="10" stroke-linecap="round"/>
<path d="M34.2997 55.9351C33.6282 56.5449 33.1585 57.3479 32.9539 58.2356C32.703 59.5891 32.4521 61.1995 32.4521 61.1995L35.0562 66.4562C35.2829 65.5409 35.6213 64.6574 36.0636 63.8259C36.2827 63.4156 36.5664 63.044 36.9037 62.7255" stroke="#2E3646" stroke-width="1.1309" stroke-miterlimit="10" stroke-linecap="round"/>
<path d="M40.6032 61.8668C40.7871 61.8204 40.9783 61.8114 41.1656 61.8404C41.3529 61.8693 41.5327 61.9357 41.6943 62.0355C42.3671 62.3768 43.7129 64.1559 43.7129 64.1559C43.7129 64.1559 42.7891 59.7465 41.1925 57.4613C39.5958 55.1761 38.501 55.3409 38.501 55.3409" stroke="#2E3646" stroke-width="1.1309" stroke-miterlimit="10" stroke-linecap="round"/>
<path d="M32.1951 59.2402L24.1283 62.3689C24.1283 62.3689 21.1897 78.5571 20.0948 82.8783C19 87.1995 17.1562 99.4078 17.1562 99.4078L19.3383 99.8296L20.0986 97.6287" stroke="#2E3646" stroke-width="1.0662" stroke-linecap="round" stroke-linejoin="round"/>
<path d="M20.5186 96.3635C20.5186 96.3635 21.0204 95.5967 22.3661 91.379C23.7118 87.1613 27.3081 76.8089 27.9125 74.7652C28.517 72.7216 29.0036 71.3757 29.0036 71.3757" stroke="#2E3646" stroke-width="1.1309" stroke-miterlimit="10" stroke-linecap="round"/>
<path d="M27.5742 68.8873C27.5742 68.8873 34.379 81.1569 34.9682 81.686C35.5575 82.2151 34.7173 83.6338 34.5462 84.3968" stroke="#2E3646" stroke-width="1.1309" stroke-miterlimit="10" stroke-linecap="round"/>
<path d="M33.7905 85.9381L31.6084 90.5162C31.6084 90.5162 33.0378 92.7209 39.086 92.7209C42.6854 92.7321 46.2333 91.8582 49.4224 90.175C49.4224 90.175 47.993 82.5487 48.0767 81.1913C48.1603 79.834 48.3314 76.2758 48.3314 76.2758C48.3314 76.2758 49.852 73.9753 49.6733 72.2077C49.4946 70.4401 48.7495 68.3926 48.7495 68.0552C48.7495 67.7178 48.5823 64.0714 48.5823 64.0714" stroke="#2E3646" stroke-width="1.1309" stroke-miterlimit="10" stroke-linecap="round"/>
<path d="M39.0762 78.404L45.0978 74.6771" stroke="#2E3646" stroke-width="0.565451" stroke-miterlimit="10" stroke-linecap="round"/>
<path d="M42.2471 77.2344L45.5202 75.3173" stroke="#2E3646" stroke-width="0.565451" stroke-miterlimit="10" stroke-linecap="round"/>
<path d="M60.265 69.8344L59.0371 72.8673" stroke="#2E3646" stroke-width="0.565451" stroke-miterlimit="10" stroke-linecap="round"/>
<path d="M59.7757 71.1609L58.6162 72.3342" stroke="#2E3646" stroke-width="0.565451" stroke-miterlimit="10" stroke-linecap="round"/>
<path d="M25.4528 81.9238C25.4528 81.9238 23.4456 84.2665 22.0732 85.2251" stroke="#2E3646" stroke-width="0.565451" stroke-miterlimit="10" stroke-linecap="round"/>
<path d="M24.2919 82.5602C24.2919 82.5602 20.8059 85.3285 19.9619 85.9688" stroke="#2E3646" stroke-width="0.565451" stroke-miterlimit="10" stroke-linecap="round"/>
<path d="M24.9121 62.8522C25.963 64.3509 26.9154 65.9173 27.7633 67.5415" stroke="#2E3646" stroke-width="0.565451" stroke-miterlimit="10" stroke-linecap="round"/>
<path d="M28.0938 68.2855L28.8312 69.5623" stroke="#2E3646" stroke-width="0.565451" stroke-miterlimit="10" stroke-linecap="round"/>
<path d="M48.752 68.0552L49.6757 63.3084" stroke="#2E3646" stroke-width="0.565451" stroke-miterlimit="10" stroke-linecap="round"/>
<path d="M49.0898 68.3929L50.5154 66.3607" stroke="#2E3646" stroke-width="0.565451" stroke-miterlimit="10" stroke-linecap="round"/>
<path d="M29.0041 71.3605L24.9707 69.1558" stroke="#2E3646" stroke-width="0.565451" stroke-miterlimit="10" stroke-linecap="round"/>
<path d="M39.8457 64.3244C39.8457 64.3244 41.3663 67.3918 41.8643 69.5812" stroke="#2E3646" stroke-width="0.565451" stroke-miterlimit="10" stroke-linecap="round"/>
<path d="M64.8027 58.9834C65.2049 58.9535 65.609 59.006 65.9905 59.1378C66.3721 59.2696 66.7232 59.4779 67.0228 59.7502" stroke="#2E3646" stroke-width="0.565451" stroke-miterlimit="10" stroke-linecap="round"/>
<path d="M18.6172 97.3029L19.6588 97.694" stroke="#2E3646" stroke-width="0.565451" stroke-miterlimit="10" stroke-linecap="round"/>
<path d="M17.1318 99.5614C17.1449 101.019 17.0687 102.476 16.9037 103.925C16.6528 105.708 16.7364 109.776 17.071 111.045C17.4055 112.314 17.5766 112.579 17.9111 111.812C18.2456 111.045 19.2569 106.559 19.2569 106.559C19.2569 106.559 19.4241 109.523 20.1806 109.27C20.9371 109.017 20.519 107.575 20.519 106.302C20.519 105.029 20.6026 104.607 20.519 103.591C20.4353 102.575 19.3139 100.064 19.3139 100.064" fill="white"/>
<path d="M17.1318 99.5614C17.1449 101.019 17.0687 102.476 16.9037 103.925C16.6528 105.708 16.7364 109.776 17.071 111.045C17.4055 112.314 17.5766 112.579 17.9111 111.812C18.2456 111.045 19.2569 106.559 19.2569 106.559C19.2569 106.559 19.4241 109.523 20.1806 109.27C20.9371 109.017 20.519 107.575 20.519 106.302C20.519 105.029 20.6026 104.607 20.519 103.591C20.4353 102.575 19.3139 100.064 19.3139 100.064" stroke="#2E3646" stroke-width="1.0662" stroke-miterlimit="10" stroke-linecap="round"/>
<path d="M65.7825 56.2037C65.7442 55.4539 65.7442 54.7027 65.7825 53.953C65.8509 53.2475 65.5734 52.193 65.6418 51.269C65.7102 50.3449 66.6188 50.0037 66.4781 48.8074C66.3375 47.6111 66.06 47.4693 66.2691 47.1894C66.4781 46.9095 67.7897 47.3274 67.8733 48.1019C67.9478 48.8989 67.9478 49.7013 67.8733 50.4983C67.8049 50.7092 68.2915 52.032 68.014 52.6071C67.855 52.9187 67.7374 53.25 67.6642 53.5926" stroke="#2E3646" stroke-width="0.939157" stroke-miterlimit="10" stroke-linecap="round"/>
<path d="M68.1562 48.0405C68.1562 48.0405 69.7605 44.8044 70.6691 44.7316C71.5776 44.6587 71.2963 45.4984 71.015 45.9278C70.7337 46.3573 69.8289 47.8987 69.7605 48.5351C69.6921 49.1716 68.8519 51.2766 68.8519 51.2766" stroke="#2E3646" stroke-width="0.939157" stroke-miterlimit="10" stroke-linecap="round"/>
<path d="M69.7691 48.5351C69.7691 48.5351 72.2135 50.0113 71.6699 51.2191C71.1263 52.4269 70.8297 52.91 70.4116 52.7528C70.0408 52.5617 69.7093 52.3015 69.4346 51.9859" stroke="#2E3646" stroke-width="0.939157" stroke-miterlimit="10" stroke-linecap="round"/>
<path d="M70.6663 52.7566C70.6663 52.7566 70.0353 53.811 69.5487 54.4475C69.2689 54.8151 68.9372 55.1393 68.5641 55.4099L68.2676 56.449" stroke="#2E3646" stroke-width="0.939157" stroke-miterlimit="10" stroke-linecap="round"/>
<path d="M41.3594 57.883C41.3594 57.883 47.1567 57.7986 47.9132 58.7303C48.6697 59.6621 57.8314 68.1396 58.9377 68.9026C60.0439 69.6656 60.2834 69.8343 60.2834 69.8343C60.2834 69.8343 64.8187 59.4819 64.8187 58.9834C64.8187 58.4849 65.579 56.1882 65.579 56.1882C65.579 56.1882 67.0084 56.3569 67.3467 56.3569C67.685 56.3569 68.605 57.4612 68.605 57.4612C68.605 57.4612 67.3467 62.6298 67.3467 63.2126C67.3467 63.7954 64.9936 71.8588 63.8987 74.3319C62.8039 76.805 61.2946 76.4484 58.8579 75.6854C56.4211 74.9224 49.7836 71.1111 49.7836 71.1111" stroke="#2E3646" stroke-width="1.1309" stroke-miterlimit="10" stroke-linecap="round"/>
<path d="M31.6116 90.5163C31.6116 90.5163 28.2472 99.0053 27.3387 104.784C26.4301 110.562 26.8179 124.074 26.5555 125.519C26.2932 126.965 22.6514 133.786 22.6514 137.068C22.6514 140.35 20.7012 157.278 20.7012 157.278L22.0013 158.064C22.0013 158.064 26.5631 143.878 28.2472 140.216C29.9313 136.554 32.2807 127.881 32.9307 126.175C33.5808 124.469 38.1388 110.819 38.3973 109.112C38.6558 107.406 40.2183 103.208 40.2183 103.208C40.2183 103.208 43.6016 124.074 44.2517 128.406C44.9018 132.739 49.456 156.228 49.456 156.228C49.7551 156.302 50.0607 156.345 50.3684 156.358C50.7485 156.358 50.8892 155.702 50.8892 155.702C50.8892 155.702 52.7101 139.035 52.1893 134.572C51.6685 130.109 50.1099 124.603 50.1099 123.023C50.1099 121.443 52.4516 107.801 52.4516 103.085C52.4516 98.3689 49.4104 90.1827 49.4104 90.1827C49.4104 90.1827 38.6178 95.6734 31.6116 90.5163Z" fill="#2E3646"/>
<path d="M50.0582 123.89C50.0582 123.89 48.8987 128.897 47.3135 131.558" stroke="white" stroke-width="0.565451" stroke-miterlimit="10" stroke-linecap="round"/>
<path d="M49.7437 129.005C49.7437 129.005 48.7933 132.624 46.8926 134.33" stroke="white" stroke-width="0.565451" stroke-miterlimit="10" stroke-linecap="round"/>
<path d="M27.25 127.406C27.25 127.406 27.9875 131.773 28.8314 133.583" stroke="white" stroke-width="0.565451" stroke-miterlimit="10" stroke-linecap="round"/>
<path d="M27.0371 129.963C27.0371 129.963 27.672 133.053 28.8314 134.863" stroke="white" stroke-width="0.565451" stroke-miterlimit="10" stroke-linecap="round"/>
<path d="M40.5537 103.227L44.7772 99.7108" stroke="white" stroke-width="0.565451" stroke-miterlimit="10" stroke-linecap="round"/>
<path d="M42.5625 101.735L47.5273 99.496" stroke="white" stroke-width="0.565451" stroke-miterlimit="10" stroke-linecap="round"/>
<path d="M31.6826 95.7692C31.6826 95.7692 34.9595 97.8972 36.8603 99.7108" stroke="white" stroke-width="0.565451" stroke-miterlimit="10" stroke-linecap="round"/>
<path d="M20.8365 157.267C20.8365 157.267 15.8945 161.484 15.8945 163.578C15.8945 165.671 17.8447 165.545 19.928 163.578C22.0112 161.611 22.1176 157.558 22.1176 157.558L20.8365 157.267Z" fill="white" stroke="#2E3646" stroke-width="1.1309" stroke-miterlimit="10" stroke-linecap="round"/>
<path d="M49.4551 156.228C49.4551 156.228 51.1468 160.426 52.9715 162.267C54.7962 164.107 55.8341 164.759 55.8341 162.788C55.8341 160.817 54.6632 158.59 50.8921 155.702C50.8883 155.702 51.9299 156.488 49.4551 156.228Z" fill="white" stroke="#2E3646" stroke-width="1.1309" stroke-miterlimit="10" stroke-linecap="round"/>
<path d="M31.9976 40.0152C31.6592 39.8887 31.3399 39.7353 31.0092 39.5935C30.6784 39.4516 30.074 39.3749 29.8459 40.4217C29.5076 41.9554 31.8607 43.2207 31.1042 44.4898C30.6336 45.2619 29.9262 45.8582 29.0894 46.1884C28.9532 46.2356 28.8112 46.264 28.6674 46.2727C27.9945 46.3571 26.9035 46.2727 27.238 47.4575C27.5726 48.6423 28.6674 49.6622 29.3403 49.6622H30.0132C30.0132 49.6622 30.7735 51.9628 33.6246 53.2204C36.4758 54.478 38.4146 54.409 39.0874 52.7986C39.7603 51.1882 40.2659 49.8309 40.2659 47.7106C40.2659 45.5902 39.5056 42.032 39.5056 42.032C39.5056 42.032 38.8327 42.9676 36.2287 41.779C34.5066 40.993 32.8947 40.3565 31.9976 40.0152Z" fill="white"/>
<mask id="mask1_58_1589" style="mask-type:luminance" maskUnits="userSpaceOnUse" x="27" y="39" width="14" height="16">
<path d="M31.9976 40.0155C31.6592 39.8889 31.3399 39.7356 31.0092 39.5937C30.6784 39.4518 30.074 39.3751 29.8459 40.4219C29.5076 41.9556 31.8607 43.2209 31.1042 44.49C30.6336 45.2621 29.9262 45.8584 29.0894 46.1886C28.9532 46.2359 28.8112 46.2642 28.6674 46.273C27.9945 46.3573 26.9035 46.273 27.238 47.4578C27.5726 48.6425 28.6674 49.6624 29.3403 49.6624H30.0132C30.0132 49.6624 30.7735 51.963 33.6246 53.2206C36.4758 54.4783 38.4146 54.4092 39.0874 52.7989C39.7603 51.1885 40.2659 49.8312 40.2659 47.7108C40.2659 45.5905 39.5056 42.0323 39.5056 42.0323C39.5056 42.0323 38.8327 42.9678 36.2287 41.7792C34.5066 40.9932 32.8947 40.3567 31.9976 40.0155Z" fill="white"/>
</mask>
<g mask="url(#mask1_58_1589)">
<g style="mix-blend-mode:multiply" opacity="0.5">
<path d="M36.235 41.7791C36.235 41.7791 32.2168 41.5529 31.6161 41.6525C31.0155 41.7522 31.715 43.5697 31.5173 45.3871C31.3196 47.2045 31.4146 50.1339 32.2168 51.0426C33.1633 51.9796 34.1663 52.8567 35.22 53.6691C35.22 53.6691 32.1369 53.1668 31.0155 51.8517C29.894 50.5365 29.7154 49.831 29.7154 49.831C29.7154 49.831 27.1113 48.2973 26.9098 47.1048C26.7083 45.9124 28.4304 46.545 29.2554 45.9546C29.7191 45.6325 31.6389 45.0267 31.1561 43.4125C30.6733 41.7982 29.894 41.4953 29.8636 40.4141C29.8408 39.6472 30.5099 39.4248 30.9204 39.3558C31.1055 39.3244 31.2957 39.3526 31.4641 39.4363L36.235 41.7791Z" fill="#008D91"/>
</g>
</g>
<path d="M31.9976 40.0152C31.6592 39.8887 31.3399 39.7353 31.0092 39.5935C30.6784 39.4516 30.074 39.3749 29.8459 40.4217C29.5076 41.9554 31.8607 43.2207 31.1042 44.4898C30.6336 45.2619 29.9262 45.8582 29.0894 46.1884C28.9532 46.2356 28.8112 46.264 28.6674 46.2727C27.9945 46.3571 26.9035 46.2727 27.238 47.4575C27.5726 48.6423 28.6674 49.6622 29.3403 49.6622H30.0132C30.0132 49.6622 30.7735 51.9628 33.6246 53.2204C36.4758 54.478 38.4146 54.409 39.0874 52.7986C39.7603 51.1882 40.2659 49.8309 40.2659 47.7106C40.2659 45.5902 39.5056 42.032 39.5056 42.032C39.5056 42.032 38.8327 42.9676 36.2287 41.779C34.5066 40.993 32.8947 40.3565 31.9976 40.0152Z" stroke="#2E3646" stroke-width="1.1309" stroke-miterlimit="10" stroke-linecap="round"/>
<path d="M34.9666 45.0381C35.0198 45.3602 34.9324 45.6439 34.7689 45.6708C34.6055 45.6976 34.4382 45.4561 34.3888 45.134C34.3394 44.8119 34.4268 44.5243 34.5865 44.4975C34.7461 44.4707 34.9134 44.7314 34.9666 45.0381Z" fill="#2E3646"/>
<path d="M38.4455 44.4514C38.4949 44.7735 38.4075 45.0572 38.2478 45.0841C38.0882 45.1109 37.9171 44.8694 37.8677 44.5473C37.8183 44.2252 37.9019 43.9415 38.0615 43.9146C38.2212 43.8878 38.3923 44.1294 38.4455 44.4514Z" fill="#2E3646"/>
<path d="M32.9531 43.4739C33.1658 43.155 33.4544 42.8949 33.7924 42.7174C34.1304 42.5399 34.5071 42.4506 34.8881 42.4578" stroke="#2E3646" stroke-width="1.1309" stroke-miterlimit="10" stroke-linecap="round"/>
<path d="M37.4902 42.7108C37.8131 42.597 38.1627 42.5848 38.4927 42.6759C38.8226 42.7669 39.1173 42.957 39.3378 43.2208" stroke="#2E3646" stroke-width="1.1309" stroke-miterlimit="10" stroke-linecap="round"/>
<path d="M37.1573 44.1526C37.1109 44.6884 37.1109 45.2273 37.1573 45.763C37.241 46.4417 37.7428 46.6104 37.5755 47.1204C37.4082 47.6303 36.7354 47.6265 36.7354 47.6265" stroke="#2E3646" stroke-width="1.1309" stroke-miterlimit="10" stroke-linecap="round"/>
<path d="M35.8951 49.6622C35.6072 49.7308 35.308 49.7358 35.018 49.6769C34.728 49.618 34.454 49.4966 34.2148 49.3209" stroke="#2E3646" stroke-width="1.1309" stroke-miterlimit="10" stroke-linecap="round"/>
</svg>
