<svg width="216" height="165" viewBox="0 0 216 165" fill="none" xmlns="http://www.w3.org/2000/svg">
<g id="documents/amico">
<g id="Floor">
<path id="Vector" d="M32.0156 148.839C74.0688 169.852 142.255 169.852 184.308 148.839C226.362 127.826 226.362 93.7556 184.308 72.7378C142.255 51.72 74.0881 51.7246 32.0156 72.7378C-10.057 93.751 -10.0185 127.826 32.0156 148.839Z" fill="#F5F5F5"/>
</g>
<g id="filing-cabinets">
<path id="Vector_2" d="M20.2911 114.378L6.62109 106.831V78.7855L20.2911 86.3372V114.378Z" fill="white"/>
<path id="Vector_3" d="M20.29 86.3372L39.8213 75.5524V103.593L20.29 114.378V86.3372Z" fill="#EBEBEB"/>
<path id="Vector_4" d="M39.8223 75.5524L20.2911 86.3373L6.62109 78.7856L26.1524 68.0007L39.8223 75.5524Z" fill="#F5F5F5"/>
<path id="Vector_5" d="M22.248 87.4134L37.8701 78.7855L38.2307 78.9833V89.3726L22.6038 98.0005L22.2432 97.8027L22.248 87.4134Z" fill="white"/>
<path id="Vector_6" d="M22.6025 87.6156L38.2295 78.9832V89.3725L22.6025 98.0003V87.6156Z" fill="#F5F5F5"/>
<path id="Vector_7" d="M28.7286 85.9922L31.3876 84.5251C31.729 84.332 32.0078 84.4193 32.0078 84.7183C31.9831 84.9014 31.9141 85.0765 31.8065 85.2297C31.6989 85.383 31.5554 85.5102 31.3876 85.6013L28.7286 87.0684C28.3824 87.2616 28.1035 87.1742 28.1035 86.8752C28.1284 86.6916 28.198 86.5161 28.3065 86.3628C28.415 86.2095 28.5596 86.0826 28.7286 85.9922Z" fill="white"/>
<path id="Vector_8" d="M21.8867 100.557L37.5088 91.9296V102.319L37.8695 102.517L22.2425 111.145L21.8867 110.947V100.557Z" fill="white"/>
<path id="Vector_9" d="M22.2432 100.755L37.8701 92.1274V102.517L22.2432 111.145V100.755Z" fill="#F5F5F5"/>
<path id="Vector_10" d="M28.3696 99.1363L31.0526 97.6738C31.3988 97.4806 31.6777 97.568 31.6777 97.867C31.6528 98.0506 31.5832 98.2261 31.4747 98.3794C31.3662 98.5328 31.2216 98.6597 31.0526 98.75L28.3936 100.217C28.0474 100.41 27.7686 100.323 27.7686 100.024C27.7902 99.8416 27.8557 99.6665 27.96 99.5125C28.0643 99.3585 28.2045 99.2297 28.3696 99.1363Z" fill="white"/>
<path id="Vector_11" d="M20.2911 84.7183L6.62109 77.1667V49.1261L20.2911 56.6732V84.7183Z" fill="white"/>
<path id="Vector_12" d="M20.29 56.6731L39.8213 45.8883V73.9335L20.29 84.7183V56.6731Z" fill="#EBEBEB"/>
<path id="Vector_13" d="M39.8223 45.8884L20.2911 56.6732L6.62109 49.1261L26.1524 38.3413L39.8223 45.8884Z" fill="#F5F5F5"/>
<path id="Vector_14" d="M22.2432 57.754L37.8701 49.1261L38.2307 49.3239V59.7132L22.6038 68.341L22.2432 68.1387V57.754Z" fill="white"/>
<path id="Vector_15" d="M28.7286 56.3283L31.3828 54.8612C31.729 54.6727 32.0078 54.76 32.0078 55.059C31.9822 55.2424 31.9124 55.4176 31.8039 55.5708C31.6955 55.7241 31.5513 55.8511 31.3828 55.942L28.7286 57.4091C28.3824 57.5977 28.1035 57.5149 28.1035 57.2159C28.1288 57.0318 28.1984 56.8558 28.3069 56.7018C28.4154 56.5478 28.5597 56.4199 28.7286 56.3283Z" fill="white"/>
<path id="Vector_16" d="M21.8867 70.8981L37.5088 62.2703V72.655L37.8695 72.8527L22.2425 81.4806L21.8867 81.2828V70.8981Z" fill="white"/>
<path id="Vector_17" d="M22.2432 71.0959L37.8701 62.468V72.8527L22.2432 81.4806V71.0959Z" fill="#F5F5F5"/>
<path id="Vector_18" d="M28.3692 69.4724L31.0522 68.0053C31.3936 67.8167 31.6773 67.9041 31.6773 68.203C31.6503 68.386 31.5799 68.5607 31.4716 68.7137C31.3632 68.8667 31.2198 68.9941 31.0522 69.086L28.3692 70.5393C28.023 70.7279 27.7441 70.6405 27.7441 70.3462C27.7715 70.1645 27.8421 69.9913 27.9505 69.8398C28.0589 69.6883 28.2021 69.5626 28.3692 69.4724Z" fill="white"/>
<path id="Vector_19" d="M22.2432 57.754L37.8701 49.1261V59.5108L22.2432 68.1387V57.754Z" fill="white"/>
<path id="Vector_20" d="M45.6828 54.2585L37.1289 49.5353V58.6874L45.6828 63.4061V54.2585Z" fill="white"/>
<path id="Vector_21" d="M28.1035 69.6196V56.6732L31.4549 54.8151L32.0078 55.597L41.7735 50.2023V62.0679L28.1035 69.6196Z" fill="#EBEBEB"/>
<path id="Vector_22" d="M28.1035 69.6195L29.0796 58.292L42.7496 50.7449L41.7735 62.0678L28.1035 69.6195Z" fill="#F5F5F5"/>
<path id="Vector_23" d="M30.0554 62.8866L22.6025 58.7704V67.9225L30.0554 72.0341V62.8866Z" fill="#EBEBEB"/>
<path id="Vector_24" d="M30.0566 62.0678L45.6836 53.4399V63.8246L30.0566 72.4525V62.0678Z" fill="#F5F5F5"/>
<path id="Vector_25" d="M36.1827 60.4443L38.8369 58.9772C39.1831 58.7886 39.4619 58.876 39.4619 59.1749C39.4359 59.3582 39.366 59.5333 39.2576 59.6865C39.1491 59.8397 39.0052 59.9668 38.8369 60.058L36.1827 61.5251C35.8365 61.7136 35.5576 61.6262 35.5576 61.3319C35.5829 61.1478 35.6525 60.9718 35.761 60.8178C35.8695 60.6638 36.0138 60.5359 36.1827 60.4443Z" fill="white"/>
<path id="Vector_26" d="M30.0564 62.0679L29.5371 61.7827V72.1674L30.0564 72.4526V62.0679Z" fill="white"/>
<path id="Vector_27" d="M29.5371 61.7827L45.1592 53.1503L45.6833 53.44L30.0564 62.0679L29.5371 61.7827Z" fill="#EBEBEB"/>
<path id="Vector_28" d="M181.793 97.3888L168.118 89.8371V61.7965L181.793 69.3436V97.3888Z" fill="white"/>
<path id="Vector_29" d="M181.79 69.3435L201.321 58.5587V86.6039L181.79 97.3887V69.3435Z" fill="#EBEBEB"/>
<path id="Vector_30" d="M201.324 58.5586L181.793 69.3435L168.118 61.7964L187.654 51.007L201.324 58.5586Z" fill="#F5F5F5"/>
<path id="Vector_31" d="M183.743 70.4244L199.37 61.7965L199.731 61.9943L199.726 72.379L184.104 81.0068L183.743 80.8091V70.4244Z" fill="white"/>
<path id="Vector_32" d="M184.105 70.6221L199.732 61.9943L199.728 72.379L184.105 81.0068V70.6221Z" fill="#F5F5F5"/>
<path id="Vector_33" d="M190.232 68.9986L192.886 67.5315C193.232 67.3429 193.511 67.4303 193.511 67.7246C193.485 67.9087 193.416 68.0847 193.307 68.2388C193.199 68.3928 193.055 68.5206 192.886 68.6122L190.232 70.0794C189.885 70.2679 189.606 70.1805 189.606 69.8862C189.632 69.7021 189.701 69.5261 189.81 69.3721C189.918 69.218 190.063 69.0902 190.232 68.9986Z" fill="white"/>
<path id="Vector_34" d="M183.384 83.5685L199.011 74.936V85.3253L199.371 85.5231L183.744 94.151L183.384 93.9532V83.5685Z" fill="white"/>
<path id="Vector_35" d="M183.743 83.7664L199.37 75.1385V85.5233L183.743 94.1511V83.7664Z" fill="#F5F5F5"/>
<path id="Vector_36" d="M189.869 82.1429L192.528 80.6758C192.87 80.4872 193.148 80.5746 193.148 80.8689C193.123 81.0524 193.054 81.2278 192.946 81.3817C192.839 81.5356 192.696 81.6638 192.528 81.7565L189.869 83.2236C189.523 83.4122 189.244 83.3248 189.244 83.0259C189.27 82.8426 189.34 82.6675 189.449 82.5143C189.557 82.3612 189.701 82.234 189.869 82.1429Z" fill="white"/>
</g>
<g id="Plants">
<path id="Vector_37" d="M51.7265 126.699C51.7265 126.699 51.7794 119.405 46.9711 113.936C42.7158 109.094 40.4511 106.021 41.7926 104.605C43.1341 103.188 46.0191 102.848 49.909 106.766C53.7989 110.685 54.1018 121.539 53.5633 123.995L51.7265 126.699Z" fill="#008D91"/>
<path id="Vector_38" opacity="0.2" d="M51.7265 126.699C51.7265 126.699 51.7794 119.405 46.9711 113.936C42.7158 109.094 40.4511 106.021 41.7926 104.605C43.1341 103.188 46.0191 102.848 49.909 106.766C53.7989 110.685 54.1018 121.539 53.5633 123.995L51.7265 126.699Z" fill="#008D91"/>
<path id="Vector_39" d="M52.536 118.857C52.4812 118.858 52.428 118.84 52.3852 118.807C52.3423 118.775 52.3124 118.729 52.3004 118.678C50.6175 111.149 46.2996 106.987 43.8714 105.175C43.8212 105.138 43.7884 105.083 43.7803 105.023C43.7722 104.962 43.7894 104.901 43.8282 104.853C43.868 104.805 43.9261 104.773 43.99 104.766C44.0539 104.758 44.1184 104.774 44.1696 104.812C46.6458 106.651 51.055 110.91 52.7716 118.581C52.7786 118.611 52.7795 118.641 52.7741 118.671C52.7686 118.7 52.7571 118.729 52.74 118.754C52.723 118.779 52.7009 118.801 52.6749 118.818C52.6489 118.835 52.6197 118.847 52.5889 118.853L52.536 118.857Z" fill="white"/>
<path id="Vector_40" d="M51.5442 129.408L49.5872 130.489C49.3785 129.943 49.0264 129.458 48.5649 129.08C48.1035 128.702 47.5481 128.445 46.9523 128.332C44.8126 127.872 42.5912 127.95 41.091 126.175C39.5908 124.399 41.4179 122.468 41.091 121.162C40.764 119.855 40.5524 119.478 37.8694 118.172C35.1864 116.866 34.1286 114.7 36.1481 113.233C38.1675 111.766 41.4372 112.842 43.4182 114.153C45.178 115.302 46.8513 115.606 48.8179 115.84C50.7845 116.075 53.9868 117.119 53.4964 121.488C53.1752 124.193 52.5199 126.851 51.5442 129.408Z" fill="#008D91"/>
<path id="Vector_41" d="M44.033 123.668C43.9817 123.668 43.9319 123.652 43.8905 123.623C43.8491 123.594 43.8182 123.554 43.8022 123.507C43.784 123.449 43.7904 123.386 43.82 123.331C43.8496 123.277 43.9002 123.236 43.9608 123.217C44.1339 123.167 48.2883 121.907 50.0529 123.259C50.0967 123.298 50.1234 123.352 50.1277 123.41C50.132 123.467 50.1136 123.524 50.0761 123.569C50.0386 123.614 49.9848 123.644 49.9253 123.653C49.8658 123.662 49.805 123.649 49.7548 123.617C48.1969 122.422 44.1484 123.645 44.1051 123.659L44.033 123.668Z" fill="white"/>
<path id="Vector_42" d="M51.7611 129.058C51.7026 129.058 51.646 129.038 51.6025 129C51.5589 128.963 51.5315 128.911 51.5255 128.856C50.4533 119.17 38.2546 114.576 38.1344 114.53C38.1046 114.519 38.0773 114.503 38.0542 114.482C38.031 114.461 38.0123 114.436 37.9994 114.408C37.9864 114.38 37.9793 114.35 37.9786 114.32C37.9778 114.289 37.9834 114.259 37.995 114.231C38.0186 114.175 38.0637 114.13 38.121 114.105C38.1783 114.08 38.2433 114.077 38.3027 114.097C38.4325 114.148 50.9004 118.839 52.0015 128.814C52.0083 128.875 51.9899 128.935 51.9502 128.982C51.9106 129.03 51.853 129.06 51.79 129.067L51.7611 129.058Z" fill="white"/>
<path id="Vector_43" d="M171.359 123.047C171.412 122.886 173.474 112.731 171.359 105.529C169.435 98.925 166.926 96.4875 163.348 95.9494C159.771 95.4113 158.218 97.8764 160.117 101.215C162.016 104.554 166.589 108.983 167.709 116.443C168.19 119.515 168.556 122.183 168.556 122.183L171.359 123.047Z" fill="#008D91"/>
<path id="Vector_44" opacity="0.2" d="M171.359 123.047C171.412 122.886 173.474 112.731 171.359 105.529C169.435 98.925 166.926 96.4875 163.348 95.9494C159.771 95.4113 158.218 97.8764 160.117 101.215C162.016 104.554 166.589 108.983 167.709 116.443C168.19 119.515 168.556 122.183 168.556 122.183L171.359 123.047Z" fill="#008D91"/>
<path id="Vector_45" d="M170.152 117.216C170.121 117.214 170.09 117.206 170.061 117.193C170.033 117.18 170.007 117.161 169.986 117.139C169.965 117.116 169.949 117.09 169.939 117.061C169.929 117.032 169.924 117.002 169.926 116.972C170.407 108.749 167.599 101.409 162.565 97.8075C162.514 97.7709 162.48 97.7165 162.471 97.6561C162.462 97.5957 162.479 97.5344 162.517 97.4856C162.556 97.4378 162.613 97.4063 162.675 97.3977C162.738 97.3892 162.802 97.4042 162.853 97.4396C168.013 101.119 170.907 108.625 170.402 116.999C170.399 117.06 170.37 117.116 170.324 117.156C170.277 117.197 170.215 117.218 170.152 117.216Z" fill="white"/>
<path id="Vector_46" d="M176.891 128.336C176.617 126.446 177.752 123.613 180.449 122.941C183.147 122.27 184.349 120.789 183.377 119.17C182.406 117.551 182.632 116.066 185.08 115.394C187.527 114.723 189.672 113.555 188.263 111.08C187.239 109.291 187.013 108.132 189.522 104.61C191.604 101.685 189.902 99.9691 187.296 100.291C184.69 100.613 183.079 103.584 181.449 104.081C179.819 104.577 179.444 101.928 177.295 103.115C175.146 104.301 175.276 107.341 175.208 109.462C175.141 111.582 174.997 112.06 173.054 111.802C171.112 111.545 169.207 111.848 169.251 116.342C169.284 120.196 171.434 124.97 171.434 124.97L176.891 128.336Z" fill="#008D91"/>
<path id="Vector_47" d="M173.485 125.462H173.461C173.397 125.455 173.338 125.424 173.297 125.375C173.257 125.327 173.238 125.266 173.245 125.204C174.6 113.619 184.996 103.846 187.708 101.864C187.759 101.827 187.823 101.81 187.887 101.818C187.95 101.827 188.008 101.859 188.047 101.907C188.086 101.956 188.103 102.018 188.094 102.079C188.086 102.139 188.052 102.195 188.001 102.232C185.323 104.186 175.062 113.831 173.725 125.255C173.718 125.311 173.69 125.363 173.646 125.401C173.602 125.44 173.544 125.461 173.485 125.462Z" fill="white"/>
<path id="Vector_48" d="M178.225 113.076C178.176 113.076 178.128 113.062 178.088 113.036C178.048 113.009 178.017 112.972 177.999 112.929C177.978 112.871 177.982 112.808 178.008 112.752C178.035 112.697 178.083 112.653 178.143 112.63C182.018 111.25 186.413 111.904 186.601 111.931C186.663 111.941 186.718 111.975 186.755 112.024C186.792 112.073 186.808 112.134 186.798 112.193C186.786 112.253 186.751 112.306 186.7 112.341C186.65 112.377 186.586 112.393 186.524 112.386C186.48 112.386 182.066 111.724 178.311 113.063C178.283 113.072 178.254 113.076 178.225 113.076Z" fill="white"/>
<path id="Vector_49" d="M174.771 120.039C174.737 120.039 174.704 120.032 174.674 120.018C174.643 120.005 174.616 119.986 174.593 119.961C172.982 118.166 171.889 115.999 171.425 113.674C171.42 113.644 171.421 113.614 171.429 113.585C171.436 113.555 171.45 113.528 171.469 113.503C171.488 113.479 171.511 113.458 171.538 113.443C171.565 113.427 171.595 113.417 171.627 113.412C171.658 113.408 171.69 113.409 171.72 113.416C171.751 113.423 171.78 113.436 171.806 113.454C171.831 113.472 171.852 113.495 171.869 113.521C171.885 113.547 171.896 113.575 171.901 113.605C172.36 115.838 173.412 117.92 174.954 119.653C174.984 119.687 175.003 119.728 175.01 119.772C175.016 119.816 175.01 119.861 174.99 119.902C174.971 119.942 174.94 119.977 174.902 120.001C174.863 120.025 174.818 120.039 174.771 120.039Z" fill="white"/>
</g>
<g id="folder-2">
<path id="Vector_50" d="M51.5449 58.2278V129.412L127.718 87.3492L127.713 22.6356L71.0762 53.9139L69.1192 48.5192L51.5449 58.2278Z" fill="#008D91"/>
<path id="Vector_51" opacity="0.7" d="M51.5449 58.2278V129.412L127.718 87.3492L127.713 22.6356L71.0762 53.9139L69.1192 48.5192L51.5449 58.2278Z" fill="#008D91"/>
<path id="Vector_52" d="M51.5449 129.412L55.4493 64.6987L131.622 22.6356L127.718 87.3492L51.5449 129.412Z" fill="white"/>
<path id="Vector_53" d="M51.5449 129.412L57.4014 65.7794L133.574 23.7117L127.718 87.3491L51.5449 129.412Z" fill="#008D91"/>
<path id="Vector_54" opacity="0.7" d="M51.5449 129.412L57.4014 65.7794L133.574 23.7117L127.718 87.3491L51.5449 129.412Z" fill="#008D91"/>
</g>
<g id="folder-1">
<path id="Vector_55" d="M63.2627 64.6986V135.888L139.436 93.8199V29.1063L82.794 60.3846L80.8418 54.9899L63.2627 64.6986Z" fill="#008D91"/>
<path id="Vector_56" opacity="0.5" d="M63.2627 64.6986V135.888L139.436 93.8199V29.1063L82.794 60.3846L80.8418 54.9899L63.2627 64.6986Z" fill="#008D91"/>
<path id="Vector_57" d="M63.2627 135.888L67.167 71.1695L143.34 29.1063L139.436 93.8199L63.2627 135.888Z" fill="white"/>
<path id="Vector_58" d="M63.2627 135.888L69.1192 72.2502L145.292 30.1825L139.436 93.8199L63.2627 135.888Z" fill="#008D91"/>
<path id="Vector_59" opacity="0.5" d="M63.2627 135.888L69.1192 72.2502L145.292 30.1825L139.436 93.8199L63.2627 135.888Z" fill="#008D91"/>
</g>
<g id="Documents">
<path id="Vector_60" d="M127.699 158.538C114.024 150.986 101.34 142.777 95.5508 133.147L113.149 123.429L127.699 158.538Z" fill="white"/>
<path id="Vector_61" d="M76.9316 72.2505V143.435L153.105 101.372V36.6582L96.4629 67.9365L94.5107 62.5418L76.9316 72.2505Z" fill="#008D91"/>
<path id="Vector_62" opacity="0.2" d="M76.9316 72.2505V143.435L153.105 101.372V36.6582L96.4629 67.9365L94.5107 62.5418L76.9316 72.2505Z" fill="#008D91"/>
<path id="Vector_63" d="M98.8755 93.2957C98.6831 93.2957 98.6543 93.0841 98.6543 92.9599V32.2521C98.6697 32.0166 98.742 31.7878 98.8655 31.5835C98.989 31.3792 99.1603 31.2051 99.3659 31.0748L154.344 0.720865C154.419 0.675948 154.505 0.650582 154.594 0.647278C154.786 0.647278 154.815 0.858837 154.815 0.983012V61.6908C154.8 61.927 154.728 62.1567 154.604 62.3618C154.481 62.5668 154.31 62.7417 154.103 62.8728L99.1255 93.2267C99.0496 93.2694 98.9636 93.2931 98.8755 93.2957Z" fill="white"/>
<path id="Vector_64" d="M154.566 0.858823C154.57 0.892447 154.57 0.92638 154.566 0.960004V61.6678C154.55 61.8636 154.489 62.0536 154.387 62.2238C154.285 62.3941 154.144 62.5404 153.975 62.652L98.9969 93.0059L98.9008 93.0473C98.8943 93.0139 98.8943 92.9796 98.9008 92.9461V32.2383C98.9173 32.0433 98.9789 31.8543 99.0812 31.6849C99.1835 31.5154 99.3238 31.3699 99.4922 31.2587L154.47 0.904814C154.5 0.884526 154.535 0.870437 154.571 0.863423M154.6 0.403516C154.469 0.407244 154.341 0.443716 154.23 0.509296L99.2518 30.8632C99.0101 31.0151 98.8089 31.219 98.6645 31.4586C98.52 31.6982 98.4363 31.9668 98.4199 32.2429V92.9507C98.4199 93.3095 98.6074 93.5164 98.9008 93.5164C99.0318 93.5131 99.1595 93.4766 99.271 93.4106L154.249 63.0567C154.492 62.906 154.694 62.7023 154.838 62.4625C154.983 62.2227 155.066 61.9535 155.081 61.677V0.969204C155.081 0.610476 154.893 0.398917 154.6 0.403516Z" fill="#008D91"/>
<path id="Vector_65" opacity="0.7" d="M154.566 0.858823C154.57 0.892447 154.57 0.92638 154.566 0.960004V61.6678C154.55 61.8636 154.489 62.0536 154.387 62.2238C154.285 62.3941 154.144 62.5404 153.975 62.652L98.9969 93.0059L98.9008 93.0473C98.8943 93.0139 98.8943 92.9796 98.9008 92.9461V32.2383C98.9173 32.0433 98.9789 31.8543 99.0812 31.6849C99.1835 31.5154 99.3238 31.3699 99.4922 31.2587L154.47 0.904814C154.5 0.884526 154.535 0.870437 154.571 0.863423M154.6 0.403516C154.469 0.407244 154.341 0.443716 154.23 0.509296L99.2518 30.8632C99.0101 31.0151 98.8089 31.219 98.6645 31.4586C98.52 31.6982 98.4363 31.9668 98.4199 32.2429V92.9507C98.4199 93.3095 98.6074 93.5164 98.9008 93.5164C99.0318 93.5131 99.1595 93.4766 99.271 93.4106L154.249 63.0567C154.492 62.906 154.694 62.7023 154.838 62.4625C154.983 62.2227 155.066 61.9535 155.081 61.677V0.969204C155.081 0.610476 154.893 0.398917 154.6 0.403516Z" fill="white"/>
<path id="Vector_66" d="M104.277 34.5563L123.809 23.7715V45.3412L104.277 56.126V34.5563Z" fill="#008D91"/>
<path id="Vector_67" opacity="0.8" d="M104.277 34.5563L123.809 23.7715V45.3412L104.277 56.126V34.5563Z" fill="white"/>
<path id="Vector_68" d="M120.878 29.1478V35.6325L120.263 35.9591V33.9769C120.263 32.8823 119.335 32.5098 118.181 33.1444L109.906 37.7205C108.756 38.3552 107.824 39.7579 107.824 40.8525V42.8347L107.213 43.1842V36.7133L120.878 29.1478Z" fill="white"/>
<path id="Vector_69" d="M117.119 45.6585C116.119 46.2103 115.306 45.6309 115.306 44.3569V33.9768L112.791 35.2829V45.7458C112.791 47.0152 111.979 48.5053 110.979 49.0434L109.161 50.046V50.7358L118.927 45.3411V44.6559L117.119 45.6585Z" fill="white"/>
<path id="Vector_70" d="M127.699 22.7092C127.699 23.3071 128.262 23.4773 128.949 23.1001L147.952 12.5912C148.289 12.4085 148.577 12.1535 148.794 11.8463C149.011 11.5391 149.151 11.188 149.202 10.8206C149.202 10.2273 148.639 10.0525 147.952 10.4343L128.964 20.9202C128.621 21.1026 128.328 21.3596 128.108 21.6704C127.889 21.9812 127.749 22.337 127.699 22.7092Z" fill="#2E3646"/>
<path id="Vector_71" d="M127.699 29.1476C127.699 29.7455 128.262 29.9203 128.949 29.5386L147.937 19.0527C148.274 18.8699 148.563 18.6149 148.78 18.3077C148.997 18.0005 149.136 17.6494 149.187 17.282C149.187 16.6887 148.625 16.514 147.937 16.8957L128.949 27.3816C128.613 27.5639 128.325 27.8182 128.108 28.1245C127.891 28.4309 127.751 28.781 127.699 29.1476Z" fill="#2E3646"/>
<path id="Vector_72" d="M127.699 35.6324C127.699 36.2303 128.262 36.4051 128.949 36.0233L147.937 25.5374C148.274 25.3551 148.562 25.1008 148.779 24.7945C148.996 24.4881 149.135 24.138 149.187 23.7714C149.187 23.1735 148.625 22.9987 147.937 23.3805L128.949 33.8664C128.613 34.0487 128.325 34.303 128.108 34.6093C127.891 34.9157 127.751 35.2658 127.699 35.6324Z" fill="#2E3646"/>
<path id="Vector_73" d="M127.699 42.1034C127.699 42.7012 128.262 42.876 128.949 42.4943L147.937 32.0084C148.274 31.8261 148.562 31.5718 148.779 31.2654C148.996 30.9591 149.135 30.6089 149.187 30.2423C149.187 29.6445 148.625 29.4697 147.937 29.8514L128.949 40.3373C128.613 40.5196 128.325 40.7739 128.108 41.0803C127.891 41.3866 127.751 41.7368 127.699 42.1034Z" fill="#2E3646"/>
<path id="Vector_74" d="M104.277 61.5207C104.277 62.1185 104.835 62.2933 105.528 61.9116L147.951 38.4563C148.288 38.2745 148.576 38.0204 148.793 37.714C149.01 37.4075 149.15 37.0571 149.201 36.6903C149.201 36.0924 148.639 35.9222 147.951 36.2993L105.528 59.7546C105.19 59.9361 104.902 60.1902 104.685 60.4967C104.468 60.8032 104.328 61.1537 104.277 61.5207Z" fill="#2E3646"/>
<path id="Vector_75" d="M104.277 67.9915C104.277 68.5894 104.835 68.7642 105.528 68.3825L147.951 44.9548C148.288 44.772 148.577 44.517 148.793 44.2098C149.01 43.9026 149.15 43.5515 149.201 43.1841C149.201 42.5908 148.639 42.4161 147.951 42.7978L105.528 66.2255C105.19 66.407 104.902 66.661 104.685 66.9675C104.468 67.274 104.328 67.6246 104.277 67.9915Z" fill="#2E3646"/>
<path id="Vector_76" d="M104.277 74.4671C104.277 75.0604 104.835 75.2351 105.528 74.8534L147.951 51.4257C148.288 51.2429 148.577 50.9879 148.793 50.6807C149.01 50.3736 149.15 50.0225 149.201 49.6551C149.201 49.0618 148.639 48.887 147.951 49.2687L105.528 72.6964C105.19 72.8784 104.901 73.1331 104.684 73.4405C104.467 73.7478 104.328 74.0993 104.277 74.4671Z" fill="#2E3646"/>
<path id="Vector_77" d="M76.9316 143.435L90.6016 86.2728L166.774 44.2051L153.105 101.372L76.9316 143.435Z" fill="#008D91"/>
<path id="Vector_78" d="M95.5693 90.7479V133.147L113.148 123.438V81.0438L95.5693 90.7479Z" fill="#008D91"/>
<path id="Vector_79" opacity="0.2" d="M95.5693 90.7479V133.147L113.148 123.438V81.0438L95.5693 90.7479Z" fill="#008D91"/>
<path id="Vector_80" d="M127.732 158.262C126.237 157.195 111.821 146.659 104.494 131.588C96.6945 115.564 96.7041 96.8737 96.7041 89.8417V89.621L148.961 60.7664C148.961 67.8627 148.961 86.581 156.793 102.659C163.953 117.376 177.815 127.78 180.012 129.371L127.732 158.262Z" fill="white"/>
<path id="Vector_81" d="M148.72 61.1803C148.72 68.5756 148.869 86.9352 156.577 102.774C163.496 116.986 176.652 127.205 179.58 129.362L127.746 157.986C125.722 156.528 111.85 146.167 104.715 131.509C96.9253 115.532 96.9253 96.8784 96.9253 89.8556V89.7682L148.701 61.1757M149.182 60.3801L96.4445 89.506C96.4445 96.1241 96.3003 115.353 104.258 131.703C112.091 147.749 127.698 158.538 127.698 158.538L180.45 129.408C180.45 129.408 164.823 118.618 157.015 102.572C149.052 86.2223 149.201 66.9936 149.201 60.3755L149.182 60.3801Z" fill="#008D91"/>
<path id="Vector_82" opacity="0.7" d="M148.72 61.1803C148.72 68.5756 148.869 86.9352 156.577 102.774C163.496 116.986 176.652 127.205 179.58 129.362L127.746 157.986C125.722 156.528 111.85 146.167 104.715 131.509C96.9253 115.532 96.9253 96.8784 96.9253 89.8556V89.7682L148.701 61.1757M149.182 60.3801L96.4445 89.506C96.4445 96.1241 96.3003 115.353 104.258 131.703C112.091 147.749 127.698 158.538 127.698 158.538L180.45 129.408C180.45 129.408 164.823 118.618 157.015 102.572C149.052 86.2223 149.201 66.9936 149.201 60.3755L149.182 60.3801Z" fill="white"/>
<path id="Vector_83" d="M143.232 70.1485L126.556 79.3467C126.223 79.5224 125.938 79.7726 125.727 80.0761C125.516 80.3796 125.385 80.7273 125.345 81.0897C125.369 81.6738 125.951 81.8394 126.638 81.4576L143.318 72.2595C143.648 72.0854 143.93 71.8385 144.139 71.5393C144.349 71.2401 144.482 70.8973 144.525 70.5394C144.496 69.9324 143.924 69.7668 143.232 70.1485Z" fill="#2E3646"/>
<path id="Vector_84" d="M143.587 76.4263L126.912 85.6244C126.582 85.7941 126.302 86.0408 126.099 86.3415C125.895 86.6422 125.775 86.9872 125.748 87.3445C125.801 87.9102 126.407 88.062 127.094 87.6802L143.774 78.4821C144.103 78.3131 144.38 78.067 144.581 77.7668C144.782 77.4666 144.9 77.1224 144.923 76.7666C144.875 76.1963 144.279 76.0584 143.587 76.4263Z" fill="#2E3646"/>
<path id="Vector_85" d="M144.257 82.5292L127.578 91.7273C126.89 92.109 126.39 92.8679 126.472 93.4152C126.553 93.9625 127.183 94.105 127.876 93.7233L144.556 84.5252C145.243 84.1434 145.734 83.3892 145.647 82.8419C145.561 82.2946 144.945 82.1474 144.257 82.5292Z" fill="#2E3646"/>
<path id="Vector_86" d="M145.256 88.4483L128.576 97.6465C127.889 98.0282 127.413 98.7732 127.528 99.3067C127.643 99.8402 128.297 99.9598 128.97 99.5781L145.646 90.3799C146.338 89.9982 146.8 89.2578 146.684 88.7243C146.569 88.1908 145.968 88.0666 145.256 88.4483Z" fill="#2E3646"/>
<path id="Vector_87" d="M146.613 94.1695L129.933 103.368C129.245 103.749 128.798 104.476 128.971 104.986C129.144 105.497 129.803 105.612 130.49 105.23L147.17 96.0321C147.863 95.6504 148.295 94.9283 148.132 94.4132C147.968 93.8981 147.3 93.7878 146.613 94.1695Z" fill="#2E3646"/>
<path id="Vector_88" d="M148.371 99.6838L107.722 122.132C107.034 122.514 106.616 123.222 106.804 123.714C106.991 124.206 107.708 124.298 108.395 123.916L149.044 101.468C149.737 101.087 150.136 100.383 149.948 99.8862C149.761 99.3895 149.035 99.3021 148.371 99.6838Z" fill="#2E3646"/>
<path id="Vector_89" d="M150.512 104.95L109.868 127.398C109.176 127.779 108.796 128.469 109.027 128.938C109.257 129.407 109.988 129.481 110.69 129.099L151.34 106.651C152.032 106.27 152.402 105.58 152.171 105.111C151.941 104.641 151.205 104.572 150.512 104.95Z" fill="#2E3646"/>
<path id="Vector_90" d="M153.182 109.967L112.533 132.416C111.841 132.797 111.499 133.469 111.773 133.915C112.047 134.361 112.831 134.407 113.524 134.025L154.144 111.577C154.832 111.2 155.163 110.533 154.889 110.087C154.615 109.641 153.856 109.586 153.182 109.967Z" fill="#2E3646"/>
<path id="Vector_91" d="M156.293 114.714L115.649 137.157C114.956 137.539 114.649 138.197 114.961 138.615C115.274 139.034 116.096 139.075 116.788 138.689L157.433 116.241C158.125 115.859 158.423 115.21 158.111 114.787C157.798 114.364 156.985 114.332 156.293 114.714Z" fill="#2E3646"/>
<path id="Vector_92" d="M159.842 119.225L119.193 141.669C118.505 142.051 118.231 142.69 118.577 143.09C118.924 143.49 119.775 143.508 120.467 143.127L161.116 120.669C161.804 120.288 162.078 119.658 161.722 119.258C161.366 118.857 160.535 118.83 159.842 119.225Z" fill="#2E3646"/>
<path id="Vector_93" d="M163.761 123.521L123.126 145.964C122.433 146.346 122.164 146.971 122.568 147.344C122.972 147.717 123.828 147.726 124.515 147.344L165.165 124.896C165.857 124.514 166.097 123.898 165.713 123.516C165.328 123.134 164.463 123.144 163.761 123.521Z" fill="#2E3646"/>
<path id="Vector_94" d="M168.087 127.628L127.438 150.071C126.75 150.453 126.524 151.065 126.957 151.428C127.39 151.791 128.275 151.778 128.967 151.396L169.583 128.948C170.27 128.566 170.487 127.968 170.063 127.6C169.64 127.232 168.76 127.246 168.087 127.628Z" fill="#2E3646"/>
<path id="Vector_95" d="M120.514 82.6993L101.339 93.2772C101.55 99.9229 102.344 109.507 105.248 119.161L124.428 108.583C121.519 98.9295 120.726 89.3404 120.514 82.6993Z" fill="#008D91"/>
<path id="Vector_96" opacity="0.8" d="M120.514 82.6993L101.339 93.2772C101.55 99.9229 102.344 109.507 105.248 119.161L124.428 108.583C121.519 98.9295 120.726 89.3404 120.514 82.6993Z" fill="white"/>
<path id="Vector_97" d="M109.157 91.8147C109.183 91.3857 109.113 90.9564 108.952 90.5552C108.792 90.1539 108.543 89.79 108.224 89.4875L101.339 93.2864C101.397 95.0432 101.493 97.007 101.661 99.1226C102.557 99.2212 103.463 99.061 104.262 98.6627C106.969 97.4761 109.157 94.3994 109.157 91.8147Z" fill="#008D91"/>
<path id="Vector_98" opacity="0.6" d="M109.157 91.8147C109.183 91.3857 109.113 90.9564 108.952 90.5552C108.792 90.1539 108.543 89.79 108.224 89.4875L101.339 93.2864C101.397 95.0432 101.493 97.007 101.661 99.1226C102.557 99.2212 103.463 99.061 104.262 98.6627C106.969 97.4761 109.157 94.3994 109.157 91.8147Z" fill="white"/>
<path id="Vector_99" d="M122.799 102.236C121.52 100.696 118.919 95.9355 117.808 93.8613C117.764 93.7793 117.696 93.7118 117.612 93.6673C117.528 93.6229 117.431 93.6036 117.336 93.612C117.24 93.6205 117.149 93.6562 117.074 93.7145C117 93.7729 116.946 93.8513 116.918 93.9395C115.717 97.8682 115.019 101.922 114.841 106.012C113.24 104.796 111.863 103.332 110.769 101.68C110.722 101.616 110.657 101.566 110.582 101.536C110.507 101.506 110.424 101.497 110.343 101.511C110.263 101.524 110.188 101.56 110.128 101.612C110.068 101.665 110.025 101.733 110.004 101.809C107.908 109.53 108.961 117.128 108.961 117.128L124.429 108.583C123.785 106.449 123.251 104.324 122.799 102.236Z" fill="#008D91"/>
<path id="Vector_100" opacity="0.6" d="M122.799 102.236C121.52 100.696 118.919 95.9355 117.808 93.8613C117.764 93.7793 117.696 93.7118 117.612 93.6673C117.528 93.6229 117.431 93.6036 117.336 93.612C117.24 93.6205 117.149 93.6562 117.074 93.7145C117 93.7729 116.946 93.8513 116.918 93.9395C115.717 97.8682 115.019 101.922 114.841 106.012C113.24 104.796 111.863 103.332 110.769 101.68C110.722 101.616 110.657 101.566 110.582 101.536C110.507 101.506 110.424 101.497 110.343 101.511C110.263 101.524 110.188 101.56 110.128 101.612C110.068 101.665 110.025 101.733 110.004 101.809C107.908 109.53 108.961 117.128 108.961 117.128L124.429 108.583C123.785 106.449 123.251 104.324 122.799 102.236Z" fill="white"/>
</g>
</g>
</svg>
