<svg width="70" height="55" viewBox="0 0 70 55" fill="none" xmlns="http://www.w3.org/2000/svg">
<circle cx="34.9775" cy="19.6962" r="19.6962" fill="#008D91"/>
<line x1="42.3076" y1="13.7249" x2="24.2814" y2="13.7249" stroke="white" stroke-width="2.15169"/>
<line x1="41.2318" y1="30.6752" x2="41.2318" y2="12.649" stroke="white" stroke-width="2.15169"/>
<line x1="36.9863" y1="19.1553" x2="23.0516" y2="19.1553" stroke="white" stroke-width="2.15169"/>
<line x1="35.9105" y1="32.0143" x2="35.9105" y2="18.0795" stroke="white" stroke-width="2.15169"/>
<path d="M4.15396 51.0069C3.52947 51.0069 2.9705 50.872 2.47707 50.6021C1.98364 50.3246 1.5943 49.9468 1.30903 49.4688C1.03148 48.9831 0.8927 48.4357 0.8927 47.8266V42.8306H2.14169V47.7225C2.14169 48.1157 2.23421 48.4703 2.41925 48.7865C2.60429 49.0948 2.84715 49.3416 3.14783 49.5266C3.45622 49.7116 3.7916 49.8042 4.15396 49.8042C4.53946 49.8042 4.8864 49.7116 5.19479 49.5266C5.5109 49.3416 5.76147 49.0948 5.9465 48.7865C6.13154 48.4703 6.22406 48.1157 6.22406 47.7225V42.8306H7.41523V47.8266C7.41523 48.4357 7.2726 48.9831 6.98733 49.4688C6.70978 49.9468 6.32429 50.3246 5.83086 50.6021C5.33743 50.872 4.77846 51.0069 4.15396 51.0069ZM9.56899 50.9375V42.8422H10.7949L13.7439 47.6415L13.1541 47.63L16.1378 42.8422H17.2943V50.9375H16.0453V47.6184C16.0453 46.9245 16.0607 46.3 16.0915 45.7449C16.1301 45.1898 16.1917 44.6386 16.2766 44.0912L16.4385 44.5191L13.7901 48.613H13.0269L10.4595 44.5653L10.5867 44.0912C10.6715 44.6077 10.7293 45.1397 10.7602 45.6871C10.7987 46.2268 10.818 46.8706 10.818 47.6184V50.9375H9.56899ZM20.6048 48.4858L20.5354 47.0864L24.7796 42.8422H26.4218L20.6048 48.4858ZM19.5639 50.9375V42.8422H20.8129V50.9375H19.5639ZM24.93 50.9375L21.8306 46.7973L22.7558 45.9993L26.4912 50.9375H24.93ZM28.0342 50.9375V42.8422H29.2601L32.2091 47.6415L31.6193 47.63L34.603 42.8422H35.7595V50.9375H34.5105V47.6184C34.5105 46.9245 34.5259 46.3 34.5567 45.7449C34.5953 45.1898 34.657 44.6386 34.7418 44.0912L34.9037 44.5191L32.2554 48.613H31.4921L28.9247 44.5653L29.0519 44.0912C29.1367 44.6077 29.1945 45.1397 29.2254 45.6871C29.2639 46.2268 29.2832 46.8706 29.2832 47.6184V50.9375H28.0342ZM44.8902 51.0531C44.3043 51.0531 43.7569 50.9491 43.248 50.7409C42.7392 50.525 42.292 50.2282 41.9065 49.8504C41.521 49.4726 41.2203 49.0332 41.0045 48.532C40.7963 48.0232 40.6922 47.4758 40.6922 46.8898C40.6922 46.3116 40.7963 45.7719 41.0045 45.2708C41.2203 44.7696 41.5172 44.334 41.8949 43.9639C42.2804 43.5862 42.7276 43.2932 43.2365 43.085C43.7453 42.8769 44.2927 42.7728 44.8787 42.7728C45.2873 42.7728 45.6843 42.8306 46.0698 42.9462C46.463 43.0619 46.8177 43.2238 47.1338 43.432C47.4499 43.6401 47.7082 43.8791 47.9086 44.149L47.0991 44.9932C46.7522 44.6617 46.3898 44.4111 46.012 44.2415C45.6419 44.0719 45.2642 43.9871 44.8787 43.9871C44.4623 43.9871 44.0768 44.0603 43.7222 44.2068C43.3752 44.3533 43.0668 44.5576 42.797 44.8197C42.5349 45.0819 42.3306 45.3903 42.1841 45.7449C42.0376 46.0919 41.9643 46.4735 41.9643 46.8898C41.9643 47.2907 42.0414 47.6724 42.1956 48.0347C42.3498 48.3894 42.5619 48.7016 42.8317 48.9715C43.1092 49.2413 43.4254 49.4534 43.78 49.6076C44.1424 49.7617 44.524 49.8388 44.9249 49.8388C45.2256 49.8388 45.5109 49.7964 45.7807 49.7116C46.0506 49.6191 46.2896 49.4919 46.4977 49.33C46.7059 49.1681 46.8678 48.9831 46.9834 48.7749C47.0991 48.559 47.1569 48.3316 47.1569 48.0926V47.8613L47.3304 48.0232H44.8555V46.7857H48.4406C48.456 46.8706 48.4676 46.9554 48.4753 47.0402C48.483 47.1173 48.4869 47.1944 48.4869 47.2715C48.4946 47.3409 48.4984 47.4102 48.4984 47.4796C48.4984 48.0116 48.4059 48.4973 48.2209 48.9368C48.0358 49.3685 47.7776 49.7425 47.446 50.0586C47.1222 50.3747 46.7406 50.6214 46.3011 50.7987C45.8694 50.9683 45.3991 51.0531 44.8902 51.0531ZM49.824 50.9375V44.866H51.0268V46.7742L50.9111 46.3116C50.9959 46.0186 51.1386 45.7526 51.339 45.5136C51.5472 45.2746 51.7823 45.0857 52.0445 44.947C52.3143 44.8082 52.5919 44.7388 52.8771 44.7388C53.0082 44.7388 53.1316 44.7503 53.2472 44.7735C53.3706 44.7966 53.4669 44.8236 53.5363 44.8544L53.2241 46.1497C53.1316 46.1111 53.0275 46.0803 52.9118 46.0572C52.8039 46.0263 52.696 46.0109 52.588 46.0109C52.3799 46.0109 52.1794 46.0533 51.9867 46.1381C51.8016 46.2152 51.6359 46.327 51.4894 46.4735C51.3506 46.6123 51.2388 46.778 51.154 46.9708C51.0692 47.1558 51.0268 47.3601 51.0268 47.5837V50.9375H49.824ZM56.9579 51.0531C56.3642 51.0531 55.8322 50.9182 55.3619 50.6484C54.8993 50.3708 54.5331 49.9969 54.2633 49.5266C53.9934 49.0486 53.8585 48.505 53.8585 47.896C53.8585 47.2869 53.9934 46.7472 54.2633 46.2769C54.5331 45.7989 54.8993 45.425 55.3619 45.1551C55.8322 44.8776 56.3642 44.7388 56.9579 44.7388C57.5438 44.7388 58.0681 44.8776 58.5307 45.1551C59.001 45.425 59.3711 45.7989 59.6409 46.2769C59.9107 46.7472 60.0457 47.2869 60.0457 47.896C60.0457 48.505 59.9107 49.0486 59.6409 49.5266C59.3711 49.9969 59.001 50.3708 58.5307 50.6484C58.0681 50.9182 57.5438 51.0531 56.9579 51.0531ZM56.9579 49.9661C57.3202 49.9661 57.6441 49.8774 57.9293 49.7001C58.2146 49.515 58.4382 49.2683 58.6001 48.9599C58.762 48.6438 58.8391 48.2892 58.8314 47.896C58.8391 47.4951 58.762 47.1404 58.6001 46.832C58.4382 46.5159 58.2146 46.2692 57.9293 46.0919C57.6441 45.9145 57.3202 45.8259 56.9579 45.8259C56.5955 45.8259 56.2678 45.9184 55.9749 46.1034C55.6896 46.2808 55.466 46.5275 55.3041 46.8436C55.1422 47.152 55.0651 47.5028 55.0728 47.896C55.0651 48.2892 55.1422 48.6438 55.3041 48.9599C55.466 49.2683 55.6896 49.515 55.9749 49.7001C56.2678 49.8774 56.5955 49.9661 56.9579 49.9661ZM62.6096 50.9375L60.5395 44.866L61.7423 44.8544L63.2225 49.3994L62.9566 49.3763L64.5641 45.8259H65.2811L66.9001 49.3878L66.5879 49.411L68.0797 44.866H69.2825L67.2355 50.9375H66.4144L64.726 47.0749L64.992 47.1096L63.4191 50.9375H62.6096Z" fill="#008D91"/>
</svg>
